<?xml version="1.0" encoding="UTF-8" standalone="no"?>
<!-- Created with Inkscape (http://www.inkscape.org/) -->

<svg
   width="170"
   height="170"
   viewBox="0 0 44.979166 44.979166"
   version="1.1"
   id="svg1"
   inkscape:version="1.4.2 (ebf0e940, 2025-05-08)"
   sodipodi:docname="cat.svg"
   inkscape:export-batch-path="../attachments"
   inkscape:export-batch-name="cat-"
   xmlns:inkscape="http://www.inkscape.org/namespaces/inkscape"
   xmlns:sodipodi="http://sodipodi.sourceforge.net/DTD/sodipodi-0.dtd"
   xmlns="http://www.w3.org/2000/svg"
   xmlns:svg="http://www.w3.org/2000/svg">
  <sodipodi:namedview
     id="namedview1"
     pagecolor="#ffffff"
     bordercolor="#000000"
     borderopacity="0.25"
     inkscape:showpageshadow="2"
     inkscape:pageopacity="0.0"
     inkscape:pagecheckerboard="0"
     inkscape:deskcolor="#d1d1d1"
     inkscape:document-units="px"
     inkscape:zoom="1"
     inkscape:cx="517.5"
     inkscape:cy="174"
     inkscape:window-width="1920"
     inkscape:window-height="943"
     inkscape:window-x="1920"
     inkscape:window-y="25"
     inkscape:window-maximized="0"
     inkscape:current-layer="g17">
    <inkscape:page
       x="0"
       y="0"
       width="44.979164"
       height="44.979164"
       id="page19"
       margin="0"
       bleed="0"
       inkscape:label="onset" />
    <inkscape:page
       x="87"
       y="0"
       width="44.979164"
       height="44.979164"
       id="page20"
       margin="0"
       bleed="0"
       inkscape:label="nuclear" />
    <inkscape:page
       x="175"
       y="0"
       width="44.979164"
       height="44.979164"
       id="page21"
       margin="0"
       bleed="0"
       inkscape:label="coda" />
  </sodipodi:namedview>
  <defs
     id="defs1" />
  <g
     inkscape:label="Layer 1"
     inkscape:groupmode="layer"
     id="layer1"
     transform="translate(175.94792,12.699997)">
    <g
       id="use120-5"
       transform="translate(-111.2719,-166.49839)">
      <g
         id="g5">
        <path
           style="fill:#000000;fill-opacity:1;stroke:#cccccc;stroke-width:0.529167;stroke-linecap:round;stroke-linejoin:round;stroke-dasharray:none;stroke-opacity:1;paint-order:markers fill stroke"
           d="m 33.087998,174.55901 v -16.12478 l 8.763415,10.71084 z"
           id="path2"
           sodipodi:nodetypes="cccc" />
        <g
           id="use2"
           transform="matrix(0.94372378,0,0,0.94372378,-78.96567,78.070682)">
          <g
             id="g13">
            <path
               style="fill:none;fill-opacity:1;stroke:#000000;stroke-width:1.04272;stroke-linecap:round;stroke-linejoin:round;stroke-dasharray:none;stroke-dashoffset:6;stroke-opacity:1;paint-order:markers stroke fill"
               d="m 142.85521,103.91914 8.04618,-0.88795"
               id="path10"
               sodipodi:nodetypes="cc" />
            <path
               style="fill:none;fill-opacity:1;stroke:#000000;stroke-width:1.04272;stroke-linecap:round;stroke-linejoin:round;stroke-dasharray:none;stroke-dashoffset:6;stroke-opacity:1;paint-order:markers stroke fill"
               d="m 142.45738,106.90291 8.5535,1.39243"
               id="path11" />
            <path
               style="fill:none;fill-opacity:1;stroke:#000000;stroke-width:1.04272;stroke-linecap:round;stroke-linejoin:round;stroke-dasharray:none;stroke-dashoffset:6;stroke-opacity:1;paint-order:markers stroke fill"
               d="m 119.89057,103.65144 -8.72979,-0.50494"
               id="path12"
               sodipodi:nodetypes="cc" />
            <path
               style="fill:none;fill-opacity:1;stroke:#000000;stroke-width:1.04272;stroke-linecap:round;stroke-linejoin:round;stroke-dasharray:none;stroke-dashoffset:6;stroke-opacity:1;paint-order:markers stroke fill"
               d="m 121.42997,106.65005 -11.0994,1.34257"
               id="path13"
               sodipodi:nodetypes="cc" />
          </g>
        </g>
        <path
           style="fill:#000000;fill-opacity:1;stroke:#cccccc;stroke-width:0.529167;stroke-linecap:round;stroke-linejoin:round;stroke-dasharray:none;stroke-opacity:1;paint-order:markers fill stroke"
           d="m 56.566047,174.55901 v -16.12478 l -8.763415,10.71084 z"
           id="path3"
           sodipodi:nodetypes="cccc" />
        <circle
           style="fill:#ffffff;fill-opacity:1;stroke:#000000;stroke-width:0.529167;stroke-linecap:round;stroke-linejoin:round;stroke-dasharray:none;stroke-dashoffset:6;paint-order:markers fill stroke"
           id="circle3"
           cx="45.195293"
           cy="178.09874"
           r="13.229166" />
        <g
           id="g4"
           transform="matrix(0.59252157,0,0,0.59252157,-34.228921,92.177929)">
          <path
             style="fill:#74a1ff;fill-opacity:1;stroke:#000000;stroke-width:1.05833;stroke-linecap:round;stroke-linejoin:round;stroke-dasharray:none;stroke-opacity:1;paint-order:markers fill stroke"
             d="m 124.32772,165.54887 c -2.8103,0 -3.7096,4.04683 -0.11241,3.93442 3.59719,-0.11241 15.17563,0 18.99764,0 3.82201,0 4.38407,-3.82201 -0.22483,-3.82201 -4.60889,0 -18.6604,-0.11241 -18.6604,-0.11241 z"
             id="path4"
             sodipodi:nodetypes="csssc" />
          <ellipse
             style="fill:#ffec74;fill-opacity:1;stroke:#000000;stroke-width:1.05833;stroke-linecap:round;stroke-linejoin:round;stroke-dasharray:none;stroke-opacity:1;paint-order:markers fill stroke"
             id="ellipse4"
             cx="134.38861"
             cy="167.17883"
             rx="3.0913312"
             ry="3.3161554" />
        </g>
      </g>
    </g>
    <g
       id="use118-5"
       transform="translate(-22.9243,-167.60046)">
      <g
         id="use6"
         transform="translate(16.68746,66.763532)">
        <g
           id="g18"
           transform="translate(-2.1429414,3.9797483)"
           style="stroke:#000000;stroke-opacity:1">
          <g
             id="g17"
             transform="translate(2.2538068,-0.75126894)">
            <path
               style="fill:#000000;fill-opacity:1;stroke:#cccccc;stroke-width:0.52916666;stroke-linecap:round;stroke-linejoin:round;stroke-dasharray:none;stroke-opacity:1;paint-order:markers stroke fill"
               d="m 23.224275,123.04371 c 0,0 -0.08092,-0.73715 -0.08092,-0.77647 0,-0.0393 0.05058,-0.18673 0.07081,-0.2752 0.03034,-0.2457 -0.08092,-0.19656 -0.07081,-0.56021 0.01009,-0.36366 -0.04046,-0.98286 -0.04046,-1.15977 0,-0.17691 -0.09103,-0.58972 -0.09103,-1.12045 0.577295,-0.84825 2.55028,-0.68822 2.9232,-0.0295 0,0.47177 -0.06069,0.98286 -0.07081,1.22856 -0.08092,0.26538 -0.01009,0.33417 -0.151722,0.42264 0.06069,0.25553 0.283216,0.77645 0.09104,1.10079 0.09103,0.44228 0.151725,0.73713 0.182068,0.8256 -0.05057,0.31452 0.01009,0.58971 0,0.84525 0.262988,0.26537 0.525975,1.01234 -0.09103,1.40547 -0.647353,0.29486 -0.617009,0.30469 -0.768731,0.36367 -0.141609,-0.12778 -0.273102,0.0197 -0.384366,0.10813 -0.202296,0.15726 -0.434939,0.2064 -0.93057,0.89439 -0.475398,0.73714 -0.374247,0.72732 -0.819305,1.01234 -0.445053,0.28503 -1.021603,0.58972 -1.567806,0.6192 -0.546203,0.0295 -2.107291,-0.0245 -2.683901,-0.27537 -0.576609,-0.25089 -0.635499,-0.54519 -0.80919,-0.70766 -0.537567,-0.50284 -0.825581,-1.25563 -0.684007,-1.53083 0.141609,-0.2752 0.44256,-1.19534 0.705547,-1.32312 0.262987,-0.12777 0.671231,-0.36219 0.873528,-0.37202 0.202298,-0.0103 0.452353,-0.0364 0.903043,-0.008 0.352085,0.022 1.856787,0.70842 2.150118,0.70842 0.161837,-0.17691 0.182067,-0.30468 0.475397,-0.30468 -0.192181,-0.2752 -0.0708,-0.29486 0.06069,-0.29486 0.131495,0 0.151723,-0.0103 0.394481,-0.0103 0.0708,-0.22606 0.222528,-0.62902 0.41471,-0.78628 z"
               id="path14"
               sodipodi:nodetypes="csccscccccccccccscsssscsccsccc" />
            <path
               style="fill:#000000;fill-opacity:1;stroke:#cccccc;stroke-width:0.52916666;stroke-linecap:round;stroke-linejoin:round;stroke-dasharray:none;stroke-opacity:1;paint-order:markers stroke fill"
               d="m 29.655751,119.13563 c 0,-0.85119 3.151889,-0.58761 3.748191,0.0237 -0.206881,1.02877 -0.255559,1.25343 -0.279896,1.44263 -0.02435,0.18921 -0.243391,0.89871 -0.839693,1.45447 0.109527,0.31927 0.401593,0.43753 0.194712,1.01695 0.279896,0.0946 0.352912,0.15373 0.425931,0.40204 0.21905,0.30745 0.279897,0.49665 0.474609,0.67402 0.608472,0.29563 1.680214,-0.3199 1.923605,-0.2726 0.243391,-0.26778 0.683824,-0.30045 0.769012,-0.28863 0.08519,0.0118 0.336739,0.14504 0.486776,0.24832 0.126011,0.0868 0.146033,0.071 0.340745,0.30745 0.194712,0.2365 0.340743,0.44935 0.340743,0.68585 0,0.23649 -0.06402,1.85015 -0.25873,2.063 -0.194708,0.21284 -0.949215,0.81591 -1.533348,0.82774 -0.584134,0.0118 -1.813249,-0.0591 -2.336533,-0.39022 -0.523288,-0.3311 -0.92488,-0.88687 -1.168267,-1.15884 -0.243391,-0.27198 -0.791016,-0.87505 -0.949219,-0.9933 -0.158203,-0.11825 -0.133862,-0.23649 -0.62064,-0.21284 -0.438103,-0.17738 -0.754505,-0.29563 -0.90054,-0.43753 -0.146033,-0.14189 -0.292068,-0.0947 -0.292068,-0.39022 0,-0.29562 0.03651,-0.49664 0.267728,-0.69767 -0.06085,-0.57942 -0.08519,-1.48994 -0.01217,-2.28222 0.08519,-0.94598 0.219049,-2.02206 0.219049,-2.02206 z"
               id="path15"
               sodipodi:nodetypes="ccccccccsasssscsscsscccc" />
            <path
               style="opacity:1;fill:none;fill-opacity:1;stroke:#74a1ff;stroke-width:0.79375;stroke-linecap:round;stroke-linejoin:round;stroke-dasharray:none;stroke-opacity:1;paint-order:markers stroke fill"
               d="m 22.806415,123.04479 c 0.438094,1.24127 1.89841,1.02223 3.285711,0.36508"
               id="path16" />
            <path
               style="opacity:1;fill:none;fill-opacity:1;stroke:#74a1ff;stroke-width:0.79375;stroke-linecap:round;stroke-linejoin:round;stroke-dasharray:none;stroke-opacity:1;paint-order:markers stroke fill"
               d="m 29.259206,123.35287 c 1.323833,0.93319 3.400316,0.82968 3.863367,-0.0585"
               id="path17"
               sodipodi:nodetypes="cc" />
          </g>
        </g>
      </g>
      <path
         style="fill:none;fill-opacity:1;stroke:#000000;stroke-width:2.88676;stroke-linecap:round;stroke-linejoin:round;stroke-dasharray:none;stroke-opacity:1;paint-order:markers fill stroke"
         d="m 50.200474,182.94235 c 4.554899,7.46611 7.581424,8.214 11.817552,4.69715"
         id="path6"
         sodipodi:nodetypes="cc" />
      <circle
         style="fill:#ffffff;fill-opacity:1;stroke:#000000;stroke-width:0.529167;stroke-linecap:round;stroke-linejoin:round;stroke-dasharray:none;stroke-dashoffset:6;paint-order:markers fill stroke"
         id="circle6"
         cx="44.922531"
         cy="178.79596"
         r="13.229166" />
    </g>
    <g
       id="use49-5"
       transform="translate(-199.6303,-167.19562)">
      <circle
         style="fill:#ffffff;fill-opacity:1;stroke:#000000;stroke-width:0.529167;stroke-linecap:round;stroke-linejoin:round;stroke-dasharray:none;stroke-dashoffset:6;paint-order:markers fill stroke"
         id="circle7"
         cx="44.922531"
         cy="178.79596"
         r="13.229166" />
      <g
         id="use7"
         transform="translate(17.5784,81.011329)"
         style="stroke:#cccccc;stroke-opacity:1;stroke-width:0.52916666;stroke-dasharray:none">
        <g
           id="g9"
           style="stroke:#cccccc;stroke-opacity:1;stroke-width:0.52916666;stroke-dasharray:none">
          <path
             id="path7"
             style="opacity:1;stroke:#cccccc;stroke-width:0.52916666;stroke-linecap:round;stroke-linejoin:round;stroke-dasharray:none;stroke-opacity:1;paint-order:markers stroke fill"
             d="m 21.344303,76.466774 c 4.310989,-1.972461 8.439421,-1.149535 12.541956,0 0.649342,0.181947 1.171838,0.544419 1.21724,1.21724 0.105654,1.565719 0.105654,5.58789 0,7.153609 -0.0454,0.672821 -0.542889,1.21724 -1.21724,1.21724 H 21.344303 c -0.674351,0 -1.076547,-0.557729 -1.21724,-1.21724 -0.424593,-1.990312 -0.189341,-5.777232 0,-7.153609 0.0919,-0.668059 0.604027,-0.936669 1.21724,-1.21724 z"
             sodipodi:nodetypes="sssssssss" />
          <path
             style="opacity:1;fill:#74a1ff;fill-opacity:1;stroke:#cccccc;stroke-width:0.52916666;stroke-linecap:round;stroke-linejoin:round;stroke-opacity:1;paint-order:markers stroke fill;stroke-dasharray:none"
             d="m 20.206304,85.103979 c -0.633923,-2.218731 -0.237721,-0.554683 -0.237721,-2.139491 2.860926,-0.717957 12.46337,-0.984966 15.214159,0.237721 -0.237723,2.456453 -0.158483,2.139491 -0.158483,2.139491 z"
             id="path8"
             sodipodi:nodetypes="ccccc" />
          <path
             style="opacity:1;fill:#000000;fill-opacity:1;stroke:#cccccc;stroke-width:0.52916666;stroke-linecap:round;stroke-linejoin:round;stroke-dasharray:none;stroke-opacity:1;paint-order:markers stroke fill"
             d="m 16.386924,85.501021 0.604276,2.255186 c 6.9381,-0.806361 13.741547,-0.670154 20.468716,0 l 0.647036,-2.265929 c -7.158751,-0.646484 -14.352217,-1.015249 -21.720028,0.01074 z"
             id="path9"
             sodipodi:nodetypes="cccccc" />
        </g>
      </g>
    </g>
    <text
       xml:space="preserve"
       style="font-size:16.4921px;line-height:1;font-family:DFPGothic-UB;-inkscape-font-specification:DFPGothic-UB;text-align:start;text-decoration-color:#000000;letter-spacing:-0.131937px;word-spacing:0.0030348px;writing-mode:lr-tb;direction:ltr;text-anchor:start;fill:#070000;fill-opacity:1;stroke:#000000;stroke-width:0.824609;stroke-linecap:round;stroke-linejoin:round;stroke-dashoffset:6;paint-order:markers stroke fill"
       x="-160.57236"
       y="17.755051"
       id="text1-6-7-9"><tspan
         sodipodi:role="line"
         id="tspan1-9-6-9"
         style="fill:#070000;fill-opacity:1;stroke:none;stroke-width:0.824609"
         x="-160.57236"
         y="17.755051">C</tspan></text>
    <text
       xml:space="preserve"
       style="font-size:16.4921px;line-height:1;font-family:DFPGothic-UB;-inkscape-font-specification:DFPGothic-UB;text-align:start;text-decoration-color:#000000;letter-spacing:-0.131937px;word-spacing:0.0030348px;writing-mode:lr-tb;direction:ltr;text-anchor:start;fill:#070000;fill-opacity:1;stroke:#000000;stroke-width:0.824609;stroke-linecap:round;stroke-linejoin:round;stroke-dashoffset:6;paint-order:markers stroke fill"
       x="-72.053337"
       y="18.019135"
       id="text3-9-9-3"><tspan
         sodipodi:role="line"
         id="tspan3-7-1-6"
         style="fill:#070000;fill-opacity:1;stroke:none;stroke-width:0.824609"
         x="-72.053337"
         y="18.019135">A</tspan></text>
    <text
       xml:space="preserve"
       style="font-size:16.4921px;line-height:1;font-family:DFPGothic-UB;-inkscape-font-specification:DFPGothic-UB;text-align:start;text-decoration-color:#000000;letter-spacing:-0.131937px;word-spacing:0.0030348px;writing-mode:lr-tb;direction:ltr;text-anchor:start;fill:#070000;fill-opacity:1;stroke:#000000;stroke-width:0.824609;stroke-linecap:round;stroke-linejoin:round;stroke-dashoffset:6;paint-order:markers stroke fill"
       x="16.434942"
       y="18.452271"
       id="text6-4-0-9"><tspan
         sodipodi:role="line"
         id="tspan6-2-1-0"
         style="fill:#070000;fill-opacity:1;stroke:none;stroke-width:0.824609"
         x="16.434942"
         y="18.452271">T</tspan></text>
    <text
       xml:space="preserve"
       style="font-size:16.4921px;line-height:1;font-family:DFPGothic-UB;-inkscape-font-specification:DFPGothic-UB;text-align:start;text-decoration-color:#000000;letter-spacing:-0.131937px;word-spacing:0.0030348px;writing-mode:lr-tb;direction:ltr;text-anchor:start;fill:#070000;fill-opacity:1;stroke:#000000;stroke-width:0.824609;stroke-linecap:round;stroke-linejoin:round;stroke-dashoffset:6;paint-order:markers stroke fill"
       x="16.434942"
       y="18.452271"
       id="text125-7"><tspan
         sodipodi:role="line"
         id="tspan125-1"
         style="fill:#070000;fill-opacity:1;stroke:none;stroke-width:0.824609"
         x="16.434942"
         y="18.452271">T</tspan></text>
  </g>
</svg>
