<svg xmlns="http://www.w3.org/2000/svg" xmlns:xlink="http://www.w3.org/1999/xlink" version="1.2" width="205.98mm" height="15.70mm" viewBox="-1.1267 -0.0250 117.2140 8.9350">
<style type="text/css">
<![CDATA[
tspan { white-space: pre; }
]]>
</style>
<g transform="translate(31.7337, 3.3750)">
<rect x="0.0000" y="-1.0000" width="0.1900" height="2.0000" ry="0.0000" fill="currentColor"/>
</g>
<g transform="translate(31.2437, 3.3750)">
<rect x="0.0000" y="-1.0000" width="0.1900" height="2.0000" ry="0.0000" fill="currentColor"/>
</g>
<g transform="translate(73.8155, 3.3750)">
<rect x="0.0000" y="-1.0000" width="0.1900" height="2.0000" ry="0.0000" fill="currentColor"/>
</g>
<g transform="translate(115.8972, 3.3750)">
<rect x="0.0000" y="-1.0000" width="0.1900" height="2.0000" ry="0.0000" fill="currentColor"/>
</g>
<g transform="translate(0.0000, 3.3750)">
<line stroke-linejoin="round" stroke-linecap="round" stroke-width="0.1000" stroke="currentColor" x1="0.0500" y1="0" x2="116.0372" y2="0"/>
</g>
<g transform="translate(75.6851, 8.8750)">
<text font-family="Charis SIL" font-weight="bold" font-style="italic" font-size="2.4697" text-anchor="start" fill="currentColor">
<tspan>da</tspan>
</text>
</g>
<g transform="translate(77.4393, 2.8750)">
<path transform="scale(0.0040, -0.0040)" d="M0 0c0 31 25 56 56 56s56 -25 56 -56s-25 -56 -56 -56s-56 25 -56 56z" fill="currentColor"/>
</g>
<g transform="translate(76.9243, 3.3750)">
<rect x="-0.0650" y="-3.3333" width="0.1300" height="3.1472" ry="0.0400" fill="currentColor"/>
</g>
<g transform="translate(60.2440, 3.3750)">
<path transform="scale(0.0040, -0.0040)" d="M218 136c66 0 108 -36 108 -89c0 -89 -113 -183 -218 -183c-66 0 -108 36 -108 89c0 89 113 183 218 183z" fill="currentColor"/>
</g>
<g transform="translate(89.1217, 1.3750)">
<path transform="scale(0.0040, -0.0040)" d="M70 205c79 0 46 -98 91 -98c16 0 54 48 61 63c6 12 23 12 28 0l-123 -420c-8 -7 -17 -10 -27 -10s-20 3 -28 10l117 326c-34 -12 -69 -22 -105 -22c-47 0 -87 34 -87 79c0 40 33 72 73 72z" fill="currentColor"/>
</g>
<g transform="translate(93.4006, 1.3750)">
<path transform="scale(0.0040, -0.0040)" d="M70 205c79 0 46 -98 91 -98c16 0 54 48 61 63c6 12 23 12 28 0l-123 -420c-8 -7 -17 -10 -27 -10s-20 3 -28 10l117 326c-34 -12 -69 -22 -105 -22c-47 0 -87 34 -87 79c0 40 33 72 73 72z" fill="currentColor"/>
</g>
<g transform="translate(92.6373, 8.8750)">
<text font-family="Charis SIL" font-weight="bold" font-style="italic" font-size="2.4697" text-anchor="start" fill="currentColor">
<tspan>la</tspan>
</text>
</g>
<g transform="translate(60.8961, 4.5400)">
<path transform="scale(0.0040, -0.0040)" d="M-173 68c-8 2 -15 9 -15 18c0 10 9 19 19 19c2 0 3 -1 5 -1l337 -86c8 -2 15 -9 15 -18s-7 -16 -15 -18l-337 -86c-2 0 -3 -1 -5 -1c-10 0 -19 9 -19 19c0 9 7 16 15 18l206 53l109 15l-109 15z" fill="currentColor"/>
</g>
<g transform="translate(59.5535, 8.8750)">
<text font-family="Charis SIL" font-weight="bold" font-style="italic" font-size="2.4697" text-anchor="start" fill="currentColor">
<tspan>da</tspan>
</text>
</g>
<g transform="translate(61.4832, 3.3750)">
<rect x="-0.0650" y="-3.3750" width="0.1300" height="3.1889" ry="0.0400" fill="currentColor"/>
</g>
<g transform="translate(61.5482, 0.0400)">
<path transform="scale(0.0040, -0.0040)" d="M0 0v-250h-16v250h16zM0 0c0 -197 207 -336 207 -533c0 -71 -15 -141 -41 -207c-5 -8 -13 -12 -20 -12c-13 0 -26 11 -23 27c26 61 42 126 42 192c0 103 -94 208 -165 283v250z" fill="currentColor"/>
</g>
<g transform="translate(64.8903, 1.3750)">
<path transform="scale(0.0040, -0.0040)" d="M70 205c79 0 46 -98 91 -98c16 0 54 48 61 63c6 12 23 12 28 0l-123 -420c-8 -7 -17 -10 -27 -10s-20 3 -28 10l117 326c-34 -12 -69 -22 -105 -22c-47 0 -87 34 -87 79c0 40 33 72 73 72z" fill="currentColor"/>
</g>
<g transform="translate(64.1270, 8.8750)">
<text font-family="Charis SIL" font-weight="bold" font-style="italic" font-size="2.4697" text-anchor="start" fill="currentColor">
<tspan>la</tspan>
</text>
</g>
<g transform="translate(69.1692, 3.3750)">
<path transform="scale(0.0040, -0.0040)" d="M218 136c66 0 108 -36 108 -89c0 -89 -113 -183 -218 -183c-66 0 -108 36 -108 89c0 89 113 183 218 183z" fill="currentColor"/>
</g>
<g transform="translate(68.4787, 8.8750)">
<text font-family="Charis SIL" font-weight="bold" font-style="italic" font-size="2.4697" text-anchor="start" fill="currentColor">
<tspan>ba</tspan>
</text>
</g>
<g transform="translate(70.4084, 3.3750)">
<rect x="-0.0650" y="-3.3750" width="0.1300" height="3.1889" ry="0.0400" fill="currentColor"/>
</g>
<g transform="translate(70.4734, 0.0400)">
<path transform="scale(0.0040, -0.0040)" d="M0 0v-250h-16v250h16zM0 0c0 -197 207 -336 207 -533c0 -71 -15 -141 -41 -207c-5 -8 -13 -12 -20 -12c-13 0 -26 11 -23 27c26 61 42 126 42 192c0 103 -94 208 -165 283v250z" fill="currentColor"/>
</g>
<g transform="translate(75.6851, 3.3750)">
<path transform="scale(0.0040, -0.0040)" d="M218 136c66 0 108 -36 108 -89c0 -89 -113 -183 -218 -183c-66 0 -108 36 -108 89c0 89 113 183 218 183z" fill="currentColor"/>
</g>
<g transform="translate(76.3372, 4.5400)">
<path transform="scale(0.0040, -0.0040)" d="M-173 68c-8 2 -15 9 -15 18c0 10 9 19 19 19c2 0 3 -1 5 -1l337 -86c8 -2 15 -9 15 -18s-7 -16 -15 -18l-337 -86c-2 0 -3 -1 -5 -1c-10 0 -19 9 -19 19c0 9 7 16 15 18l206 53l109 15l-109 15z" fill="currentColor"/>
</g>
<g transform="translate(110.5604, 8.8750)">
<text font-family="Charis SIL" font-weight="bold" font-style="italic" font-size="2.4697" text-anchor="start" fill="currentColor">
<tspan>ba</tspan>
</text>
</g>
<g transform="translate(112.4901, 3.3750)">
<rect x="-0.0650" y="-3.3750" width="0.1300" height="3.1889" ry="0.0400" fill="currentColor"/>
</g>
<g transform="translate(112.5551, 0.0400)">
<path transform="scale(0.0040, -0.0040)" d="M0 0v-250h-16v250h16zM0 0c0 -197 207 -336 207 -533c0 -71 -15 -141 -41 -207c-5 -8 -13 -12 -20 -12c-13 0 -26 11 -23 27c26 61 42 126 42 192c0 103 -94 208 -165 283v250z" fill="currentColor"/>
</g>
<g transform="translate(103.5650, 3.3750)">
<rect x="-0.0650" y="-3.3750" width="0.1300" height="3.1889" ry="0.0400" fill="currentColor"/>
</g>
<g transform="translate(97.6794, 3.3750)">
<path transform="scale(0.0040, -0.0040)" d="M218 136c66 0 108 -36 108 -89c0 -89 -113 -183 -218 -183c-66 0 -108 36 -108 89c0 89 113 183 218 183z" fill="currentColor"/>
</g>
<g transform="translate(96.9889, 8.8750)">
<text font-family="Charis SIL" font-weight="bold" font-style="italic" font-size="2.4697" text-anchor="start" fill="currentColor">
<tspan>ba</tspan>
</text>
</g>
<g transform="translate(98.9186, 3.3750)">
<rect x="-0.0650" y="-3.3750" width="0.1300" height="3.1889" ry="0.0400" fill="currentColor"/>
</g>
<g transform="translate(98.9836, 0.0400)">
<path transform="scale(0.0040, -0.0040)" d="M0 0v-250h-16v250h16zM0 0c0 -197 207 -336 207 -533c0 -71 -15 -141 -41 -207c-5 -8 -13 -12 -20 -12c-13 0 -26 11 -23 27c26 61 42 126 42 192c0 103 -94 208 -165 283v250z" fill="currentColor"/>
</g>
<g transform="translate(102.3257, 3.3750)">
<path transform="scale(0.0040, -0.0040)" d="M218 136c66 0 108 -36 108 -89c0 -89 -113 -183 -218 -183c-66 0 -108 36 -108 89c0 89 113 183 218 183z" fill="currentColor"/>
</g>
<g transform="translate(102.9778, 4.5400)">
<path transform="scale(0.0040, -0.0040)" d="M-173 68c-8 2 -15 9 -15 18c0 10 9 19 19 19c2 0 3 -1 5 -1l337 -86c8 -2 15 -9 15 -18s-7 -16 -15 -18l-337 -86c-2 0 -3 -1 -5 -1c-10 0 -19 9 -19 19c0 9 7 16 15 18l206 53l109 15l-109 15z" fill="currentColor"/>
</g>
<g transform="translate(101.6352, 8.8750)">
<text font-family="Charis SIL" font-weight="bold" font-style="italic" font-size="2.4697" text-anchor="start" fill="currentColor">
<tspan>da</tspan>
</text>
</g>
<g transform="translate(103.6300, 0.0400)">
<path transform="scale(0.0040, -0.0040)" d="M0 0v-250h-16v250h16zM0 0c0 -197 207 -336 207 -533c0 -71 -15 -141 -41 -207c-5 -8 -13 -12 -20 -12c-13 0 -26 11 -23 27c26 61 42 126 42 192c0 103 -94 208 -165 283v250z" fill="currentColor"/>
</g>
<g transform="translate(106.9721, 1.3750)">
<path transform="scale(0.0040, -0.0040)" d="M70 205c79 0 46 -98 91 -98c16 0 54 48 61 63c6 12 23 12 28 0l-123 -420c-8 -7 -17 -10 -27 -10s-20 3 -28 10l117 326c-34 -12 -69 -22 -105 -22c-47 0 -87 34 -87 79c0 40 33 72 73 72z" fill="currentColor"/>
</g>
<g transform="translate(106.2088, 8.8750)">
<text font-family="Charis SIL" font-weight="bold" font-style="italic" font-size="2.4697" text-anchor="start" fill="currentColor">
<tspan>la</tspan>
</text>
</g>
<g transform="translate(111.2509, 3.3750)">
<path transform="scale(0.0040, -0.0040)" d="M218 136c66 0 108 -36 108 -89c0 -89 -113 -183 -218 -183c-66 0 -108 36 -108 89c0 89 113 183 218 183z" fill="currentColor"/>
</g>
<g transform="translate(12.3354, 8.8750)">
<text font-family="Charis SIL" font-weight="bold" font-style="italic" font-size="2.4697" text-anchor="start" fill="currentColor">
<tspan>ba</tspan>
</text>
</g>
<g transform="translate(14.2651, 3.3750)">
<rect x="-0.0650" y="-3.3750" width="0.1300" height="3.1889" ry="0.0400" fill="currentColor"/>
</g>
<g transform="translate(14.3301, 0.0400)">
<path transform="scale(0.0040, -0.0040)" d="M0 0v-250h-16v250h16zM0 0c0 -197 207 -336 207 -533c0 -71 -15 -141 -41 -207c-5 -8 -13 -12 -20 -12c-13 0 -26 11 -23 27c26 61 42 126 42 192c0 103 -94 208 -165 283v250z" fill="currentColor"/>
</g>
<g transform="translate(17.6722, 3.3750)">
<path transform="scale(0.0040, -0.0040)" d="M218 136c66 0 108 -36 108 -89c0 -89 -113 -183 -218 -183c-66 0 -108 36 -108 89c0 89 113 183 218 183z" fill="currentColor"/>
</g>
<g transform="translate(18.3243, 4.5400)">
<path transform="scale(0.0040, -0.0040)" d="M-173 68c-8 2 -15 9 -15 18c0 10 9 19 19 19c2 0 3 -1 5 -1l337 -86c8 -2 15 -9 15 -18s-7 -16 -15 -18l-337 -86c-2 0 -3 -1 -5 -1c-10 0 -19 9 -19 19c0 9 7 16 15 18l206 53l109 15l-109 15z" fill="currentColor"/>
</g>
<g transform="translate(16.9817, 8.8750)">
<text font-family="Charis SIL" font-weight="bold" font-style="italic" font-size="2.4697" text-anchor="start" fill="currentColor">
<tspan>da</tspan>
</text>
</g>
<g transform="translate(18.9114, 3.3750)">
<rect x="-0.0650" y="-3.3750" width="0.1300" height="3.1889" ry="0.0400" fill="currentColor"/>
</g>
<g transform="translate(18.9764, 0.0400)">
<path transform="scale(0.0040, -0.0040)" d="M0 0v-250h-16v250h16zM0 0c0 -197 207 -336 207 -533c0 -71 -15 -141 -41 -207c-5 -8 -13 -12 -20 -12c-13 0 -26 11 -23 27c26 61 42 126 42 192c0 103 -94 208 -165 283v250z" fill="currentColor"/>
</g>
<g transform="translate(22.3185, 1.3750)">
<path transform="scale(0.0040, -0.0040)" d="M70 205c79 0 46 -98 91 -98c16 0 54 48 61 63c6 12 23 12 28 0l-123 -420c-8 -7 -17 -10 -27 -10s-20 3 -28 10l117 326c-34 -12 -69 -22 -105 -22c-47 0 -87 34 -87 79c0 40 33 72 73 72z" fill="currentColor"/>
</g>
<g transform="translate(21.5552, 8.8750)">
<text font-family="Charis SIL" font-weight="bold" font-style="italic" font-size="2.4697" text-anchor="start" fill="currentColor">
<tspan>la</tspan>
</text>
</g>
<g transform="translate(26.5974, 3.3750)">
<path transform="scale(0.0040, -0.0040)" d="M218 136c66 0 108 -36 108 -89c0 -89 -113 -183 -218 -183c-66 0 -108 36 -108 89c0 89 113 183 218 183z" fill="currentColor"/>
</g>
<g transform="translate(25.9069, 8.8750)">
<text font-family="Charis SIL" font-weight="bold" font-style="italic" font-size="2.4697" text-anchor="start" fill="currentColor">
<tspan>ba</tspan>
</text>
</g>
<g transform="translate(27.8366, 3.3750)">
<rect x="-0.0650" y="-3.3750" width="0.1300" height="3.1889" ry="0.0400" fill="currentColor"/>
</g>
<g transform="translate(4.4682, 1.3750)">
<path transform="scale(0.0040, -0.0040)" d="M70 205c79 0 46 -98 91 -98c16 0 54 48 61 63c6 12 23 12 28 0l-123 -420c-8 -7 -17 -10 -27 -10s-20 3 -28 10l117 326c-34 -12 -69 -22 -105 -22c-47 0 -87 34 -87 79c0 40 33 72 73 72z" fill="currentColor"/>
</g>
<g transform="translate(1.0512, 3.3750)">
<path transform="scale(0.0040, -0.0040)" d="M170 241c51 0 53 43 53 100v18v18c0 57 -2 100 -53 100c-57 0 -61 -51 -61 -118s4 -118 61 -118zM223 234c-15 -10 -33 -16 -53 -16c-101 0 -170 46 -170 141s69 141 170 141c112 0 170 -124 170 -250c0 -128 -72 -250 -190 -250c-70 0 -136 39 -136 103
c0 36 29 66 65 66s66 -30 66 -66c0 -24 -40 -25 -40 -49c0 -20 23 -31 45 -31c66 0 75 65 75 139c0 24 -2 48 -2 72z" fill="currentColor"/>
</g>
<g transform="translate(1.0000, 5.3750)">
<path transform="scale(0.0040, -0.0040)" d="M261 287c25 30 44 64 44 103c0 54 -55 87 -114 87c-46 0 -73 -36 -73 -71c0 -21 10 -42 31 -54zM292 269c23 -13 80 -54 80 -125c0 -73 -66 -144 -189 -144c-94 0 -183 54 -183 140c0 50 36 87 72 123c-37 28 -55 66 -55 103c0 68 60 134 174 134c80 0 157 -39 157 -110
c0 -46 -25 -86 -56 -121zM103 244c-31 -30 -59 -61 -59 -104c0 -69 66 -117 139 -117c54 0 86 42 86 83c0 24 -10 48 -35 62z" fill="currentColor"/>
</g>
<g transform="translate(8.7470, 1.3750)">
<path transform="scale(0.0040, -0.0040)" d="M70 205c79 0 46 -98 91 -98c16 0 54 48 61 63c6 12 23 12 28 0l-123 -420c-8 -7 -17 -10 -27 -10s-20 3 -28 10l117 326c-34 -12 -69 -22 -105 -22c-47 0 -87 34 -87 79c0 40 33 72 73 72z" fill="currentColor"/>
</g>
<g transform="translate(7.9837, 8.8750)">
<text font-family="Charis SIL" font-weight="bold" font-style="italic" font-size="2.4697" text-anchor="start" fill="currentColor">
<tspan>la</tspan>
</text>
</g>
<g transform="translate(13.0259, 3.3750)">
<path transform="scale(0.0040, -0.0040)" d="M218 136c66 0 108 -36 108 -89c0 -89 -113 -183 -218 -183c-66 0 -108 36 -108 89c0 89 113 183 218 183z" fill="currentColor"/>
</g>
<g transform="translate(55.5977, 3.3750)">
<path transform="scale(0.0040, -0.0040)" d="M218 136c66 0 108 -36 108 -89c0 -89 -113 -183 -218 -183c-66 0 -108 36 -108 89c0 89 113 183 218 183z" fill="currentColor"/>
</g>
<g transform="translate(50.5555, 8.8750)">
<text font-family="Charis SIL" font-weight="bold" font-style="italic" font-size="2.4697" text-anchor="start" fill="currentColor">
<tspan>la</tspan>
</text>
</g>
<g transform="translate(47.0399, 1.3750)">
<path transform="scale(0.0040, -0.0040)" d="M70 205c79 0 46 -98 91 -98c16 0 54 48 61 63c6 12 23 12 28 0l-123 -420c-8 -7 -17 -10 -27 -10s-20 3 -28 10l117 326c-34 -12 -69 -22 -105 -22c-47 0 -87 34 -87 79c0 40 33 72 73 72z" fill="currentColor"/>
</g>
<g transform="translate(51.3188, 1.3750)">
<path transform="scale(0.0040, -0.0040)" d="M70 205c79 0 46 -98 91 -98c16 0 54 48 61 63c6 12 23 12 28 0l-123 -420c-8 -7 -17 -10 -27 -10s-20 3 -28 10l117 326c-34 -12 -69 -22 -105 -22c-47 0 -87 34 -87 79c0 40 33 72 73 72z" fill="currentColor"/>
</g>
<g transform="translate(27.9016, 0.0400)">
<path transform="scale(0.0040, -0.0040)" d="M0 0v-250h-16v250h16zM0 0c0 -197 207 -336 207 -533c0 -71 -15 -141 -41 -207c-5 -8 -13 -12 -20 -12c-13 0 -26 11 -23 27c26 61 42 126 42 192c0 103 -94 208 -165 283v250z" fill="currentColor"/>
</g>
<g transform="translate(56.9019, 0.0400)">
<path transform="scale(0.0040, -0.0040)" d="M0 0v-250h-16v250h16zM0 0c0 -197 207 -336 207 -533c0 -71 -15 -141 -41 -207c-5 -8 -13 -12 -20 -12c-13 0 -26 11 -23 27c26 61 42 126 42 192c0 103 -94 208 -165 283v250z" fill="currentColor"/>
</g>
<g transform="translate(33.6033, 3.3750)">
<path transform="scale(0.0040, -0.0040)" d="M218 136c66 0 108 -36 108 -89c0 -89 -113 -183 -218 -183c-66 0 -108 36 -108 89c0 89 113 183 218 183z" fill="currentColor"/>
</g>
<g transform="translate(56.8369, 3.3750)">
<rect x="-0.0650" y="-3.3750" width="0.1300" height="3.1889" ry="0.0400" fill="currentColor"/>
</g>
<g transform="translate(34.2554, 4.5400)">
<path transform="scale(0.0040, -0.0040)" d="M-173 68c-8 2 -15 9 -15 18c0 10 9 19 19 19c2 0 3 -1 5 -1l337 -86c8 -2 15 -9 15 -18s-7 -16 -15 -18l-337 -86c-2 0 -3 -1 -5 -1c-10 0 -19 9 -19 19c0 9 7 16 15 18l206 53l109 15l-109 15z" fill="currentColor"/>
</g>
<g transform="translate(54.9072, 8.8750)">
<text font-family="Charis SIL" font-weight="bold" font-style="italic" font-size="2.4697" text-anchor="start" fill="currentColor">
<tspan>ba</tspan>
</text>
</g>
<g transform="translate(33.6033, 8.8750)">
<text font-family="Charis SIL" font-weight="bold" font-style="italic" font-size="2.4697" text-anchor="start" fill="currentColor">
<tspan>da</tspan>
</text>
</g>
<g transform="translate(35.3575, 2.8750)">
<path transform="scale(0.0040, -0.0040)" d="M0 0c0 31 25 56 56 56s56 -25 56 -56s-25 -56 -56 -56s-56 25 -56 56z" fill="currentColor"/>
</g>
<g transform="translate(34.8425, 3.3750)">
<rect x="-0.0650" y="-3.3333" width="0.1300" height="3.1472" ry="0.0400" fill="currentColor"/>
</g>
</svg>
