<svg xmlns="http://www.w3.org/2000/svg" xmlns:xlink="http://www.w3.org/1999/xlink" version="1.2" width="205.98mm" height="27.49mm" viewBox="-1.1267 -0.0000 117.2140 15.6430">
<style type="text/css">
<![CDATA[
tspan { white-space: pre; }
]]>
</style>
<g transform="translate(115.8972, 6.7606)">
<rect x="0.0000" y="-1.0000" width="0.1900" height="2.0000" ry="0.0000" fill="currentColor"/>
</g>
<g transform="translate(0.0000, 6.7606)">
<line stroke-linejoin="round" stroke-linecap="round" stroke-width="0.1000" stroke="currentColor" x1="0.0500" y1="0" x2="116.0372" y2="0"/>
</g>
<g transform="translate(103.6197, 12.2606)">
<text font-family="Charis SIL" font-weight="bold" font-style="italic" font-size="2.4697" text-anchor="start" fill="currentColor">
<tspan>-</tspan>
</text>
</g>
<g transform="translate(103.4797, 6.7606)">
<path transform="scale(0.0040, -0.0040)" d="M218 136c66 0 108 -36 108 -89c0 -89 -113 -183 -218 -183c-66 0 -108 36 -108 89c0 89 113 183 218 183z" fill="currentColor"/>
</g>
<g transform="translate(100.5992, 6.7606)">
<rect x="-0.0650" y="-3.0000" width="0.1300" height="2.8139" ry="0.0400" fill="currentColor"/>
</g>
<g transform="translate(99.1414, 15.0606)">
<text font-family="Charis SIL" font-weight="bold" font-style="italic" font-size="2.4697" text-anchor="start" fill="currentColor">
<tspan>n</tspan>
</text>
</g>
<g transform="translate(99.4999, 12.2606)">
<text font-family="Charis SIL" font-weight="bold" font-style="italic" font-size="2.4697" text-anchor="start" fill="currentColor">
<tspan>-</tspan>
</text>
</g>
<g transform="translate(99.3599, 6.7606)">
<path transform="scale(0.0040, -0.0040)" d="M218 136c66 0 108 -36 108 -89c0 -89 -113 -183 -218 -183c-66 0 -108 36 -108 89c0 89 113 183 218 183z" fill="currentColor"/>
</g>
<g transform="translate(96.4794, 6.7606)">
<rect x="-0.0650" y="-3.0000" width="0.1300" height="2.8139" ry="0.0400" fill="currentColor"/>
</g>
<g transform="translate(95.0557, 15.0606)">
<text font-family="Charis SIL" font-weight="bold" font-style="italic" font-size="2.4697" text-anchor="start" fill="currentColor">
<tspan>ə</tspan>
</text>
</g>
<g transform="translate(95.3801, 12.2606)">
<text font-family="Charis SIL" font-weight="bold" font-style="italic" font-size="2.4697" text-anchor="start" fill="currentColor">
<tspan>-</tspan>
</text>
</g>
<g transform="translate(95.2402, 6.7606)">
<path transform="scale(0.0040, -0.0040)" d="M218 136c66 0 108 -36 108 -89c0 -89 -113 -183 -218 -183c-66 0 -108 36 -108 89c0 89 113 183 218 183z" fill="currentColor"/>
</g>
<g transform="translate(112.9585, 6.7606)">
<rect x="-0.0650" y="-3.0000" width="0.1300" height="2.8139" ry="0.0400" fill="currentColor"/>
</g>
<g transform="translate(111.7568, 15.0606)">
<text font-family="Charis SIL" font-weight="bold" font-style="italic" font-size="2.4697" text-anchor="start" fill="currentColor">
<tspan>_</tspan>
</text>
</g>
<g transform="translate(111.8593, 12.2606)">
<text font-family="Charis SIL" font-weight="bold" font-style="italic" font-size="2.4697" text-anchor="start" fill="currentColor">
<tspan>-</tspan>
</text>
</g>
<g transform="translate(111.7193, 6.7606)">
<path transform="scale(0.0040, -0.0040)" d="M218 136c66 0 108 -36 108 -89c0 -89 -113 -183 -218 -183c-66 0 -108 36 -108 89c0 89 113 183 218 183z" fill="currentColor"/>
</g>
<g transform="translate(102.7734, 15.0606)">
<text font-family="Charis SIL" font-weight="bold" font-style="italic" font-size="2.4697" text-anchor="start" fill="currentColor">
<tspan>|</tspan>
</text>
</g>
<g transform="translate(104.2611, 15.0606)">
<text font-family="Charis SIL" font-weight="bold" font-style="italic" font-size="2.4697" text-anchor="start" fill="currentColor">
<tspan>_</tspan>
</text>
</g>
<g transform="translate(108.8387, 6.7606)">
<rect x="-0.0650" y="-3.0000" width="0.1300" height="2.8139" ry="0.0400" fill="currentColor"/>
</g>
<g transform="translate(107.4151, 15.0606)">
<text font-family="Charis SIL" font-weight="bold" font-style="italic" font-size="2.4697" text-anchor="start" fill="currentColor">
<tspan>ə</tspan>
</text>
</g>
<g transform="translate(107.7395, 12.2606)">
<text font-family="Charis SIL" font-weight="bold" font-style="italic" font-size="2.4697" text-anchor="start" fill="currentColor">
<tspan>-</tspan>
</text>
</g>
<g transform="translate(107.5995, 6.7606)">
<path transform="scale(0.0040, -0.0040)" d="M218 136c66 0 108 -36 108 -89c0 -89 -113 -183 -218 -183c-66 0 -108 36 -108 89c0 89 113 183 218 183z" fill="currentColor"/>
</g>
<g transform="translate(104.7189, 6.7606)">
<rect x="-0.0650" y="-3.0000" width="0.1300" height="2.8139" ry="0.0400" fill="currentColor"/>
</g>
<g transform="translate(82.8808, 6.7606)">
<path transform="scale(0.0040, -0.0040)" d="M218 136c66 0 108 -36 108 -89c0 -89 -113 -183 -218 -183c-66 0 -108 36 -108 89c0 89 113 183 218 183z" fill="currentColor"/>
</g>
<g transform="translate(80.0002, 6.7606)">
<rect x="-0.0650" y="-3.0000" width="0.1300" height="2.8139" ry="0.0400" fill="currentColor"/>
</g>
<g transform="translate(77.1499, 15.0606)">
<text font-family="Charis SIL" font-weight="bold" font-style="italic" font-size="2.4697" text-anchor="start" fill="currentColor">
<tspan>|</tspan>
</text>
</g>
<g transform="translate(78.6376, 15.0606)">
<text font-family="Charis SIL" font-weight="bold" font-style="italic" font-size="2.4697" text-anchor="start" fill="currentColor">
<tspan>θɹ</tspan>
</text>
</g>
<g transform="translate(78.1156, 12.2606)">
<text font-family="Charis SIL" font-weight="bold" font-style="italic" font-size="2.4697" text-anchor="start" fill="currentColor">
<tspan>|3</tspan>
</text>
</g>
<g transform="translate(78.7610, 6.7606)">
<path transform="scale(0.0040, -0.0040)" d="M218 136c66 0 108 -36 108 -89c0 -89 -113 -183 -218 -183c-66 0 -108 36 -108 89c0 89 113 183 218 183z" fill="currentColor"/>
</g>
<g transform="translate(83.0207, 12.2606)">
<text font-family="Charis SIL" font-weight="bold" font-style="italic" font-size="2.4697" text-anchor="start" fill="currentColor">
<tspan>-</tspan>
</text>
</g>
<g transform="translate(75.8804, 6.7606)">
<rect x="-0.0650" y="-3.0000" width="0.1300" height="2.8139" ry="0.0400" fill="currentColor"/>
</g>
<g transform="translate(74.6787, 15.0606)">
<text font-family="Charis SIL" font-weight="bold" font-style="italic" font-size="2.4697" text-anchor="start" fill="currentColor">
<tspan>_</tspan>
</text>
</g>
<g transform="translate(74.7811, 12.2606)">
<text font-family="Charis SIL" font-weight="bold" font-style="italic" font-size="2.4697" text-anchor="start" fill="currentColor">
<tspan>-</tspan>
</text>
</g>
<g transform="translate(74.6412, 6.7606)">
<path transform="scale(0.0040, -0.0040)" d="M218 136c66 0 108 -36 108 -89c0 -89 -113 -183 -218 -183c-66 0 -108 36 -108 89c0 89 113 183 218 183z" fill="currentColor"/>
</g>
<g transform="translate(88.2398, 6.7606)">
<rect x="-0.0650" y="-3.0000" width="0.1300" height="2.8139" ry="0.0400" fill="currentColor"/>
</g>
<g transform="translate(92.3596, 6.7606)">
<rect x="-0.0650" y="-3.0000" width="0.1300" height="2.8139" ry="0.0400" fill="currentColor"/>
</g>
<g transform="translate(90.4140, 15.0606)">
<text font-family="Charis SIL" font-weight="bold" font-style="italic" font-size="2.4697" text-anchor="start" fill="currentColor">
<tspan>|</tspan>
</text>
</g>
<g transform="translate(91.9017, 15.0606)">
<text font-family="Charis SIL" font-weight="bold" font-style="italic" font-size="2.4697" text-anchor="start" fill="currentColor">
<tspan>_</tspan>
</text>
</g>
<g transform="translate(91.2603, 12.2606)">
<text font-family="Charis SIL" font-weight="bold" font-style="italic" font-size="2.4697" text-anchor="start" fill="currentColor">
<tspan>-</tspan>
</text>
</g>
<g transform="translate(91.1204, 6.7606)">
<path transform="scale(0.0040, -0.0040)" d="M218 136c66 0 108 -36 108 -89c0 -89 -113 -183 -218 -183c-66 0 -108 36 -108 89c0 89 113 183 218 183z" fill="currentColor"/>
</g>
<g transform="translate(87.0381, 15.0606)">
<text font-family="Charis SIL" font-weight="bold" font-style="italic" font-size="2.4697" text-anchor="start" fill="currentColor">
<tspan>_</tspan>
</text>
</g>
<g transform="translate(87.1405, 12.2606)">
<text font-family="Charis SIL" font-weight="bold" font-style="italic" font-size="2.4697" text-anchor="start" fill="currentColor">
<tspan>-</tspan>
</text>
</g>
<g transform="translate(87.0006, 6.7606)">
<path transform="scale(0.0040, -0.0040)" d="M218 136c66 0 108 -36 108 -89c0 -89 -113 -183 -218 -183c-66 0 -108 36 -108 89c0 89 113 183 218 183z" fill="currentColor"/>
</g>
<g transform="translate(84.1200, 6.7606)">
<rect x="-0.0650" y="-3.0000" width="0.1300" height="2.8139" ry="0.0400" fill="currentColor"/>
</g>
<g transform="translate(82.6964, 15.0606)">
<text font-family="Charis SIL" font-weight="bold" font-style="italic" font-size="2.4697" text-anchor="start" fill="currentColor">
<tspan>iː</tspan>
</text>
</g>
<g transform="translate(67.5758, 3.7606)">
<polygon stroke-linejoin="round" stroke-linecap="round" stroke-width="0.0800" fill="currentColor" stroke="currentColor" points="8.3296 -0.2000 8.3296 0.2000 0.0400 0.2000 0.0400 -0.2000"/>
</g>
<g transform="translate(83.5566, 3.0562)">
<text font-family="serif" font-style="italic" font-size="1.7459" text-anchor="start" fill="currentColor">
<tspan>3</tspan>
</text>
</g>
<g transform="translate(79.9352, 3.7606)">
<polygon stroke-linejoin="round" stroke-linecap="round" stroke-width="0.0800" fill="currentColor" stroke="currentColor" points="8.3296 -0.2000 8.3296 0.2000 0.0400 0.2000 0.0400 -0.2000"/>
</g>
<g transform="translate(71.1972, 3.0562)">
<text font-family="serif" font-style="italic" font-size="1.7459" text-anchor="start" fill="currentColor">
<tspan>3</tspan>
</text>
</g>
<g transform="translate(79.9352, 0.6603)">
<line stroke-linejoin="round" stroke-linecap="round" stroke-width="0.1600" stroke="currentColor" x1="33.2883" y1="-0.0000" x2="33.2883" y2="0.7000"/>
</g>
<g transform="translate(79.9352, 0.6603)">
<line stroke-linejoin="round" stroke-linecap="round" stroke-width="0.1600" stroke="currentColor" x1="-0.2000" y1="-0.0000" x2="-0.2000" y2="0.7000"/>
</g>
<g transform="translate(79.9352, 0.6603)">
<line stroke-linejoin="round" stroke-linecap="round" stroke-width="0.1600" stroke="currentColor" x1="33.2883" y1="-0.0000" x2="17.7075" y2="-0.0000"/>
</g>
<g transform="translate(79.9352, 0.6603)">
<line stroke-linejoin="round" stroke-linecap="round" stroke-width="0.1600" stroke="currentColor" x1="-0.2000" y1="-0.0000" x2="15.5808" y2="-0.0000"/>
</g>
<g transform="translate(58.8379, 3.0562)">
<text font-family="serif" font-style="italic" font-size="1.7459" text-anchor="start" fill="currentColor">
<tspan>3</tspan>
</text>
</g>
<g transform="translate(55.2164, 3.7606)">
<polygon stroke-linejoin="round" stroke-linecap="round" stroke-width="0.0800" fill="currentColor" stroke="currentColor" points="8.3296 -0.2000 8.3296 0.2000 0.0400 0.2000 0.0400 -0.2000"/>
</g>
<g transform="translate(108.2754, 3.0562)">
<text font-family="serif" font-style="italic" font-size="1.7459" text-anchor="start" fill="currentColor">
<tspan>3</tspan>
</text>
</g>
<g transform="translate(104.6539, 3.7606)">
<polygon stroke-linejoin="round" stroke-linecap="round" stroke-width="0.0800" fill="currentColor" stroke="currentColor" points="8.3296 -0.2000 8.3296 0.2000 0.0400 0.2000 0.0400 -0.2000"/>
</g>
<g transform="translate(95.9160, 3.0562)">
<text font-family="serif" font-style="italic" font-size="1.7459" text-anchor="start" fill="currentColor">
<tspan>3</tspan>
</text>
</g>
<g transform="translate(92.2946, 3.7606)">
<polygon stroke-linejoin="round" stroke-linecap="round" stroke-width="0.0800" fill="currentColor" stroke="currentColor" points="8.3296 -0.2000 8.3296 0.2000 0.0400 0.2000 0.0400 -0.2000"/>
</g>
<g transform="translate(95.9160, 1.2959)">
<text font-family="serif" font-style="italic" font-size="1.7459" text-anchor="start" fill="currentColor">
<tspan>3</tspan>
</text>
</g>
<g transform="translate(21.7597, 1.2959)">
<text font-family="serif" font-style="italic" font-size="1.7459" text-anchor="start" fill="currentColor">
<tspan>3</tspan>
</text>
</g>
<g transform="translate(21.7597, 3.0562)">
<text font-family="serif" font-style="italic" font-size="1.7459" text-anchor="start" fill="currentColor">
<tspan>3</tspan>
</text>
</g>
<g transform="translate(18.1383, 3.7606)">
<polygon stroke-linejoin="round" stroke-linecap="round" stroke-width="0.0800" fill="currentColor" stroke="currentColor" points="8.3296 -0.2000 8.3296 0.2000 0.0400 0.2000 0.0400 -0.2000"/>
</g>
<g transform="translate(5.7789, 0.6603)">
<line stroke-linejoin="round" stroke-linecap="round" stroke-width="0.1600" stroke="currentColor" x1="33.2883" y1="-0.0000" x2="33.2883" y2="0.7000"/>
</g>
<g transform="translate(5.7789, 0.6603)">
<line stroke-linejoin="round" stroke-linecap="round" stroke-width="0.1600" stroke="currentColor" x1="-0.2000" y1="-0.0000" x2="-0.2000" y2="0.7000"/>
</g>
<g transform="translate(5.7789, 0.6603)">
<line stroke-linejoin="round" stroke-linecap="round" stroke-width="0.1600" stroke="currentColor" x1="33.2883" y1="-0.0000" x2="17.7075" y2="-0.0000"/>
</g>
<g transform="translate(5.7789, 0.6603)">
<line stroke-linejoin="round" stroke-linecap="round" stroke-width="0.1600" stroke="currentColor" x1="-0.2000" y1="-0.0000" x2="15.5808" y2="-0.0000"/>
</g>
<g transform="translate(9.4004, 3.0562)">
<text font-family="serif" font-style="italic" font-size="1.7459" text-anchor="start" fill="currentColor">
<tspan>3</tspan>
</text>
</g>
<g transform="translate(5.7789, 2.4206)">
<line stroke-linejoin="round" stroke-linecap="round" stroke-width="0.1600" stroke="currentColor" x1="8.5696" y1="-0.0000" x2="8.5696" y2="0.7000"/>
</g>
<g transform="translate(5.7789, 2.4206)">
<line stroke-linejoin="round" stroke-linecap="round" stroke-width="0.1600" stroke="currentColor" x1="-0.2000" y1="-0.0000" x2="-0.2000" y2="0.7000"/>
</g>
<g transform="translate(5.7789, 2.4206)">
<line stroke-linejoin="round" stroke-linecap="round" stroke-width="0.1600" stroke="currentColor" x1="8.5696" y1="-0.0000" x2="5.3482" y2="-0.0000"/>
</g>
<g transform="translate(5.7789, 2.4206)">
<line stroke-linejoin="round" stroke-linecap="round" stroke-width="0.1600" stroke="currentColor" x1="-0.2000" y1="-0.0000" x2="3.2214" y2="-0.0000"/>
</g>
<g transform="translate(5.7789, 3.7606)">
<polygon stroke-linejoin="round" stroke-linecap="round" stroke-width="0.0800" fill="currentColor" stroke="currentColor" points="8.3296 -0.2000 8.3296 0.2000 0.0400 0.2000 0.0400 -0.2000"/>
</g>
<g transform="translate(58.8379, 1.2959)">
<text font-family="serif" font-style="italic" font-size="1.7459" text-anchor="start" fill="currentColor">
<tspan>3</tspan>
</text>
</g>
<g transform="translate(42.8571, 0.6603)">
<line stroke-linejoin="round" stroke-linecap="round" stroke-width="0.1600" stroke="currentColor" x1="33.2883" y1="-0.0000" x2="33.2883" y2="0.7000"/>
</g>
<g transform="translate(42.8571, 0.6603)">
<line stroke-linejoin="round" stroke-linecap="round" stroke-width="0.1600" stroke="currentColor" x1="-0.2000" y1="-0.0000" x2="-0.2000" y2="0.7000"/>
</g>
<g transform="translate(42.8571, 0.6603)">
<line stroke-linejoin="round" stroke-linecap="round" stroke-width="0.1600" stroke="currentColor" x1="33.2883" y1="-0.0000" x2="17.7075" y2="-0.0000"/>
</g>
<g transform="translate(42.8571, 0.6603)">
<line stroke-linejoin="round" stroke-linecap="round" stroke-width="0.1600" stroke="currentColor" x1="-0.2000" y1="-0.0000" x2="15.5808" y2="-0.0000"/>
</g>
<g transform="translate(46.4785, 3.0562)">
<text font-family="serif" font-style="italic" font-size="1.7459" text-anchor="start" fill="currentColor">
<tspan>3</tspan>
</text>
</g>
<g transform="translate(42.8571, 3.7606)">
<polygon stroke-linejoin="round" stroke-linecap="round" stroke-width="0.0800" fill="currentColor" stroke="currentColor" points="8.3296 -0.2000 8.3296 0.2000 0.0400 0.2000 0.0400 -0.2000"/>
</g>
<g transform="translate(34.1191, 3.0562)">
<text font-family="serif" font-style="italic" font-size="1.7459" text-anchor="start" fill="currentColor">
<tspan>3</tspan>
</text>
</g>
<g transform="translate(30.4977, 3.7606)">
<polygon stroke-linejoin="round" stroke-linecap="round" stroke-width="0.0800" fill="currentColor" stroke="currentColor" points="8.3296 -0.2000 8.3296 0.2000 0.0400 0.2000 0.0400 -0.2000"/>
</g>
<g transform="translate(26.4429, 6.7606)">
<rect x="-0.0650" y="-3.0000" width="0.1300" height="2.8139" ry="0.0400" fill="currentColor"/>
</g>
<g transform="translate(24.9851, 15.0606)">
<text font-family="Charis SIL" font-weight="bold" font-style="italic" font-size="2.4697" text-anchor="start" fill="currentColor">
<tspan>n</tspan>
</text>
</g>
<g transform="translate(25.3436, 12.2606)">
<text font-family="Charis SIL" font-weight="bold" font-style="italic" font-size="2.4697" text-anchor="start" fill="currentColor">
<tspan>-</tspan>
</text>
</g>
<g transform="translate(25.2037, 6.7606)">
<path transform="scale(0.0040, -0.0040)" d="M218 136c66 0 108 -36 108 -89c0 -89 -113 -183 -218 -183c-66 0 -108 36 -108 89c0 89 113 183 218 183z" fill="currentColor"/>
</g>
<g transform="translate(22.3231, 6.7606)">
<rect x="-0.0650" y="-3.0000" width="0.1300" height="2.8139" ry="0.0400" fill="currentColor"/>
</g>
<g transform="translate(20.8995, 15.0606)">
<text font-family="Charis SIL" font-weight="bold" font-style="italic" font-size="2.4697" text-anchor="start" fill="currentColor">
<tspan>ə</tspan>
</text>
</g>
<g transform="translate(21.2239, 12.2606)">
<text font-family="Charis SIL" font-weight="bold" font-style="italic" font-size="2.4697" text-anchor="start" fill="currentColor">
<tspan>-</tspan>
</text>
</g>
<g transform="translate(21.0839, 6.7606)">
<path transform="scale(0.0040, -0.0040)" d="M218 136c66 0 108 -36 108 -89c0 -89 -113 -183 -218 -183c-66 0 -108 36 -108 89c0 89 113 183 218 183z" fill="currentColor"/>
</g>
<g transform="translate(18.2033, 6.7606)">
<rect x="-0.0650" y="-3.0000" width="0.1300" height="2.8139" ry="0.0400" fill="currentColor"/>
</g>
<g transform="translate(37.6006, 15.0606)">
<text font-family="Charis SIL" font-weight="bold" font-style="italic" font-size="2.4697" text-anchor="start" fill="currentColor">
<tspan>_</tspan>
</text>
</g>
<g transform="translate(37.7030, 12.2606)">
<text font-family="Charis SIL" font-weight="bold" font-style="italic" font-size="2.4697" text-anchor="start" fill="currentColor">
<tspan>-</tspan>
</text>
</g>
<g transform="translate(37.5631, 6.7606)">
<path transform="scale(0.0040, -0.0040)" d="M218 136c66 0 108 -36 108 -89c0 -89 -113 -183 -218 -183c-66 0 -108 36 -108 89c0 89 113 183 218 183z" fill="currentColor"/>
</g>
<g transform="translate(34.6825, 6.7606)">
<rect x="-0.0650" y="-3.0000" width="0.1300" height="2.8139" ry="0.0400" fill="currentColor"/>
</g>
<g transform="translate(33.2589, 15.0606)">
<text font-family="Charis SIL" font-weight="bold" font-style="italic" font-size="2.4697" text-anchor="start" fill="currentColor">
<tspan>ə</tspan>
</text>
</g>
<g transform="translate(33.5832, 12.2606)">
<text font-family="Charis SIL" font-weight="bold" font-style="italic" font-size="2.4697" text-anchor="start" fill="currentColor">
<tspan>-</tspan>
</text>
</g>
<g transform="translate(16.2578, 15.0606)">
<text font-family="Charis SIL" font-weight="bold" font-style="italic" font-size="2.4697" text-anchor="start" fill="currentColor">
<tspan>|</tspan>
</text>
</g>
<g transform="translate(17.7455, 15.0606)">
<text font-family="Charis SIL" font-weight="bold" font-style="italic" font-size="2.4697" text-anchor="start" fill="currentColor">
<tspan>_</tspan>
</text>
</g>
<g transform="translate(33.4433, 6.7606)">
<path transform="scale(0.0040, -0.0040)" d="M218 136c66 0 108 -36 108 -89c0 -89 -113 -183 -218 -183c-66 0 -108 36 -108 89c0 89 113 183 218 183z" fill="currentColor"/>
</g>
<g transform="translate(30.5627, 6.7606)">
<rect x="-0.0650" y="-3.0000" width="0.1300" height="2.8139" ry="0.0400" fill="currentColor"/>
</g>
<g transform="translate(28.6171, 15.0606)">
<text font-family="Charis SIL" font-weight="bold" font-style="italic" font-size="2.4697" text-anchor="start" fill="currentColor">
<tspan>|</tspan>
</text>
</g>
<g transform="translate(30.1049, 15.0606)">
<text font-family="Charis SIL" font-weight="bold" font-style="italic" font-size="2.4697" text-anchor="start" fill="currentColor">
<tspan>_</tspan>
</text>
</g>
<g transform="translate(29.4634, 12.2606)">
<text font-family="Charis SIL" font-weight="bold" font-style="italic" font-size="2.4697" text-anchor="start" fill="currentColor">
<tspan>-</tspan>
</text>
</g>
<g transform="translate(29.3235, 6.7606)">
<path transform="scale(0.0040, -0.0040)" d="M218 136c66 0 108 -36 108 -89c0 -89 -113 -183 -218 -183c-66 0 -108 36 -108 89c0 89 113 183 218 183z" fill="currentColor"/>
</g>
<g transform="translate(5.8439, 6.7606)">
<rect x="-0.0650" y="-3.0000" width="0.1300" height="2.8139" ry="0.0400" fill="currentColor"/>
</g>
<g transform="translate(3.3692, 15.0606)">
<text font-family="Charis SIL" font-weight="bold" font-style="italic" font-size="2.4697" text-anchor="start" fill="currentColor">
<tspan>|</tspan>
</text>
</g>
<g transform="translate(4.8569, 15.0606)">
<text font-family="Charis SIL" font-weight="bold" font-style="italic" font-size="2.4697" text-anchor="start" fill="currentColor">
<tspan>w</tspan>
</text>
</g>
<g transform="translate(3.9594, 12.2606)">
<text font-family="Charis SIL" font-weight="bold" font-style="italic" font-size="2.4697" text-anchor="start" fill="currentColor">
<tspan>|1</tspan>
</text>
</g>
<g transform="translate(1.1366, 6.7606)">
<path transform="scale(0.0040, -0.0040)" d="M263 265c0 -33 70 -23 70 -125c0 -92 -79 -140 -179 -140c-79 0 -154 42 -154 113c0 36 30 66 66 66s65 -30 65 -66c0 -25 -40 -28 -40 -53c0 -27 32 -37 63 -37c49 0 63 61 63 117v16c0 54 -2 94 -50 94h-80c-10 0 -14 8 -14 15s4 14 14 14h80c49 0 50 43 50 99v8
c0 54 -18 91 -67 91c-28 0 -57 -9 -57 -33c0 -22 35 -25 35 -47c0 -32 -25 -58 -57 -58s-58 26 -58 58c0 64 67 103 137 103c91 0 169 -33 169 -114c0 -122 -56 -80 -56 -121z" fill="currentColor"/>
</g>
<g transform="translate(1.0000, 8.7766)">
<path transform="scale(0.0040, -0.0040)" d="M196 117h117c0 -48 27 -94 72 -94c8 0 12 -5 12 -11s-4 -12 -12 -12c-44 0 -87 13 -131 13s-87 -13 -131 -13c-8 0 -12 6 -12 12s4 11 12 11c45 0 73 46 73 94zM-2 148c0 12 140 143 140 336c0 10 7 19 16 16c23 -7 47 -13 71 -13s48 6 71 13c14 4 23 -9 17 -16
l-284 -330h167v131c0 34 34 27 68 72c22 30 23 56 36 56c6 0 13 -5 13 -14v-245h72c10 0 15 -7 15 -14s-5 -15 -15 -15h-72v-8h-117v8h-167c-23 0 -31 14 -31 23z" fill="currentColor"/>
</g>
<g transform="translate(4.6047, 6.7606)">
<path transform="scale(0.0040, -0.0040)" d="M218 136c66 0 108 -36 108 -89c0 -89 -113 -183 -218 -183c-66 0 -108 36 -108 89c0 89 113 183 218 183z" fill="currentColor"/>
</g>
<g transform="translate(12.8443, 6.7606)">
<path transform="scale(0.0040, -0.0040)" d="M218 136c66 0 108 -36 108 -89c0 -89 -113 -183 -218 -183c-66 0 -108 36 -108 89c0 89 113 183 218 183z" fill="currentColor"/>
</g>
<g transform="translate(17.1041, 12.2606)">
<text font-family="Charis SIL" font-weight="bold" font-style="italic" font-size="2.4697" text-anchor="start" fill="currentColor">
<tspan>-</tspan>
</text>
</g>
<g transform="translate(16.9641, 6.7606)">
<path transform="scale(0.0040, -0.0040)" d="M218 136c66 0 108 -36 108 -89c0 -89 -113 -183 -218 -183c-66 0 -108 36 -108 89c0 89 113 183 218 183z" fill="currentColor"/>
</g>
<g transform="translate(14.0835, 6.7606)">
<rect x="-0.0650" y="-3.0000" width="0.1300" height="2.8139" ry="0.0400" fill="currentColor"/>
</g>
<g transform="translate(12.6258, 15.0606)">
<text font-family="Charis SIL" font-weight="bold" font-style="italic" font-size="2.4697" text-anchor="start" fill="currentColor">
<tspan>n</tspan>
</text>
</g>
<g transform="translate(12.9843, 12.2606)">
<text font-family="Charis SIL" font-weight="bold" font-style="italic" font-size="2.4697" text-anchor="start" fill="currentColor">
<tspan>-</tspan>
</text>
</g>
<g transform="translate(9.9637, 6.7606)">
<rect x="-0.0650" y="-3.0000" width="0.1300" height="2.8139" ry="0.0400" fill="currentColor"/>
</g>
<g transform="translate(8.5743, 15.0606)">
<text font-family="Charis SIL" font-weight="bold" font-style="italic" font-size="2.4697" text-anchor="start" fill="currentColor">
<tspan>ʌ</tspan>
</text>
</g>
<g transform="translate(8.8645, 12.2606)">
<text font-family="Charis SIL" font-weight="bold" font-style="italic" font-size="2.4697" text-anchor="start" fill="currentColor">
<tspan>-</tspan>
</text>
</g>
<g transform="translate(8.7245, 6.7606)">
<path transform="scale(0.0040, -0.0040)" d="M218 136c66 0 108 -36 108 -89c0 -89 -113 -183 -218 -183c-66 0 -108 36 -108 89c0 89 113 183 218 183z" fill="currentColor"/>
</g>
<g transform="translate(62.4218, 12.2606)">
<text font-family="Charis SIL" font-weight="bold" font-style="italic" font-size="2.4697" text-anchor="start" fill="currentColor">
<tspan>-</tspan>
</text>
</g>
<g transform="translate(62.2818, 6.7606)">
<path transform="scale(0.0040, -0.0040)" d="M218 136c66 0 108 -36 108 -89c0 -89 -113 -183 -218 -183c-66 0 -108 36 -108 89c0 89 113 183 218 183z" fill="currentColor"/>
</g>
<g transform="translate(59.4012, 6.7606)">
<rect x="-0.0650" y="-3.0000" width="0.1300" height="2.8139" ry="0.0400" fill="currentColor"/>
</g>
<g transform="translate(57.9776, 15.0606)">
<text font-family="Charis SIL" font-weight="bold" font-style="italic" font-size="2.4697" text-anchor="start" fill="currentColor">
<tspan>ə</tspan>
</text>
</g>
<g transform="translate(58.3020, 12.2606)">
<text font-family="Charis SIL" font-weight="bold" font-style="italic" font-size="2.4697" text-anchor="start" fill="currentColor">
<tspan>-</tspan>
</text>
</g>
<g transform="translate(62.0633, 15.0606)">
<text font-family="Charis SIL" font-weight="bold" font-style="italic" font-size="2.4697" text-anchor="start" fill="currentColor">
<tspan>n</tspan>
</text>
</g>
<g transform="translate(58.1620, 6.7606)">
<path transform="scale(0.0040, -0.0040)" d="M218 136c66 0 108 -36 108 -89c0 -89 -113 -183 -218 -183c-66 0 -108 36 -108 89c0 89 113 183 218 183z" fill="currentColor"/>
</g>
<g transform="translate(53.3359, 15.0606)">
<text font-family="Charis SIL" font-weight="bold" font-style="italic" font-size="2.4697" text-anchor="start" fill="currentColor">
<tspan>|</tspan>
</text>
</g>
<g transform="translate(54.8236, 15.0606)">
<text font-family="Charis SIL" font-weight="bold" font-style="italic" font-size="2.4697" text-anchor="start" fill="currentColor">
<tspan>_</tspan>
</text>
</g>
<g transform="translate(54.1822, 12.2606)">
<text font-family="Charis SIL" font-weight="bold" font-style="italic" font-size="2.4697" text-anchor="start" fill="currentColor">
<tspan>-</tspan>
</text>
</g>
<g transform="translate(54.0422, 6.7606)">
<path transform="scale(0.0040, -0.0040)" d="M218 136c66 0 108 -36 108 -89c0 -89 -113 -183 -218 -183c-66 0 -108 36 -108 89c0 89 113 183 218 183z" fill="currentColor"/>
</g>
<g transform="translate(67.6408, 6.7606)">
<rect x="-0.0650" y="-3.0000" width="0.1300" height="2.8139" ry="0.0400" fill="currentColor"/>
</g>
<g transform="translate(71.7606, 6.7606)">
<rect x="-0.0650" y="-3.0000" width="0.1300" height="2.8139" ry="0.0400" fill="currentColor"/>
</g>
<g transform="translate(70.3370, 15.0606)">
<text font-family="Charis SIL" font-weight="bold" font-style="italic" font-size="2.4697" text-anchor="start" fill="currentColor">
<tspan>ə</tspan>
</text>
</g>
<g transform="translate(70.6614, 12.2606)">
<text font-family="Charis SIL" font-weight="bold" font-style="italic" font-size="2.4697" text-anchor="start" fill="currentColor">
<tspan>-</tspan>
</text>
</g>
<g transform="translate(70.5214, 6.7606)">
<path transform="scale(0.0040, -0.0040)" d="M218 136c66 0 108 -36 108 -89c0 -89 -113 -183 -218 -183c-66 0 -108 36 -108 89c0 89 113 183 218 183z" fill="currentColor"/>
</g>
<g transform="translate(55.2814, 6.7606)">
<rect x="-0.0650" y="-3.0000" width="0.1300" height="2.8139" ry="0.0400" fill="currentColor"/>
</g>
<g transform="translate(65.6953, 15.0606)">
<text font-family="Charis SIL" font-weight="bold" font-style="italic" font-size="2.4697" text-anchor="start" fill="currentColor">
<tspan>|</tspan>
</text>
</g>
<g transform="translate(67.1830, 15.0606)">
<text font-family="Charis SIL" font-weight="bold" font-style="italic" font-size="2.4697" text-anchor="start" fill="currentColor">
<tspan>_</tspan>
</text>
</g>
<g transform="translate(66.5416, 12.2606)">
<text font-family="Charis SIL" font-weight="bold" font-style="italic" font-size="2.4697" text-anchor="start" fill="currentColor">
<tspan>-</tspan>
</text>
</g>
<g transform="translate(66.4016, 6.7606)">
<path transform="scale(0.0040, -0.0040)" d="M218 136c66 0 108 -36 108 -89c0 -89 -113 -183 -218 -183c-66 0 -108 36 -108 89c0 89 113 183 218 183z" fill="currentColor"/>
</g>
<g transform="translate(63.5210, 6.7606)">
<rect x="-0.0650" y="-3.0000" width="0.1300" height="2.8139" ry="0.0400" fill="currentColor"/>
</g>
<g transform="translate(42.9221, 6.7606)">
<rect x="-0.0650" y="-3.0000" width="0.1300" height="2.8139" ry="0.0400" fill="currentColor"/>
</g>
<g transform="translate(47.0419, 6.7606)">
<rect x="-0.0650" y="-3.0000" width="0.1300" height="2.8139" ry="0.0400" fill="currentColor"/>
</g>
<g transform="translate(45.1744, 15.0606)">
<text font-family="Charis SIL" font-weight="bold" font-style="italic" font-size="2.4697" text-anchor="start" fill="currentColor">
<tspan>uː</tspan>
</text>
</g>
<g transform="translate(45.9426, 12.2606)">
<text font-family="Charis SIL" font-weight="bold" font-style="italic" font-size="2.4697" text-anchor="start" fill="currentColor">
<tspan>-</tspan>
</text>
</g>
<g transform="translate(45.8027, 6.7606)">
<path transform="scale(0.0040, -0.0040)" d="M218 136c66 0 108 -36 108 -89c0 -89 -113 -183 -218 -183c-66 0 -108 36 -108 89c0 89 113 183 218 183z" fill="currentColor"/>
</g>
<g transform="translate(40.9936, 15.0606)">
<text font-family="Charis SIL" font-weight="bold" font-style="italic" font-size="2.4697" text-anchor="start" fill="currentColor">
<tspan>|</tspan>
</text>
</g>
<g transform="translate(42.4813, 15.0606)">
<text font-family="Charis SIL" font-weight="bold" font-style="italic" font-size="2.4697" text-anchor="start" fill="currentColor">
<tspan>t</tspan>
</text>
</g>
<g transform="translate(41.0375, 12.2606)">
<text font-family="Charis SIL" font-weight="bold" font-style="italic" font-size="2.4697" text-anchor="start" fill="currentColor">
<tspan>|2</tspan>
</text>
</g>
<g transform="translate(41.6829, 6.7606)">
<path transform="scale(0.0040, -0.0040)" d="M218 136c66 0 108 -36 108 -89c0 -89 -113 -183 -218 -183c-66 0 -108 36 -108 89c0 89 113 183 218 183z" fill="currentColor"/>
</g>
<g transform="translate(38.8023, 6.7606)">
<rect x="-0.0650" y="-3.0000" width="0.1300" height="2.8139" ry="0.0400" fill="currentColor"/>
</g>
<g transform="translate(51.1617, 6.7606)">
<rect x="-0.0650" y="-3.0000" width="0.1300" height="2.8139" ry="0.0400" fill="currentColor"/>
</g>
<g transform="translate(49.9600, 15.0606)">
<text font-family="Charis SIL" font-weight="bold" font-style="italic" font-size="2.4697" text-anchor="start" fill="currentColor">
<tspan>_</tspan>
</text>
</g>
<g transform="translate(50.0624, 12.2606)">
<text font-family="Charis SIL" font-weight="bold" font-style="italic" font-size="2.4697" text-anchor="start" fill="currentColor">
<tspan>-</tspan>
</text>
</g>
<g transform="translate(49.9224, 6.7606)">
<path transform="scale(0.0040, -0.0040)" d="M218 136c66 0 108 -36 108 -89c0 -89 -113 -183 -218 -183c-66 0 -108 36 -108 89c0 89 113 183 218 183z" fill="currentColor"/>
</g>
</svg>
