<svg xmlns="http://www.w3.org/2000/svg" xmlns:xlink="http://www.w3.org/1999/xlink" version="1.2" width="205.98mm" height="28.06mm" viewBox="-1.1267 -0.0000 117.2140 15.9655">
<style type="text/css">
<![CDATA[
tspan { white-space: pre; }
]]>
</style>
<g transform="translate(87.0271, 7.0831)">
<rect x="0.0000" y="-1.0000" width="0.1900" height="2.0000" ry="0.0000" fill="currentColor"/>
</g>
<g transform="translate(115.8972, 7.0831)">
<rect x="0.0000" y="-1.0000" width="0.1900" height="2.0000" ry="0.0000" fill="currentColor"/>
</g>
<g transform="translate(0.0000, 7.0831)">
<line stroke-linejoin="round" stroke-linecap="round" stroke-width="0.1000" stroke="currentColor" x1="0.0500" y1="0" x2="116.0372" y2="0"/>
</g>
<g transform="translate(94.2143, 15.3831)">
<text font-family="Charis SIL" font-weight="bold" font-style="italic" font-size="2.4697" text-anchor="start" fill="currentColor">
<tspan>n</tspan>
</text>
</g>
<g transform="translate(94.5729, 12.5831)">
<text font-family="Charis SIL" font-weight="bold" font-style="italic" font-size="2.4697" text-anchor="start" fill="currentColor">
<tspan>-</tspan>
</text>
</g>
<g transform="translate(94.4329, 7.0831)">
<path transform="scale(0.0040, -0.0040)" d="M218 136c66 0 108 -36 108 -89c0 -89 -113 -183 -218 -183c-66 0 -108 36 -108 89c0 89 113 183 218 183z" fill="currentColor"/>
</g>
<g transform="translate(92.6174, 7.0831)">
<rect x="-0.0650" y="-3.0000" width="0.1300" height="2.8139" ry="0.0400" fill="currentColor"/>
</g>
<g transform="translate(91.4157, 15.3831)">
<text font-family="Charis SIL" font-weight="bold" font-style="italic" font-size="2.4697" text-anchor="start" fill="currentColor">
<tspan>_</tspan>
</text>
</g>
<g transform="translate(91.5182, 12.5831)">
<text font-family="Charis SIL" font-weight="bold" font-style="italic" font-size="2.4697" text-anchor="start" fill="currentColor">
<tspan>-</tspan>
</text>
</g>
<g transform="translate(91.3782, 7.0831)">
<path transform="scale(0.0040, -0.0040)" d="M218 136c66 0 108 -36 108 -89c0 -89 -113 -183 -218 -183c-66 0 -108 36 -108 89c0 89 113 183 218 183z" fill="currentColor"/>
</g>
<g transform="translate(95.6721, 7.0831)">
<rect x="-0.0650" y="-3.0000" width="0.1300" height="2.8139" ry="0.0400" fill="currentColor"/>
</g>
<g transform="translate(89.5627, 7.0831)">
<rect x="-0.0650" y="-3.0000" width="0.1300" height="2.8139" ry="0.0400" fill="currentColor"/>
</g>
<g transform="translate(87.3953, 15.3831)">
<text font-family="Charis SIL" font-weight="bold" font-style="italic" font-size="2.4697" text-anchor="start" fill="currentColor">
<tspan>|</tspan>
</text>
</g>
<g transform="translate(88.8830, 15.3831)">
<text font-family="Charis SIL" font-weight="bold" font-style="italic" font-size="2.4697" text-anchor="start" fill="currentColor">
<tspan>ə</tspan>
</text>
</g>
<g transform="translate(87.9001, 12.5831)">
<text font-family="Charis SIL" font-weight="bold" font-style="italic" font-size="2.4697" text-anchor="start" fill="currentColor">
<tspan>&amp;</tspan>
</text>
</g>
<g transform="translate(106.5065, 5.0831)">
<path transform="scale(0.0040, -0.0040)" d="M70 205c79 0 46 -98 91 -98c16 0 54 48 61 63c6 12 23 12 28 0l-123 -420c-8 -7 -17 -10 -27 -10s-20 3 -28 10l117 326c-34 -12 -69 -22 -105 -22c-47 0 -87 34 -87 79c0 40 33 72 73 72z" fill="currentColor"/>
</g>
<g transform="translate(103.5560, 12.5831)">
<text font-family="Charis SIL" font-weight="bold" font-style="italic" font-size="2.4697" text-anchor="start" fill="currentColor">
<tspan>-</tspan>
</text>
</g>
<g transform="translate(100.6055, 15.3831)">
<text font-family="Charis SIL" font-weight="bold" font-style="italic" font-size="2.4697" text-anchor="start" fill="currentColor">
<tspan>_</tspan>
</text>
</g>
<g transform="translate(100.5683, 12.5831)">
<text font-family="Charis SIL" font-weight="bold" font-style="italic" font-size="2.4697" text-anchor="start" fill="currentColor">
<tspan>-</tspan>
</text>
</g>
<g transform="translate(100.6055, 5.0831)">
<path transform="scale(0.0040, -0.0040)" d="M-6 78c0 59 124 83 124 182c0 24 -8 49 -25 69l-35 42c-3 3 -4 7 -4 10c0 9 9 15 17 15c4 0 8 -1 11 -5l151 -180c7 -9 10 -17 10 -25c0 -59 -124 -83 -124 -182c0 -24 7 -49 24 -69l84 -99c3 -3 4 -7 4 -10c0 -9 -8 -16 -16 -16s-45 44 -109 44c-16 0 -53 0 -53 -67
c0 -35 11 -74 28 -94c7 -8 -5 -19 -12 -11c-45 54 -92 148 -92 202c0 41 27 42 40 42c33 0 78 -13 119 -31l-132 158c-7 9 -10 17 -10 25z" fill="currentColor"/>
</g>
<g transform="translate(98.7918, 3.7481)">
<path transform="scale(0.0040, -0.0040)" d="M0 0v-250h-16v250h16zM0 0c0 -197 207 -336 207 -533c0 -71 -15 -141 -41 -207c-5 -8 -13 -12 -20 -12c-13 0 -26 11 -23 27c26 61 42 126 42 192c0 103 -94 208 -165 283v250z" fill="currentColor"/>
</g>
<g transform="translate(98.7268, 7.0831)">
<rect x="-0.0650" y="-3.3750" width="0.1300" height="3.1889" ry="0.0400" fill="currentColor"/>
</g>
<g transform="translate(96.9409, 15.3831)">
<text font-family="Charis SIL" font-weight="bold" font-style="italic" font-size="2.4697" text-anchor="start" fill="currentColor">
<tspan>|</tspan>
</text>
</g>
<g transform="translate(98.4287, 15.3831)">
<text font-family="Charis SIL" font-weight="bold" font-style="italic" font-size="2.4697" text-anchor="start" fill="currentColor">
<tspan>ə</tspan>
</text>
</g>
<g transform="translate(97.6848, 12.5831)">
<text font-family="Charis SIL" font-weight="bold" font-style="italic" font-size="2.4697" text-anchor="start" fill="currentColor">
<tspan>a</tspan>
</text>
</g>
<g transform="translate(97.4876, 7.0831)">
<path transform="scale(0.0040, -0.0040)" d="M218 136c66 0 108 -36 108 -89c0 -89 -113 -183 -218 -183c-66 0 -108 36 -108 89c0 89 113 183 218 183z" fill="currentColor"/>
</g>
<g transform="translate(71.6477, 15.3831)">
<text font-family="Charis SIL" font-weight="bold" font-style="italic" font-size="2.4697" text-anchor="start" fill="currentColor">
<tspan>_</tspan>
</text>
</g>
<g transform="translate(75.9041, 7.0831)">
<rect x="-0.0650" y="-3.0000" width="0.1300" height="2.8139" ry="0.0400" fill="currentColor"/>
</g>
<g transform="translate(74.1732, 15.3831)">
<text font-family="Charis SIL" font-weight="bold" font-style="italic" font-size="2.4697" text-anchor="start" fill="currentColor">
<tspan>w</tspan>
</text>
</g>
<g transform="translate(74.8048, 12.5831)">
<text font-family="Charis SIL" font-weight="bold" font-style="italic" font-size="2.4697" text-anchor="start" fill="currentColor">
<tspan>-</tspan>
</text>
</g>
<g transform="translate(74.6649, 7.0831)">
<path transform="scale(0.0040, -0.0040)" d="M218 136c66 0 108 -36 108 -89c0 -89 -113 -183 -218 -183c-66 0 -108 36 -108 89c0 89 113 183 218 183z" fill="currentColor"/>
</g>
<g transform="translate(72.8494, 7.0831)">
<rect x="-0.0650" y="-3.0000" width="0.1300" height="2.8139" ry="0.0400" fill="currentColor"/>
</g>
<g transform="translate(77.8049, 7.0831)">
<path transform="scale(0.0040, -0.0040)" d="M218 136c66 0 108 -36 108 -89c0 -89 -113 -183 -218 -183c-66 0 -108 36 -108 89c0 89 113 183 218 183z" fill="currentColor"/>
</g>
<g transform="translate(71.7501, 12.5831)">
<text font-family="Charis SIL" font-weight="bold" font-style="italic" font-size="2.4697" text-anchor="start" fill="currentColor">
<tspan>-</tspan>
</text>
</g>
<g transform="translate(71.6102, 7.0831)">
<path transform="scale(0.0040, -0.0040)" d="M218 136c66 0 108 -36 108 -89c0 -89 -113 -183 -218 -183c-66 0 -108 36 -108 89c0 89 113 183 218 183z" fill="currentColor"/>
</g>
<g transform="translate(69.7947, 7.0831)">
<rect x="-0.0650" y="-3.0000" width="0.1300" height="2.8139" ry="0.0400" fill="currentColor"/>
</g>
<g transform="translate(67.6272, 15.3831)">
<text font-family="Charis SIL" font-weight="bold" font-style="italic" font-size="2.4697" text-anchor="start" fill="currentColor">
<tspan>|</tspan>
</text>
</g>
<g transform="translate(69.1149, 15.3831)">
<text font-family="Charis SIL" font-weight="bold" font-style="italic" font-size="2.4697" text-anchor="start" fill="currentColor">
<tspan>ə</tspan>
</text>
</g>
<g transform="translate(68.3711, 12.5831)">
<text font-family="Charis SIL" font-weight="bold" font-style="italic" font-size="2.4697" text-anchor="start" fill="currentColor">
<tspan>a</tspan>
</text>
</g>
<g transform="translate(68.5555, 7.0831)">
<path transform="scale(0.0040, -0.0040)" d="M218 136c66 0 108 -36 108 -89c0 -89 -113 -183 -218 -183c-66 0 -108 36 -108 89c0 89 113 183 218 183z" fill="currentColor"/>
</g>
<g transform="translate(88.3235, 7.0831)">
<path transform="scale(0.0040, -0.0040)" d="M218 136c66 0 108 -36 108 -89c0 -89 -113 -183 -218 -183c-66 0 -108 36 -108 89c0 89 113 183 218 183z" fill="currentColor"/>
</g>
<g transform="translate(85.1535, 7.0831)">
<rect x="-0.0650" y="-3.0000" width="0.1300" height="2.8139" ry="0.0400" fill="currentColor"/>
</g>
<g transform="translate(83.6957, 15.3831)">
<text font-family="Charis SIL" font-weight="bold" font-style="italic" font-size="2.4697" text-anchor="start" fill="currentColor">
<tspan>n</tspan>
</text>
</g>
<g transform="translate(84.0542, 12.5831)">
<text font-family="Charis SIL" font-weight="bold" font-style="italic" font-size="2.4697" text-anchor="start" fill="currentColor">
<tspan>-</tspan>
</text>
</g>
<g transform="translate(83.9143, 7.0831)">
<path transform="scale(0.0040, -0.0040)" d="M218 136c66 0 108 -36 108 -89c0 -89 -113 -183 -218 -183c-66 0 -108 36 -108 89c0 89 113 183 218 183z" fill="currentColor"/>
</g>
<g transform="translate(82.0988, 7.0831)">
<rect x="-0.0650" y="-3.0000" width="0.1300" height="2.8139" ry="0.0400" fill="currentColor"/>
</g>
<g transform="translate(80.8971, 15.3831)">
<text font-family="Charis SIL" font-weight="bold" font-style="italic" font-size="2.4697" text-anchor="start" fill="currentColor">
<tspan>_</tspan>
</text>
</g>
<g transform="translate(80.9995, 12.5831)">
<text font-family="Charis SIL" font-weight="bold" font-style="italic" font-size="2.4697" text-anchor="start" fill="currentColor">
<tspan>-</tspan>
</text>
</g>
<g transform="translate(80.8596, 7.0831)">
<path transform="scale(0.0040, -0.0040)" d="M218 136c66 0 108 -36 108 -89c0 -89 -113 -183 -218 -183c-66 0 -108 36 -108 89c0 89 113 183 218 183z" fill="currentColor"/>
</g>
<g transform="translate(79.0441, 7.0831)">
<rect x="-0.0650" y="-3.0000" width="0.1300" height="2.8139" ry="0.0400" fill="currentColor"/>
</g>
<g transform="translate(76.9108, 15.3831)">
<text font-family="Charis SIL" font-weight="bold" font-style="italic" font-size="2.4697" text-anchor="start" fill="currentColor">
<tspan>|</tspan>
</text>
</g>
<g transform="translate(78.3985, 15.3831)">
<text font-family="Charis SIL" font-weight="bold" font-style="italic" font-size="2.4697" text-anchor="start" fill="currentColor">
<tspan>ʌ</tspan>
</text>
</g>
<g transform="translate(77.1596, 12.5831)">
<text font-family="Charis SIL" font-weight="bold" font-style="italic" font-size="2.4697" text-anchor="start" fill="currentColor">
<tspan>|1</tspan>
</text>
</g>
<g transform="translate(63.1220, 3.3787)">
<text font-family="serif" font-style="italic" font-size="1.7459" text-anchor="start" fill="currentColor">
<tspan>3</tspan>
</text>
</g>
<g transform="translate(72.2860, 3.3787)">
<text font-family="serif" font-style="italic" font-size="1.7459" text-anchor="start" fill="currentColor">
<tspan>3</tspan>
</text>
</g>
<g transform="translate(69.7297, 2.7431)">
<line stroke-linejoin="round" stroke-linecap="round" stroke-width="0.1600" stroke="currentColor" x1="6.4394" y1="-0.0000" x2="6.4394" y2="0.7000"/>
</g>
<g transform="translate(69.7297, 2.7431)">
<line stroke-linejoin="round" stroke-linecap="round" stroke-width="0.1600" stroke="currentColor" x1="-0.2000" y1="-0.0000" x2="-0.2000" y2="0.7000"/>
</g>
<g transform="translate(69.7297, 2.7431)">
<line stroke-linejoin="round" stroke-linecap="round" stroke-width="0.1600" stroke="currentColor" x1="6.4394" y1="-0.0000" x2="4.2831" y2="-0.0000"/>
</g>
<g transform="translate(69.7297, 2.7431)">
<line stroke-linejoin="round" stroke-linecap="round" stroke-width="0.1600" stroke="currentColor" x1="-0.2000" y1="-0.0000" x2="2.1563" y2="-0.0000"/>
</g>
<g transform="translate(69.7297, 4.0831)">
<polygon stroke-linejoin="round" stroke-linecap="round" stroke-width="0.0800" fill="currentColor" stroke="currentColor" points="6.1994 -0.2000 6.1994 0.2000 0.0400 0.2000 0.0400 -0.2000"/>
</g>
<g transform="translate(72.3287, 1.6184)">
<text font-family="serif" font-style="italic" font-size="1.7459" text-anchor="start" fill="currentColor">
<tspan>3</tspan>
</text>
</g>
<g transform="translate(60.5656, 0.9828)">
<line stroke-linejoin="round" stroke-linecap="round" stroke-width="0.1600" stroke="currentColor" x1="24.8528" y1="-0.0000" x2="24.8528" y2="0.7000"/>
</g>
<g transform="translate(60.5656, 0.9828)">
<line stroke-linejoin="round" stroke-linecap="round" stroke-width="0.1600" stroke="currentColor" x1="-0.2000" y1="-0.0000" x2="-0.2000" y2="0.7000"/>
</g>
<g transform="translate(60.5656, 0.9828)">
<line stroke-linejoin="round" stroke-linecap="round" stroke-width="0.1600" stroke="currentColor" x1="24.8528" y1="-0.0000" x2="13.4898" y2="-0.0000"/>
</g>
<g transform="translate(60.5656, 0.9828)">
<line stroke-linejoin="round" stroke-linecap="round" stroke-width="0.1600" stroke="currentColor" x1="-0.2000" y1="-0.0000" x2="11.3631" y2="-0.0000"/>
</g>
<g transform="translate(60.5656, 2.7431)">
<line stroke-linejoin="round" stroke-linecap="round" stroke-width="0.1600" stroke="currentColor" x1="6.4394" y1="-0.0000" x2="6.4394" y2="0.7000"/>
</g>
<g transform="translate(60.5656, 2.7431)">
<line stroke-linejoin="round" stroke-linecap="round" stroke-width="0.1600" stroke="currentColor" x1="-0.2000" y1="-0.0000" x2="-0.2000" y2="0.7000"/>
</g>
<g transform="translate(60.5656, 2.7431)">
<line stroke-linejoin="round" stroke-linecap="round" stroke-width="0.1600" stroke="currentColor" x1="6.4394" y1="-0.0000" x2="4.2831" y2="-0.0000"/>
</g>
<g transform="translate(60.5656, 2.7431)">
<line stroke-linejoin="round" stroke-linecap="round" stroke-width="0.1600" stroke="currentColor" x1="-0.2000" y1="-0.0000" x2="2.1563" y2="-0.0000"/>
</g>
<g transform="translate(60.5656, 4.0831)">
<polygon stroke-linejoin="round" stroke-linecap="round" stroke-width="0.0800" fill="currentColor" stroke="currentColor" points="6.1994 -0.2000 6.1994 0.2000 0.0400 0.2000 0.0400 -0.2000"/>
</g>
<g transform="translate(53.8299, 3.3787)">
<text font-family="serif" font-style="italic" font-size="1.7459" text-anchor="start" fill="currentColor">
<tspan>3</tspan>
</text>
</g>
<g transform="translate(51.1455, 2.7431)">
<line stroke-linejoin="round" stroke-linecap="round" stroke-width="0.1600" stroke="currentColor" x1="6.6954" y1="-0.0000" x2="6.6954" y2="0.7000"/>
</g>
<g transform="translate(51.1455, 2.7431)">
<line stroke-linejoin="round" stroke-linecap="round" stroke-width="0.1600" stroke="currentColor" x1="-0.2000" y1="-0.0000" x2="-0.2000" y2="0.7000"/>
</g>
<g transform="translate(51.1455, 2.7431)">
<line stroke-linejoin="round" stroke-linecap="round" stroke-width="0.1600" stroke="currentColor" x1="6.6954" y1="-0.0000" x2="4.4111" y2="-0.0000"/>
</g>
<g transform="translate(51.1455, 2.7431)">
<line stroke-linejoin="round" stroke-linecap="round" stroke-width="0.1600" stroke="currentColor" x1="-0.2000" y1="-0.0000" x2="2.2844" y2="-0.0000"/>
</g>
<g transform="translate(51.1455, 4.0831)">
<polygon stroke-linejoin="round" stroke-linecap="round" stroke-width="0.0800" fill="currentColor" stroke="currentColor" points="6.4554 -0.2000 6.4554 0.2000 0.0400 0.2000 0.0400 -0.2000"/>
</g>
<g transform="translate(89.4977, 2.7431)">
<line stroke-linejoin="round" stroke-linecap="round" stroke-width="0.1600" stroke="currentColor" x1="6.4394" y1="-0.0000" x2="6.4394" y2="0.7000"/>
</g>
<g transform="translate(89.4977, 2.7431)">
<line stroke-linejoin="round" stroke-linecap="round" stroke-width="0.1600" stroke="currentColor" x1="-0.2000" y1="-0.0000" x2="-0.2000" y2="0.7000"/>
</g>
<g transform="translate(89.4977, 2.7431)">
<line stroke-linejoin="round" stroke-linecap="round" stroke-width="0.1600" stroke="currentColor" x1="6.4394" y1="-0.0000" x2="4.2831" y2="-0.0000"/>
</g>
<g transform="translate(89.4977, 2.7431)">
<line stroke-linejoin="round" stroke-linecap="round" stroke-width="0.1600" stroke="currentColor" x1="-0.2000" y1="-0.0000" x2="2.1563" y2="-0.0000"/>
</g>
<g transform="translate(99.5453, 3.0562)">
<text font-family="serif" font-style="italic" font-size="1.7459" text-anchor="start" fill="currentColor">
<tspan>3</tspan>
</text>
</g>
<g transform="translate(98.6618, 2.4206)">
<line stroke-linejoin="round" stroke-linecap="round" stroke-width="0.1600" stroke="currentColor" x1="3.0937" y1="-0.0000" x2="3.0937" y2="0.7000"/>
</g>
<g transform="translate(98.6618, 2.4206)">
<line stroke-linejoin="round" stroke-linecap="round" stroke-width="0.1600" stroke="currentColor" x1="-0.2000" y1="-0.0000" x2="-0.2000" y2="0.7000"/>
</g>
<g transform="translate(98.6618, 2.4206)">
<line stroke-linejoin="round" stroke-linecap="round" stroke-width="0.1600" stroke="currentColor" x1="3.0937" y1="-0.0000" x2="2.6102" y2="-0.0000"/>
</g>
<g transform="translate(98.6618, 2.4206)">
<line stroke-linejoin="round" stroke-linecap="round" stroke-width="0.1600" stroke="currentColor" x1="-0.2000" y1="-0.0000" x2="0.4835" y2="-0.0000"/>
</g>
<g transform="translate(97.9387, 1.2959)">
<text font-family="serif" font-style="italic" font-size="1.7459" text-anchor="start" fill="currentColor">
<tspan>3</tspan>
</text>
</g>
<g transform="translate(89.4977, 0.6603)">
<line stroke-linejoin="round" stroke-linecap="round" stroke-width="0.1600" stroke="currentColor" x1="18.2087" y1="-0.0000" x2="18.2087" y2="0.7000"/>
</g>
<g transform="translate(89.4977, 0.6603)">
<line stroke-linejoin="round" stroke-linecap="round" stroke-width="0.1600" stroke="currentColor" x1="-0.2000" y1="-0.0000" x2="-0.2000" y2="0.7000"/>
</g>
<g transform="translate(89.4977, 0.6603)">
<line stroke-linejoin="round" stroke-linecap="round" stroke-width="0.1600" stroke="currentColor" x1="18.2087" y1="-0.0000" x2="10.1677" y2="-0.0000"/>
</g>
<g transform="translate(89.4977, 0.6603)">
<line stroke-linejoin="round" stroke-linecap="round" stroke-width="0.1600" stroke="currentColor" x1="-0.2000" y1="-0.0000" x2="8.0410" y2="-0.0000"/>
</g>
<g transform="translate(92.0541, 3.3787)">
<text font-family="serif" font-style="italic" font-size="1.7459" text-anchor="start" fill="currentColor">
<tspan>3</tspan>
</text>
</g>
<g transform="translate(89.4977, 4.0831)">
<polygon stroke-linejoin="round" stroke-linecap="round" stroke-width="0.0800" fill="currentColor" stroke="currentColor" points="6.1994 -0.2000 6.1994 0.2000 0.0400 0.2000 0.0400 -0.2000"/>
</g>
<g transform="translate(81.5354, 3.3787)">
<text font-family="serif" font-style="italic" font-size="1.7459" text-anchor="start" fill="currentColor">
<tspan>3</tspan>
</text>
</g>
<g transform="translate(78.9791, 2.7431)">
<line stroke-linejoin="round" stroke-linecap="round" stroke-width="0.1600" stroke="currentColor" x1="6.4394" y1="-0.0000" x2="6.4394" y2="0.7000"/>
</g>
<g transform="translate(78.9791, 2.7431)">
<line stroke-linejoin="round" stroke-linecap="round" stroke-width="0.1600" stroke="currentColor" x1="-0.2000" y1="-0.0000" x2="-0.2000" y2="0.7000"/>
</g>
<g transform="translate(78.9791, 2.7431)">
<line stroke-linejoin="round" stroke-linecap="round" stroke-width="0.1600" stroke="currentColor" x1="6.4394" y1="-0.0000" x2="4.2831" y2="-0.0000"/>
</g>
<g transform="translate(78.9791, 2.7431)">
<line stroke-linejoin="round" stroke-linecap="round" stroke-width="0.1600" stroke="currentColor" x1="-0.2000" y1="-0.0000" x2="2.1563" y2="-0.0000"/>
</g>
<g transform="translate(78.9791, 4.0831)">
<polygon stroke-linejoin="round" stroke-linecap="round" stroke-width="0.0800" fill="currentColor" stroke="currentColor" points="6.1994 -0.2000 6.1994 0.2000 0.0400 0.2000 0.0400 -0.2000"/>
</g>
<g transform="translate(15.7140, 1.6184)">
<text font-family="serif" font-style="italic" font-size="1.7459" text-anchor="start" fill="currentColor">
<tspan>3</tspan>
</text>
</g>
<g transform="translate(14.8946, 3.3787)">
<text font-family="serif" font-style="italic" font-size="1.7459" text-anchor="start" fill="currentColor">
<tspan>3</tspan>
</text>
</g>
<g transform="translate(12.3383, 2.7431)">
<line stroke-linejoin="round" stroke-linecap="round" stroke-width="0.1600" stroke="currentColor" x1="6.4394" y1="-0.0000" x2="6.4394" y2="0.7000"/>
</g>
<g transform="translate(12.3383, 2.7431)">
<line stroke-linejoin="round" stroke-linecap="round" stroke-width="0.1600" stroke="currentColor" x1="-0.2000" y1="-0.0000" x2="-0.2000" y2="0.7000"/>
</g>
<g transform="translate(12.3383, 2.7431)">
<line stroke-linejoin="round" stroke-linecap="round" stroke-width="0.1600" stroke="currentColor" x1="6.4394" y1="-0.0000" x2="4.2831" y2="-0.0000"/>
</g>
<g transform="translate(12.3383, 2.7431)">
<line stroke-linejoin="round" stroke-linecap="round" stroke-width="0.1600" stroke="currentColor" x1="-0.2000" y1="-0.0000" x2="2.1563" y2="-0.0000"/>
</g>
<g transform="translate(12.3383, 4.0831)">
<polygon stroke-linejoin="round" stroke-linecap="round" stroke-width="0.0800" fill="currentColor" stroke="currentColor" points="6.1994 -0.2000 6.1994 0.2000 0.0400 0.2000 0.0400 -0.2000"/>
</g>
<g transform="translate(3.1742, 0.9828)">
<line stroke-linejoin="round" stroke-linecap="round" stroke-width="0.1600" stroke="currentColor" x1="26.4064" y1="-0.0000" x2="26.4064" y2="0.7000"/>
</g>
<g transform="translate(3.1742, 0.9828)">
<line stroke-linejoin="round" stroke-linecap="round" stroke-width="0.1600" stroke="currentColor" x1="-0.2000" y1="-0.0000" x2="-0.2000" y2="0.7000"/>
</g>
<g transform="translate(3.1742, 0.9828)">
<line stroke-linejoin="round" stroke-linecap="round" stroke-width="0.1600" stroke="currentColor" x1="26.4064" y1="-0.0000" x2="14.2665" y2="-0.0000"/>
</g>
<g transform="translate(3.1742, 0.9828)">
<line stroke-linejoin="round" stroke-linecap="round" stroke-width="0.1600" stroke="currentColor" x1="-0.2000" y1="-0.0000" x2="12.1398" y2="-0.0000"/>
</g>
<g transform="translate(5.7305, 3.3787)">
<text font-family="serif" font-style="italic" font-size="1.7459" text-anchor="start" fill="currentColor">
<tspan>3</tspan>
</text>
</g>
<g transform="translate(3.1742, 2.7431)">
<line stroke-linejoin="round" stroke-linecap="round" stroke-width="0.1600" stroke="currentColor" x1="6.4394" y1="-0.0000" x2="6.4394" y2="0.7000"/>
</g>
<g transform="translate(3.1742, 2.7431)">
<line stroke-linejoin="round" stroke-linecap="round" stroke-width="0.1600" stroke="currentColor" x1="-0.2000" y1="-0.0000" x2="-0.2000" y2="0.7000"/>
</g>
<g transform="translate(3.1742, 2.7431)">
<line stroke-linejoin="round" stroke-linecap="round" stroke-width="0.1600" stroke="currentColor" x1="6.4394" y1="-0.0000" x2="4.2831" y2="-0.0000"/>
</g>
<g transform="translate(3.1742, 2.7431)">
<line stroke-linejoin="round" stroke-linecap="round" stroke-width="0.1600" stroke="currentColor" x1="-0.2000" y1="-0.0000" x2="2.1563" y2="-0.0000"/>
</g>
<g transform="translate(3.1742, 4.0831)">
<polygon stroke-linejoin="round" stroke-linecap="round" stroke-width="0.0800" fill="currentColor" stroke="currentColor" points="6.1994 -0.2000 6.1994 0.2000 0.0400 0.2000 0.0400 -0.2000"/>
</g>
<g transform="translate(32.3053, 0.9828)">
<line stroke-linejoin="round" stroke-linecap="round" stroke-width="0.1600" stroke="currentColor" x1="25.5357" y1="-0.0000" x2="25.5357" y2="0.7000"/>
</g>
<g transform="translate(32.3053, 0.9828)">
<line stroke-linejoin="round" stroke-linecap="round" stroke-width="0.1600" stroke="currentColor" x1="-0.2000" y1="-0.0000" x2="-0.2000" y2="0.7000"/>
</g>
<g transform="translate(32.3053, 0.9828)">
<line stroke-linejoin="round" stroke-linecap="round" stroke-width="0.1600" stroke="currentColor" x1="25.5357" y1="-0.0000" x2="13.8312" y2="-0.0000"/>
</g>
<g transform="translate(32.3053, 0.9828)">
<line stroke-linejoin="round" stroke-linecap="round" stroke-width="0.1600" stroke="currentColor" x1="-0.2000" y1="-0.0000" x2="11.7045" y2="-0.0000"/>
</g>
<g transform="translate(44.0256, 3.3787)">
<text font-family="serif" font-style="italic" font-size="1.7459" text-anchor="start" fill="currentColor">
<tspan>3</tspan>
</text>
</g>
<g transform="translate(41.4693, 2.7431)">
<line stroke-linejoin="round" stroke-linecap="round" stroke-width="0.1600" stroke="currentColor" x1="6.4394" y1="-0.0000" x2="6.4394" y2="0.7000"/>
</g>
<g transform="translate(41.4693, 2.7431)">
<line stroke-linejoin="round" stroke-linecap="round" stroke-width="0.1600" stroke="currentColor" x1="-0.2000" y1="0.0000" x2="-0.2000" y2="0.7000"/>
</g>
<g transform="translate(41.4693, 2.7431)">
<line stroke-linejoin="round" stroke-linecap="round" stroke-width="0.1600" stroke="currentColor" x1="6.4394" y1="-0.0000" x2="4.2831" y2="-0.0000"/>
</g>
<g transform="translate(41.4693, 2.7431)">
<line stroke-linejoin="round" stroke-linecap="round" stroke-width="0.1600" stroke="currentColor" x1="-0.2000" y1="0.0000" x2="2.1563" y2="-0.0000"/>
</g>
<g transform="translate(41.4693, 4.0831)">
<polygon stroke-linejoin="round" stroke-linecap="round" stroke-width="0.0800" fill="currentColor" stroke="currentColor" points="6.1994 -0.2000 6.1994 0.2000 0.0400 0.2000 0.0400 -0.2000"/>
</g>
<g transform="translate(44.4097, 1.6184)">
<text font-family="serif" font-style="italic" font-size="1.7459" text-anchor="start" fill="currentColor">
<tspan>3</tspan>
</text>
</g>
<g transform="translate(34.8616, 3.3787)">
<text font-family="serif" font-style="italic" font-size="1.7459" text-anchor="start" fill="currentColor">
<tspan>3</tspan>
</text>
</g>
<g transform="translate(32.3053, 2.7431)">
<line stroke-linejoin="round" stroke-linecap="round" stroke-width="0.1600" stroke="currentColor" x1="6.4394" y1="-0.0000" x2="6.4394" y2="0.7000"/>
</g>
<g transform="translate(32.3053, 2.7431)">
<line stroke-linejoin="round" stroke-linecap="round" stroke-width="0.1600" stroke="currentColor" x1="-0.2000" y1="0.0000" x2="-0.2000" y2="0.7000"/>
</g>
<g transform="translate(32.3053, 2.7431)">
<line stroke-linejoin="round" stroke-linecap="round" stroke-width="0.1600" stroke="currentColor" x1="6.4394" y1="-0.0000" x2="4.2831" y2="-0.0000"/>
</g>
<g transform="translate(32.3053, 2.7431)">
<line stroke-linejoin="round" stroke-linecap="round" stroke-width="0.1600" stroke="currentColor" x1="-0.2000" y1="0.0000" x2="2.1563" y2="-0.0000"/>
</g>
<g transform="translate(32.3053, 4.0831)">
<polygon stroke-linejoin="round" stroke-linecap="round" stroke-width="0.0800" fill="currentColor" stroke="currentColor" points="6.1994 -0.2000 6.1994 0.2000 0.0400 0.2000 0.0400 -0.2000"/>
</g>
<g transform="translate(25.5695, 3.3787)">
<text font-family="serif" font-style="italic" font-size="1.7459" text-anchor="start" fill="currentColor">
<tspan>3</tspan>
</text>
</g>
<g transform="translate(22.8851, 2.7431)">
<line stroke-linejoin="round" stroke-linecap="round" stroke-width="0.1600" stroke="currentColor" x1="6.6954" y1="-0.0000" x2="6.6954" y2="0.7000"/>
</g>
<g transform="translate(22.8851, 2.7431)">
<line stroke-linejoin="round" stroke-linecap="round" stroke-width="0.1600" stroke="currentColor" x1="-0.2000" y1="-0.0000" x2="-0.2000" y2="0.7000"/>
</g>
<g transform="translate(22.8851, 2.7431)">
<line stroke-linejoin="round" stroke-linecap="round" stroke-width="0.1600" stroke="currentColor" x1="6.6954" y1="-0.0000" x2="4.4111" y2="-0.0000"/>
</g>
<g transform="translate(22.8851, 2.7431)">
<line stroke-linejoin="round" stroke-linecap="round" stroke-width="0.1600" stroke="currentColor" x1="-0.2000" y1="-0.0000" x2="2.2844" y2="-0.0000"/>
</g>
<g transform="translate(22.8851, 4.0831)">
<polygon stroke-linejoin="round" stroke-linecap="round" stroke-width="0.0800" fill="currentColor" stroke="currentColor" points="6.4554 -0.2000 6.4554 0.2000 0.0400 0.2000 0.0400 -0.2000"/>
</g>
<g transform="translate(30.7076, 12.5831)">
<text font-family="Charis SIL" font-weight="bold" font-style="italic" font-size="2.4697" text-anchor="start" fill="currentColor">
<tspan>&amp;</tspan>
</text>
</g>
<g transform="translate(31.1310, 7.0831)">
<path transform="scale(0.0040, -0.0040)" d="M218 136c66 0 108 -36 108 -89c0 -89 -113 -183 -218 -183c-66 0 -108 36 -108 89c0 89 113 183 218 183z" fill="currentColor"/>
</g>
<g transform="translate(5.0547, 7.0831)">
<path transform="scale(0.0040, -0.0040)" d="M218 136c66 0 108 -36 108 -89c0 -89 -113 -183 -218 -183c-66 0 -108 36 -108 89c0 89 113 183 218 183z" fill="currentColor"/>
</g>
<g transform="translate(29.3156, 7.0831)">
<rect x="-0.0650" y="-3.0000" width="0.1300" height="2.8139" ry="0.0400" fill="currentColor"/>
</g>
<g transform="translate(28.1309, 15.3831)">
<text font-family="Charis SIL" font-weight="bold" font-style="italic" font-size="2.4697" text-anchor="start" fill="currentColor">
<tspan>t</tspan>
</text>
</g>
<g transform="translate(28.2163, 12.5831)">
<text font-family="Charis SIL" font-weight="bold" font-style="italic" font-size="2.4697" text-anchor="start" fill="currentColor">
<tspan>-</tspan>
</text>
</g>
<g transform="translate(30.2028, 15.3831)">
<text font-family="Charis SIL" font-weight="bold" font-style="italic" font-size="2.4697" text-anchor="start" fill="currentColor">
<tspan>|</tspan>
</text>
</g>
<g transform="translate(31.6905, 15.3831)">
<text font-family="Charis SIL" font-weight="bold" font-style="italic" font-size="2.4697" text-anchor="start" fill="currentColor">
<tspan>ə</tspan>
</text>
</g>
<g transform="translate(28.0764, 7.0831)">
<path transform="scale(0.0040, -0.0040)" d="M218 136c66 0 108 -36 108 -89c0 -89 -113 -183 -218 -183c-66 0 -108 36 -108 89c0 89 113 183 218 183z" fill="currentColor"/>
</g>
<g transform="translate(26.2609, 7.0831)">
<rect x="-0.0650" y="-3.0000" width="0.1300" height="2.8139" ry="0.0400" fill="currentColor"/>
</g>
<g transform="translate(25.0592, 15.3831)">
<text font-family="Charis SIL" font-weight="bold" font-style="italic" font-size="2.4697" text-anchor="start" fill="currentColor">
<tspan>_</tspan>
</text>
</g>
<g transform="translate(25.1616, 12.5831)">
<text font-family="Charis SIL" font-weight="bold" font-style="italic" font-size="2.4697" text-anchor="start" fill="currentColor">
<tspan>-</tspan>
</text>
</g>
<g transform="translate(25.0217, 7.0831)">
<path transform="scale(0.0040, -0.0040)" d="M218 136c66 0 108 -36 108 -89c0 -89 -113 -183 -218 -183c-66 0 -108 36 -108 89c0 89 113 183 218 183z" fill="currentColor"/>
</g>
<g transform="translate(5.1946, 12.5831)">
<text font-family="Charis SIL" font-weight="bold" font-style="italic" font-size="2.4697" text-anchor="start" fill="currentColor">
<tspan>-</tspan>
</text>
</g>
<g transform="translate(34.3257, 12.5831)">
<text font-family="Charis SIL" font-weight="bold" font-style="italic" font-size="2.4697" text-anchor="start" fill="currentColor">
<tspan>-</tspan>
</text>
</g>
<g transform="translate(37.0219, 15.3831)">
<text font-family="Charis SIL" font-weight="bold" font-style="italic" font-size="2.4697" text-anchor="start" fill="currentColor">
<tspan>n</tspan>
</text>
</g>
<g transform="translate(37.3804, 12.5831)">
<text font-family="Charis SIL" font-weight="bold" font-style="italic" font-size="2.4697" text-anchor="start" fill="currentColor">
<tspan>-</tspan>
</text>
</g>
<g transform="translate(37.2404, 7.0831)">
<path transform="scale(0.0040, -0.0040)" d="M218 136c66 0 108 -36 108 -89c0 -89 -113 -183 -218 -183c-66 0 -108 36 -108 89c0 89 113 183 218 183z" fill="currentColor"/>
</g>
<g transform="translate(1.5766, 12.5831)">
<text font-family="Charis SIL" font-weight="bold" font-style="italic" font-size="2.4697" text-anchor="start" fill="currentColor">
<tspan>&amp;</tspan>
</text>
</g>
<g transform="translate(1.0717, 15.3831)">
<text font-family="Charis SIL" font-weight="bold" font-style="italic" font-size="2.4697" text-anchor="start" fill="currentColor">
<tspan>|</tspan>
</text>
</g>
<g transform="translate(2.5595, 15.3831)">
<text font-family="Charis SIL" font-weight="bold" font-style="italic" font-size="2.4697" text-anchor="start" fill="currentColor">
<tspan>ə</tspan>
</text>
</g>
<g transform="translate(35.4249, 7.0831)">
<rect x="-0.0650" y="-3.0000" width="0.1300" height="2.8139" ry="0.0400" fill="currentColor"/>
</g>
<g transform="translate(34.2233, 15.3831)">
<text font-family="Charis SIL" font-weight="bold" font-style="italic" font-size="2.4697" text-anchor="start" fill="currentColor">
<tspan>_</tspan>
</text>
</g>
<g transform="translate(3.2392, 7.0831)">
<rect x="-0.0650" y="-3.0000" width="0.1300" height="2.8139" ry="0.0400" fill="currentColor"/>
</g>
<g transform="translate(34.1857, 7.0831)">
<path transform="scale(0.0040, -0.0040)" d="M218 136c66 0 108 -36 108 -89c0 -89 -113 -183 -218 -183c-66 0 -108 36 -108 89c0 89 113 183 218 183z" fill="currentColor"/>
</g>
<g transform="translate(32.3703, 7.0831)">
<rect x="-0.0650" y="-3.0000" width="0.1300" height="2.8139" ry="0.0400" fill="currentColor"/>
</g>
<g transform="translate(11.1641, 7.0831)">
<path transform="scale(0.0040, -0.0040)" d="M218 136c66 0 108 -36 108 -89c0 -89 -113 -183 -218 -183c-66 0 -108 36 -108 89c0 89 113 183 218 183z" fill="currentColor"/>
</g>
<g transform="translate(14.3587, 12.5831)">
<text font-family="Charis SIL" font-weight="bold" font-style="italic" font-size="2.4697" text-anchor="start" fill="currentColor">
<tspan>-</tspan>
</text>
</g>
<g transform="translate(14.2188, 7.0831)">
<path transform="scale(0.0040, -0.0040)" d="M218 136c66 0 108 -36 108 -89c0 -89 -113 -183 -218 -183c-66 0 -108 36 -108 89c0 89 113 183 218 183z" fill="currentColor"/>
</g>
<g transform="translate(12.4033, 7.0831)">
<rect x="-0.0650" y="-3.0000" width="0.1300" height="2.8139" ry="0.0400" fill="currentColor"/>
</g>
<g transform="translate(10.2358, 15.3831)">
<text font-family="Charis SIL" font-weight="bold" font-style="italic" font-size="2.4697" text-anchor="start" fill="currentColor">
<tspan>|</tspan>
</text>
</g>
<g transform="translate(11.7235, 15.3831)">
<text font-family="Charis SIL" font-weight="bold" font-style="italic" font-size="2.4697" text-anchor="start" fill="currentColor">
<tspan>ə</tspan>
</text>
</g>
<g transform="translate(10.9797, 12.5831)">
<text font-family="Charis SIL" font-weight="bold" font-style="italic" font-size="2.4697" text-anchor="start" fill="currentColor">
<tspan>a</tspan>
</text>
</g>
<g transform="translate(14.2563, 15.3831)">
<text font-family="Charis SIL" font-weight="bold" font-style="italic" font-size="2.4697" text-anchor="start" fill="currentColor">
<tspan>_</tspan>
</text>
</g>
<g transform="translate(9.3486, 7.0831)">
<rect x="-0.0650" y="-3.0000" width="0.1300" height="2.8139" ry="0.0400" fill="currentColor"/>
</g>
<g transform="translate(7.8908, 15.3831)">
<text font-family="Charis SIL" font-weight="bold" font-style="italic" font-size="2.4697" text-anchor="start" fill="currentColor">
<tspan>n</tspan>
</text>
</g>
<g transform="translate(8.2493, 12.5831)">
<text font-family="Charis SIL" font-weight="bold" font-style="italic" font-size="2.4697" text-anchor="start" fill="currentColor">
<tspan>-</tspan>
</text>
</g>
<g transform="translate(8.1094, 7.0831)">
<path transform="scale(0.0040, -0.0040)" d="M218 136c66 0 108 -36 108 -89c0 -89 -113 -183 -218 -183c-66 0 -108 36 -108 89c0 89 113 183 218 183z" fill="currentColor"/>
</g>
<g transform="translate(22.9501, 7.0831)">
<rect x="-0.0650" y="-3.0000" width="0.1300" height="2.8139" ry="0.0400" fill="currentColor"/>
</g>
<g transform="translate(20.1169, 15.3831)">
<text font-family="Charis SIL" font-weight="bold" font-style="italic" font-size="2.4697" text-anchor="start" fill="currentColor">
<tspan>|</tspan>
</text>
</g>
<g transform="translate(21.6046, 15.3831)">
<text font-family="Charis SIL" font-weight="bold" font-style="italic" font-size="2.4697" text-anchor="start" fill="currentColor">
<tspan>eɪ</tspan>
</text>
</g>
<g transform="translate(21.0656, 12.5831)">
<text font-family="Charis SIL" font-weight="bold" font-style="italic" font-size="2.4697" text-anchor="start" fill="currentColor">
<tspan>|8</tspan>
</text>
</g>
<g transform="translate(21.7109, 7.0831)">
<path transform="scale(0.0040, -0.0040)" d="M218 136c66 0 108 -36 108 -89c0 -89 -113 -183 -218 -183c-66 0 -108 36 -108 89c0 89 113 183 218 183z" fill="currentColor"/>
</g>
<g transform="translate(5.0922, 15.3831)">
<text font-family="Charis SIL" font-weight="bold" font-style="italic" font-size="2.4697" text-anchor="start" fill="currentColor">
<tspan>_</tspan>
</text>
</g>
<g transform="translate(38.4796, 7.0831)">
<rect x="-0.0650" y="-3.0000" width="0.1300" height="2.8139" ry="0.0400" fill="currentColor"/>
</g>
<g transform="translate(18.5127, 7.0831)">
<rect x="-0.0650" y="-3.0000" width="0.1300" height="2.8139" ry="0.0400" fill="currentColor"/>
</g>
<g transform="translate(16.1842, 15.3831)">
<text font-family="Charis SIL" font-weight="bold" font-style="italic" font-size="2.4697" text-anchor="start" fill="currentColor">
<tspan>(r)</tspan>
</text>
</g>
<g transform="translate(17.4134, 12.5831)">
<text font-family="Charis SIL" font-weight="bold" font-style="italic" font-size="2.4697" text-anchor="start" fill="currentColor">
<tspan>-</tspan>
</text>
</g>
<g transform="translate(17.2734, 7.0831)">
<path transform="scale(0.0040, -0.0040)" d="M218 136c66 0 108 -36 108 -89c0 -89 -113 -183 -218 -183c-66 0 -108 36 -108 89c0 89 113 183 218 183z" fill="currentColor"/>
</g>
<g transform="translate(6.2939, 7.0831)">
<rect x="-0.0650" y="-3.0000" width="0.1300" height="2.8139" ry="0.0400" fill="currentColor"/>
</g>
<g transform="translate(15.4580, 7.0831)">
<rect x="-0.0650" y="-3.0000" width="0.1300" height="2.8139" ry="0.0400" fill="currentColor"/>
</g>
<g transform="translate(56.4767, 12.5831)">
<text font-family="Charis SIL" font-weight="bold" font-style="italic" font-size="2.4697" text-anchor="start" fill="currentColor">
<tspan>-</tspan>
</text>
</g>
<g transform="translate(58.4632, 15.3831)">
<text font-family="Charis SIL" font-weight="bold" font-style="italic" font-size="2.4697" text-anchor="start" fill="currentColor">
<tspan>|</tspan>
</text>
</g>
<g transform="translate(59.9509, 15.3831)">
<text font-family="Charis SIL" font-weight="bold" font-style="italic" font-size="2.4697" text-anchor="start" fill="currentColor">
<tspan>ə</tspan>
</text>
</g>
<g transform="translate(58.9680, 12.5831)">
<text font-family="Charis SIL" font-weight="bold" font-style="italic" font-size="2.4697" text-anchor="start" fill="currentColor">
<tspan>&amp;</tspan>
</text>
</g>
<g transform="translate(59.3914, 7.0831)">
<path transform="scale(0.0040, -0.0040)" d="M218 136c66 0 108 -36 108 -89c0 -89 -113 -183 -218 -183c-66 0 -108 36 -108 89c0 89 113 183 218 183z" fill="currentColor"/>
</g>
<g transform="translate(57.5759, 7.0831)">
<rect x="-0.0650" y="-3.0000" width="0.1300" height="2.8139" ry="0.0400" fill="currentColor"/>
</g>
<g transform="translate(56.1182, 15.3831)">
<text font-family="Charis SIL" font-weight="bold" font-style="italic" font-size="2.4697" text-anchor="start" fill="currentColor">
<tspan>n</tspan>
</text>
</g>
<g transform="translate(60.6306, 7.0831)">
<rect x="-0.0650" y="-3.0000" width="0.1300" height="2.8139" ry="0.0400" fill="currentColor"/>
</g>
<g transform="translate(56.3367, 7.0831)">
<path transform="scale(0.0040, -0.0040)" d="M218 136c66 0 108 -36 108 -89c0 -89 -113 -183 -218 -183c-66 0 -108 36 -108 89c0 89 113 183 218 183z" fill="currentColor"/>
</g>
<g transform="translate(54.5213, 7.0831)">
<rect x="-0.0650" y="-3.0000" width="0.1300" height="2.8139" ry="0.0400" fill="currentColor"/>
</g>
<g transform="translate(53.3196, 15.3831)">
<text font-family="Charis SIL" font-weight="bold" font-style="italic" font-size="2.4697" text-anchor="start" fill="currentColor">
<tspan>_</tspan>
</text>
</g>
<g transform="translate(53.4220, 12.5831)">
<text font-family="Charis SIL" font-weight="bold" font-style="italic" font-size="2.4697" text-anchor="start" fill="currentColor">
<tspan>-</tspan>
</text>
</g>
<g transform="translate(66.7400, 7.0831)">
<rect x="-0.0650" y="-3.0000" width="0.1300" height="2.8139" ry="0.0400" fill="currentColor"/>
</g>
<g transform="translate(65.2823, 15.3831)">
<text font-family="Charis SIL" font-weight="bold" font-style="italic" font-size="2.4697" text-anchor="start" fill="currentColor">
<tspan>n</tspan>
</text>
</g>
<g transform="translate(65.6408, 12.5831)">
<text font-family="Charis SIL" font-weight="bold" font-style="italic" font-size="2.4697" text-anchor="start" fill="currentColor">
<tspan>-</tspan>
</text>
</g>
<g transform="translate(65.5008, 7.0831)">
<path transform="scale(0.0040, -0.0040)" d="M218 136c66 0 108 -36 108 -89c0 -89 -113 -183 -218 -183c-66 0 -108 36 -108 89c0 89 113 183 218 183z" fill="currentColor"/>
</g>
<g transform="translate(53.2820, 7.0831)">
<path transform="scale(0.0040, -0.0040)" d="M218 136c66 0 108 -36 108 -89c0 -89 -113 -183 -218 -183c-66 0 -108 36 -108 89c0 89 113 183 218 183z" fill="currentColor"/>
</g>
<g transform="translate(63.6853, 7.0831)">
<rect x="-0.0650" y="-3.0000" width="0.1300" height="2.8139" ry="0.0400" fill="currentColor"/>
</g>
<g transform="translate(62.4836, 15.3831)">
<text font-family="Charis SIL" font-weight="bold" font-style="italic" font-size="2.4697" text-anchor="start" fill="currentColor">
<tspan>_</tspan>
</text>
</g>
<g transform="translate(62.5861, 12.5831)">
<text font-family="Charis SIL" font-weight="bold" font-style="italic" font-size="2.4697" text-anchor="start" fill="currentColor">
<tspan>-</tspan>
</text>
</g>
<g transform="translate(62.4461, 7.0831)">
<path transform="scale(0.0040, -0.0040)" d="M218 136c66 0 108 -36 108 -89c0 -89 -113 -183 -218 -183c-66 0 -108 36 -108 89c0 89 113 183 218 183z" fill="currentColor"/>
</g>
<g transform="translate(44.5890, 7.0831)">
<rect x="-0.0650" y="-3.0000" width="0.1300" height="2.8139" ry="0.0400" fill="currentColor"/>
</g>
<g transform="translate(43.3873, 15.3831)">
<text font-family="Charis SIL" font-weight="bold" font-style="italic" font-size="2.4697" text-anchor="start" fill="currentColor">
<tspan>_</tspan>
</text>
</g>
<g transform="translate(43.4897, 12.5831)">
<text font-family="Charis SIL" font-weight="bold" font-style="italic" font-size="2.4697" text-anchor="start" fill="currentColor">
<tspan>-</tspan>
</text>
</g>
<g transform="translate(43.3498, 7.0831)">
<path transform="scale(0.0040, -0.0040)" d="M218 136c66 0 108 -36 108 -89c0 -89 -113 -183 -218 -183c-66 0 -108 36 -108 89c0 89 113 183 218 183z" fill="currentColor"/>
</g>
<g transform="translate(41.5343, 7.0831)">
<rect x="-0.0650" y="-3.0000" width="0.1300" height="2.8139" ry="0.0400" fill="currentColor"/>
</g>
<g transform="translate(39.3668, 15.3831)">
<text font-family="Charis SIL" font-weight="bold" font-style="italic" font-size="2.4697" text-anchor="start" fill="currentColor">
<tspan>|</tspan>
</text>
</g>
<g transform="translate(40.8546, 15.3831)">
<text font-family="Charis SIL" font-weight="bold" font-style="italic" font-size="2.4697" text-anchor="start" fill="currentColor">
<tspan>ə</tspan>
</text>
</g>
<g transform="translate(40.1107, 12.5831)">
<text font-family="Charis SIL" font-weight="bold" font-style="italic" font-size="2.4697" text-anchor="start" fill="currentColor">
<tspan>a</tspan>
</text>
</g>
<g transform="translate(40.2951, 7.0831)">
<path transform="scale(0.0040, -0.0040)" d="M218 136c66 0 108 -36 108 -89c0 -89 -113 -183 -218 -183c-66 0 -108 36 -108 89c0 89 113 183 218 183z" fill="currentColor"/>
</g>
<g transform="translate(2.0000, 7.0831)">
<path transform="scale(0.0040, -0.0040)" d="M218 136c66 0 108 -36 108 -89c0 -89 -113 -183 -218 -183c-66 0 -108 36 -108 89c0 89 113 183 218 183z" fill="currentColor"/>
</g>
<g transform="translate(46.4045, 7.0831)">
<path transform="scale(0.0040, -0.0040)" d="M218 136c66 0 108 -36 108 -89c0 -89 -113 -183 -218 -183c-66 0 -108 36 -108 89c0 89 113 183 218 183z" fill="currentColor"/>
</g>
<g transform="translate(51.2105, 7.0831)">
<rect x="-0.0650" y="-3.0000" width="0.1300" height="2.8139" ry="0.0400" fill="currentColor"/>
</g>
<g transform="translate(48.3772, 15.3831)">
<text font-family="Charis SIL" font-weight="bold" font-style="italic" font-size="2.4697" text-anchor="start" fill="currentColor">
<tspan>|</tspan>
</text>
</g>
<g transform="translate(49.8650, 15.3831)">
<text font-family="Charis SIL" font-weight="bold" font-style="italic" font-size="2.4697" text-anchor="start" fill="currentColor">
<tspan>aɪ</tspan>
</text>
</g>
<g transform="translate(-1.1267, 6.0084)">
<text font-family="serif" font-size="1.7459" text-anchor="start" fill="currentColor">
<tspan>3</tspan>
</text>
</g>
<g transform="translate(49.3260, 12.5831)">
<text font-family="Charis SIL" font-weight="bold" font-style="italic" font-size="2.4697" text-anchor="start" fill="currentColor">
<tspan>|9</tspan>
</text>
</g>
<g transform="translate(49.9713, 7.0831)">
<path transform="scale(0.0040, -0.0040)" d="M218 136c66 0 108 -36 108 -89c0 -89 -113 -183 -218 -183c-66 0 -108 36 -108 89c0 89 113 183 218 183z" fill="currentColor"/>
</g>
<g transform="translate(47.6437, 7.0831)">
<rect x="-0.0650" y="-3.0000" width="0.1300" height="2.8139" ry="0.0400" fill="currentColor"/>
</g>
<g transform="translate(46.1859, 15.3831)">
<text font-family="Charis SIL" font-weight="bold" font-style="italic" font-size="2.4697" text-anchor="start" fill="currentColor">
<tspan>n</tspan>
</text>
</g>
<g transform="translate(46.5444, 12.5831)">
<text font-family="Charis SIL" font-weight="bold" font-style="italic" font-size="2.4697" text-anchor="start" fill="currentColor">
<tspan>-</tspan>
</text>
</g>
</svg>
