<svg xmlns="http://www.w3.org/2000/svg" xmlns:xlink="http://www.w3.org/1999/xlink" version="1.2" width="205.98mm" height="27.49mm" viewBox="-1.1267 -0.0000 117.2140 15.6430">
<style type="text/css">
<![CDATA[
tspan { white-space: pre; }
]]>
</style>
<g transform="translate(115.8972, 6.7606)">
<rect x="0.0000" y="-1.0000" width="0.1900" height="2.0000" ry="0.0000" fill="currentColor"/>
</g>
<g transform="translate(0.0000, 6.7606)">
<line stroke-linejoin="round" stroke-linecap="round" stroke-width="0.1000" stroke="currentColor" x1="0.0500" y1="0" x2="116.0372" y2="0"/>
</g>
<g transform="translate(103.1903, 6.7606)">
<path transform="scale(0.0040, -0.0040)" d="M218 136c66 0 108 -36 108 -89c0 -89 -113 -183 -218 -183c-66 0 -108 36 -108 89c0 89 113 183 218 183z" fill="currentColor"/>
</g>
<g transform="translate(100.2133, 6.7606)">
<rect x="-0.0650" y="-3.0000" width="0.1300" height="2.8139" ry="0.0400" fill="currentColor"/>
</g>
<g transform="translate(98.5165, 15.0606)">
<text font-family="Charis SIL" font-weight="bold" font-style="italic" font-size="2.4697" text-anchor="start" fill="currentColor">
<tspan>ˈs</tspan>
</text>
</g>
<g transform="translate(99.1140, 12.2606)">
<text font-family="Charis SIL" font-weight="bold" font-style="italic" font-size="2.4697" text-anchor="start" fill="currentColor">
<tspan>-</tspan>
</text>
</g>
<g transform="translate(98.9741, 6.7606)">
<path transform="scale(0.0040, -0.0040)" d="M218 136c66 0 108 -36 108 -89c0 -89 -113 -183 -218 -183c-66 0 -108 36 -108 89c0 89 113 183 218 183z" fill="currentColor"/>
</g>
<g transform="translate(95.9970, 6.7606)">
<rect x="-0.0650" y="-3.0000" width="0.1300" height="2.8139" ry="0.0400" fill="currentColor"/>
</g>
<g transform="translate(94.7953, 15.0606)">
<text font-family="Charis SIL" font-weight="bold" font-style="italic" font-size="2.4697" text-anchor="start" fill="currentColor">
<tspan>_</tspan>
</text>
</g>
<g transform="translate(94.8977, 12.2606)">
<text font-family="Charis SIL" font-weight="bold" font-style="italic" font-size="2.4697" text-anchor="start" fill="currentColor">
<tspan>-</tspan>
</text>
</g>
<g transform="translate(94.7578, 6.7606)">
<path transform="scale(0.0040, -0.0040)" d="M218 136c66 0 108 -36 108 -89c0 -89 -113 -183 -218 -183c-66 0 -108 36 -108 89c0 89 113 183 218 183z" fill="currentColor"/>
</g>
<g transform="translate(108.6458, 6.7606)">
<rect x="-0.0650" y="-3.0000" width="0.1300" height="2.8139" ry="0.0400" fill="currentColor"/>
</g>
<g transform="translate(112.8621, 6.7606)">
<rect x="-0.0650" y="-3.0000" width="0.1300" height="2.8139" ry="0.0400" fill="currentColor"/>
</g>
<g transform="translate(109.7654, 15.0606)">
<text font-family="Charis SIL" font-weight="bold" font-style="italic" font-size="2.4697" text-anchor="start" fill="currentColor">
<tspan>vən</tspan>
</text>
</g>
<g transform="translate(111.7628, 12.2606)">
<text font-family="Charis SIL" font-weight="bold" font-style="italic" font-size="2.4697" text-anchor="start" fill="currentColor">
<tspan>-</tspan>
</text>
</g>
<g transform="translate(111.6228, 6.7606)">
<path transform="scale(0.0040, -0.0040)" d="M218 136c66 0 108 -36 108 -89c0 -89 -113 -183 -218 -183c-66 0 -108 36 -108 89c0 89 113 183 218 183z" fill="currentColor"/>
</g>
<g transform="translate(102.5450, 12.2606)">
<text font-family="Charis SIL" font-weight="bold" font-style="italic" font-size="2.4697" text-anchor="start" fill="currentColor">
<tspan>|7</tspan>
</text>
</g>
<g transform="translate(107.4441, 15.0606)">
<text font-family="Charis SIL" font-weight="bold" font-style="italic" font-size="2.4697" text-anchor="start" fill="currentColor">
<tspan>_</tspan>
</text>
</g>
<g transform="translate(107.5465, 12.2606)">
<text font-family="Charis SIL" font-weight="bold" font-style="italic" font-size="2.4697" text-anchor="start" fill="currentColor">
<tspan>-</tspan>
</text>
</g>
<g transform="translate(107.4066, 6.7606)">
<path transform="scale(0.0040, -0.0040)" d="M218 136c66 0 108 -36 108 -89c0 -89 -113 -183 -218 -183c-66 0 -108 36 -108 89c0 89 113 183 218 183z" fill="currentColor"/>
</g>
<g transform="translate(104.4295, 6.7606)">
<rect x="-0.0650" y="-3.0000" width="0.1300" height="2.8139" ry="0.0400" fill="currentColor"/>
</g>
<g transform="translate(102.4157, 15.0606)">
<text font-family="Charis SIL" font-weight="bold" font-style="italic" font-size="2.4697" text-anchor="start" fill="currentColor">
<tspan>|</tspan>
</text>
</g>
<g transform="translate(103.9034, 15.0606)">
<text font-family="Charis SIL" font-weight="bold" font-style="italic" font-size="2.4697" text-anchor="start" fill="currentColor">
<tspan>ɛ</tspan>
</text>
</g>
<g transform="translate(82.1090, 6.7606)">
<path transform="scale(0.0040, -0.0040)" d="M218 136c66 0 108 -36 108 -89c0 -89 -113 -183 -218 -183c-66 0 -108 36 -108 89c0 89 113 183 218 183z" fill="currentColor"/>
</g>
<g transform="translate(79.1320, 6.7606)">
<rect x="-0.0650" y="-3.0000" width="0.1300" height="2.8139" ry="0.0400" fill="currentColor"/>
</g>
<g transform="translate(76.9645, 15.0606)">
<text font-family="Charis SIL" font-weight="bold" font-style="italic" font-size="2.4697" text-anchor="start" fill="currentColor">
<tspan>|</tspan>
</text>
</g>
<g transform="translate(78.4522, 15.0606)">
<text font-family="Charis SIL" font-weight="bold" font-style="italic" font-size="2.4697" text-anchor="start" fill="currentColor">
<tspan>ə</tspan>
</text>
</g>
<g transform="translate(77.4693, 12.2606)">
<text font-family="Charis SIL" font-weight="bold" font-style="italic" font-size="2.4697" text-anchor="start" fill="currentColor">
<tspan>&amp;</tspan>
</text>
</g>
<g transform="translate(77.8927, 6.7606)">
<path transform="scale(0.0040, -0.0040)" d="M218 136c66 0 108 -36 108 -89c0 -89 -113 -183 -218 -183c-66 0 -108 36 -108 89c0 89 113 183 218 183z" fill="currentColor"/>
</g>
<g transform="translate(74.9157, 6.7606)">
<rect x="-0.0650" y="-3.0000" width="0.1300" height="2.8139" ry="0.0400" fill="currentColor"/>
</g>
<g transform="translate(72.7751, 15.0606)">
<text font-family="Charis SIL" font-weight="bold" font-style="italic" font-size="2.4697" text-anchor="start" fill="currentColor">
<tspan>ks</tspan>
</text>
</g>
<g transform="translate(73.8164, 12.2606)">
<text font-family="Charis SIL" font-weight="bold" font-style="italic" font-size="2.4697" text-anchor="start" fill="currentColor">
<tspan>-</tspan>
</text>
</g>
<g transform="translate(73.6765, 6.7606)">
<path transform="scale(0.0040, -0.0040)" d="M218 136c66 0 108 -36 108 -89c0 -89 -113 -183 -218 -183c-66 0 -108 36 -108 89c0 89 113 183 218 183z" fill="currentColor"/>
</g>
<g transform="translate(86.1067, 15.0606)">
<text font-family="Charis SIL" font-weight="bold" font-style="italic" font-size="2.4697" text-anchor="start" fill="currentColor">
<tspan>n</tspan>
</text>
</g>
<g transform="translate(91.7807, 6.7606)">
<rect x="-0.0650" y="-3.0000" width="0.1300" height="2.8139" ry="0.0400" fill="currentColor"/>
</g>
<g transform="translate(89.6133, 15.0606)">
<text font-family="Charis SIL" font-weight="bold" font-style="italic" font-size="2.4697" text-anchor="start" fill="currentColor">
<tspan>|</tspan>
</text>
</g>
<g transform="translate(91.1010, 15.0606)">
<text font-family="Charis SIL" font-weight="bold" font-style="italic" font-size="2.4697" text-anchor="start" fill="currentColor">
<tspan>ə</tspan>
</text>
</g>
<g transform="translate(90.3571, 12.2606)">
<text font-family="Charis SIL" font-weight="bold" font-style="italic" font-size="2.4697" text-anchor="start" fill="currentColor">
<tspan>a</tspan>
</text>
</g>
<g transform="translate(90.5415, 6.7606)">
<path transform="scale(0.0040, -0.0040)" d="M218 136c66 0 108 -36 108 -89c0 -89 -113 -183 -218 -183c-66 0 -108 36 -108 89c0 89 113 183 218 183z" fill="currentColor"/>
</g>
<g transform="translate(87.5645, 6.7606)">
<rect x="-0.0650" y="-3.0000" width="0.1300" height="2.8139" ry="0.0400" fill="currentColor"/>
</g>
<g transform="translate(86.4652, 12.2606)">
<text font-family="Charis SIL" font-weight="bold" font-style="italic" font-size="2.4697" text-anchor="start" fill="currentColor">
<tspan>-</tspan>
</text>
</g>
<g transform="translate(86.3253, 6.7606)">
<path transform="scale(0.0040, -0.0040)" d="M218 136c66 0 108 -36 108 -89c0 -89 -113 -183 -218 -183c-66 0 -108 36 -108 89c0 89 113 183 218 183z" fill="currentColor"/>
</g>
<g transform="translate(83.3482, 6.7606)">
<rect x="-0.0650" y="-3.0000" width="0.1300" height="2.8139" ry="0.0400" fill="currentColor"/>
</g>
<g transform="translate(82.1465, 15.0606)">
<text font-family="Charis SIL" font-weight="bold" font-style="italic" font-size="2.4697" text-anchor="start" fill="currentColor">
<tspan>_</tspan>
</text>
</g>
<g transform="translate(82.2490, 12.2606)">
<text font-family="Charis SIL" font-weight="bold" font-style="italic" font-size="2.4697" text-anchor="start" fill="currentColor">
<tspan>-</tspan>
</text>
</g>
<g transform="translate(66.4182, 3.7606)">
<polygon stroke-linejoin="round" stroke-linecap="round" stroke-width="0.0800" fill="currentColor" stroke="currentColor" points="8.5225 -0.2000 8.5225 0.2000 0.0400 0.2000 0.0400 -0.2000"/>
</g>
<g transform="translate(82.7848, 3.0562)">
<text font-family="serif" font-style="italic" font-size="1.7459" text-anchor="start" fill="currentColor">
<tspan>3</tspan>
</text>
</g>
<g transform="translate(79.0670, 2.4206)">
<line stroke-linejoin="round" stroke-linecap="round" stroke-width="0.1600" stroke="currentColor" x1="8.7625" y1="-0.0000" x2="8.7625" y2="0.7000"/>
</g>
<g transform="translate(79.0670, 2.4206)">
<line stroke-linejoin="round" stroke-linecap="round" stroke-width="0.1600" stroke="currentColor" x1="-0.2000" y1="-0.0000" x2="-0.2000" y2="0.7000"/>
</g>
<g transform="translate(79.0670, 2.4206)">
<line stroke-linejoin="round" stroke-linecap="round" stroke-width="0.1600" stroke="currentColor" x1="8.7625" y1="-0.0000" x2="5.4446" y2="-0.0000"/>
</g>
<g transform="translate(79.0670, 2.4206)">
<line stroke-linejoin="round" stroke-linecap="round" stroke-width="0.1600" stroke="currentColor" x1="-0.2000" y1="-0.0000" x2="3.3179" y2="-0.0000"/>
</g>
<g transform="translate(79.0670, 3.7606)">
<polygon stroke-linejoin="round" stroke-linecap="round" stroke-width="0.0800" fill="currentColor" stroke="currentColor" points="8.5225 -0.2000 8.5225 0.2000 0.0400 0.2000 0.0400 -0.2000"/>
</g>
<g transform="translate(70.1361, 3.0562)">
<text font-family="serif" font-style="italic" font-size="1.7459" text-anchor="start" fill="currentColor">
<tspan>3</tspan>
</text>
</g>
<g transform="translate(66.4182, 2.4206)">
<line stroke-linejoin="round" stroke-linecap="round" stroke-width="0.1600" stroke="currentColor" x1="8.7625" y1="-0.0000" x2="8.7625" y2="0.7000"/>
</g>
<g transform="translate(66.4182, 2.4206)">
<line stroke-linejoin="round" stroke-linecap="round" stroke-width="0.1600" stroke="currentColor" x1="-0.2000" y1="-0.0000" x2="-0.2000" y2="0.7000"/>
</g>
<g transform="translate(66.4182, 2.4206)">
<line stroke-linejoin="round" stroke-linecap="round" stroke-width="0.1600" stroke="currentColor" x1="8.7625" y1="-0.0000" x2="5.4446" y2="-0.0000"/>
</g>
<g transform="translate(66.4182, 2.4206)">
<line stroke-linejoin="round" stroke-linecap="round" stroke-width="0.1600" stroke="currentColor" x1="-0.2000" y1="-0.0000" x2="3.3179" y2="-0.0000"/>
</g>
<g transform="translate(79.0670, 0.6603)">
<line stroke-linejoin="round" stroke-linecap="round" stroke-width="0.1600" stroke="currentColor" x1="34.0601" y1="-0.0000" x2="34.0601" y2="0.7000"/>
</g>
<g transform="translate(79.0670, 0.6603)">
<line stroke-linejoin="round" stroke-linecap="round" stroke-width="0.1600" stroke="currentColor" x1="-0.2000" y1="-0.0000" x2="-0.2000" y2="0.7000"/>
</g>
<g transform="translate(79.0670, 0.6603)">
<line stroke-linejoin="round" stroke-linecap="round" stroke-width="0.1600" stroke="currentColor" x1="34.0601" y1="-0.0000" x2="18.0934" y2="-0.0000"/>
</g>
<g transform="translate(79.0670, 0.6603)">
<line stroke-linejoin="round" stroke-linecap="round" stroke-width="0.1600" stroke="currentColor" x1="-0.2000" y1="-0.0000" x2="15.9667" y2="-0.0000"/>
</g>
<g transform="translate(57.4873, 3.0562)">
<text font-family="serif" font-style="italic" font-size="1.7459" text-anchor="start" fill="currentColor">
<tspan>3</tspan>
</text>
</g>
<g transform="translate(53.7694, 2.4206)">
<line stroke-linejoin="round" stroke-linecap="round" stroke-width="0.1600" stroke="currentColor" x1="8.7625" y1="-0.0000" x2="8.7625" y2="0.7000"/>
</g>
<g transform="translate(53.7694, 2.4206)">
<line stroke-linejoin="round" stroke-linecap="round" stroke-width="0.1600" stroke="currentColor" x1="-0.2000" y1="-0.0000" x2="-0.2000" y2="0.7000"/>
</g>
<g transform="translate(53.7694, 2.4206)">
<line stroke-linejoin="round" stroke-linecap="round" stroke-width="0.1600" stroke="currentColor" x1="8.7625" y1="-0.0000" x2="5.4446" y2="-0.0000"/>
</g>
<g transform="translate(53.7694, 2.4206)">
<line stroke-linejoin="round" stroke-linecap="round" stroke-width="0.1600" stroke="currentColor" x1="-0.2000" y1="-0.0000" x2="3.3179" y2="-0.0000"/>
</g>
<g transform="translate(53.7694, 3.7606)">
<polygon stroke-linejoin="round" stroke-linecap="round" stroke-width="0.0800" fill="currentColor" stroke="currentColor" points="8.5225 -0.2000 8.5225 0.2000 0.0400 0.2000 0.0400 -0.2000"/>
</g>
<g transform="translate(108.0824, 3.0562)">
<text font-family="serif" font-style="italic" font-size="1.7459" text-anchor="start" fill="currentColor">
<tspan>3</tspan>
</text>
</g>
<g transform="translate(104.3645, 2.4206)">
<line stroke-linejoin="round" stroke-linecap="round" stroke-width="0.1600" stroke="currentColor" x1="8.7625" y1="-0.0000" x2="8.7625" y2="0.7000"/>
</g>
<g transform="translate(104.3645, 2.4206)">
<line stroke-linejoin="round" stroke-linecap="round" stroke-width="0.1600" stroke="currentColor" x1="-0.2000" y1="-0.0000" x2="-0.2000" y2="0.7000"/>
</g>
<g transform="translate(104.3645, 2.4206)">
<line stroke-linejoin="round" stroke-linecap="round" stroke-width="0.1600" stroke="currentColor" x1="8.7625" y1="-0.0000" x2="5.4446" y2="-0.0000"/>
</g>
<g transform="translate(104.3645, 2.4206)">
<line stroke-linejoin="round" stroke-linecap="round" stroke-width="0.1600" stroke="currentColor" x1="-0.2000" y1="-0.0000" x2="3.3179" y2="-0.0000"/>
</g>
<g transform="translate(104.3645, 3.7606)">
<polygon stroke-linejoin="round" stroke-linecap="round" stroke-width="0.0800" fill="currentColor" stroke="currentColor" points="8.5225 -0.2000 8.5225 0.2000 0.0400 0.2000 0.0400 -0.2000"/>
</g>
<g transform="translate(95.4336, 3.0562)">
<text font-family="serif" font-style="italic" font-size="1.7459" text-anchor="start" fill="currentColor">
<tspan>3</tspan>
</text>
</g>
<g transform="translate(91.7157, 2.4206)">
<line stroke-linejoin="round" stroke-linecap="round" stroke-width="0.1600" stroke="currentColor" x1="8.7625" y1="-0.0000" x2="8.7625" y2="0.7000"/>
</g>
<g transform="translate(91.7157, 2.4206)">
<line stroke-linejoin="round" stroke-linecap="round" stroke-width="0.1600" stroke="currentColor" x1="-0.2000" y1="-0.0000" x2="-0.2000" y2="0.7000"/>
</g>
<g transform="translate(91.7157, 2.4206)">
<line stroke-linejoin="round" stroke-linecap="round" stroke-width="0.1600" stroke="currentColor" x1="8.7625" y1="-0.0000" x2="5.4446" y2="-0.0000"/>
</g>
<g transform="translate(91.7157, 2.4206)">
<line stroke-linejoin="round" stroke-linecap="round" stroke-width="0.1600" stroke="currentColor" x1="-0.2000" y1="-0.0000" x2="3.3179" y2="-0.0000"/>
</g>
<g transform="translate(91.7157, 3.7606)">
<polygon stroke-linejoin="round" stroke-linecap="round" stroke-width="0.0800" fill="currentColor" stroke="currentColor" points="8.5225 -0.2000 8.5225 0.2000 0.0400 0.2000 0.0400 -0.2000"/>
</g>
<g transform="translate(95.4336, 1.2959)">
<text font-family="serif" font-style="italic" font-size="1.7459" text-anchor="start" fill="currentColor">
<tspan>3</tspan>
</text>
</g>
<g transform="translate(3.1742, 0.6603)">
<line stroke-linejoin="round" stroke-linecap="round" stroke-width="0.1600" stroke="currentColor" x1="34.0601" y1="-0.0000" x2="34.0601" y2="0.7000"/>
</g>
<g transform="translate(3.1742, 0.6603)">
<line stroke-linejoin="round" stroke-linecap="round" stroke-width="0.1600" stroke="currentColor" x1="-0.2000" y1="-0.0000" x2="-0.2000" y2="0.7000"/>
</g>
<g transform="translate(3.1742, 0.6603)">
<line stroke-linejoin="round" stroke-linecap="round" stroke-width="0.1600" stroke="currentColor" x1="34.0601" y1="-0.0000" x2="18.0934" y2="-0.0000"/>
</g>
<g transform="translate(3.1742, 0.6603)">
<line stroke-linejoin="round" stroke-linecap="round" stroke-width="0.1600" stroke="currentColor" x1="-0.2000" y1="-0.0000" x2="15.9667" y2="-0.0000"/>
</g>
<g transform="translate(19.5409, 3.0562)">
<text font-family="serif" font-style="italic" font-size="1.7459" text-anchor="start" fill="currentColor">
<tspan>3</tspan>
</text>
</g>
<g transform="translate(15.8230, 2.4206)">
<line stroke-linejoin="round" stroke-linecap="round" stroke-width="0.1600" stroke="currentColor" x1="8.7625" y1="-0.0000" x2="8.7625" y2="0.7000"/>
</g>
<g transform="translate(15.8230, 2.4206)">
<line stroke-linejoin="round" stroke-linecap="round" stroke-width="0.1600" stroke="currentColor" x1="-0.2000" y1="-0.0000" x2="-0.2000" y2="0.7000"/>
</g>
<g transform="translate(15.8230, 2.4206)">
<line stroke-linejoin="round" stroke-linecap="round" stroke-width="0.1600" stroke="currentColor" x1="8.7625" y1="-0.0000" x2="5.4446" y2="-0.0000"/>
</g>
<g transform="translate(15.8230, 2.4206)">
<line stroke-linejoin="round" stroke-linecap="round" stroke-width="0.1600" stroke="currentColor" x1="-0.2000" y1="-0.0000" x2="3.3179" y2="-0.0000"/>
</g>
<g transform="translate(15.8230, 3.7606)">
<polygon stroke-linejoin="round" stroke-linecap="round" stroke-width="0.0800" fill="currentColor" stroke="currentColor" points="8.5225 -0.2000 8.5225 0.2000 0.0400 0.2000 0.0400 -0.2000"/>
</g>
<g transform="translate(19.5409, 1.2959)">
<text font-family="serif" font-style="italic" font-size="1.7459" text-anchor="start" fill="currentColor">
<tspan>3</tspan>
</text>
</g>
<g transform="translate(6.8921, 3.0562)">
<text font-family="serif" font-style="italic" font-size="1.7459" text-anchor="start" fill="currentColor">
<tspan>3</tspan>
</text>
</g>
<g transform="translate(3.1742, 2.4206)">
<line stroke-linejoin="round" stroke-linecap="round" stroke-width="0.1600" stroke="currentColor" x1="8.7625" y1="-0.0000" x2="8.7625" y2="0.7000"/>
</g>
<g transform="translate(3.1742, 2.4206)">
<line stroke-linejoin="round" stroke-linecap="round" stroke-width="0.1600" stroke="currentColor" x1="-0.2000" y1="-0.0000" x2="-0.2000" y2="0.7000"/>
</g>
<g transform="translate(3.1742, 2.4206)">
<line stroke-linejoin="round" stroke-linecap="round" stroke-width="0.1600" stroke="currentColor" x1="8.7625" y1="-0.0000" x2="5.4446" y2="-0.0000"/>
</g>
<g transform="translate(3.1742, 2.4206)">
<line stroke-linejoin="round" stroke-linecap="round" stroke-width="0.1600" stroke="currentColor" x1="-0.2000" y1="-0.0000" x2="3.3179" y2="-0.0000"/>
</g>
<g transform="translate(3.1742, 3.7606)">
<polygon stroke-linejoin="round" stroke-linecap="round" stroke-width="0.0800" fill="currentColor" stroke="currentColor" points="8.5225 -0.2000 8.5225 0.2000 0.0400 0.2000 0.0400 -0.2000"/>
</g>
<g transform="translate(57.4873, 1.2959)">
<text font-family="serif" font-style="italic" font-size="1.7459" text-anchor="start" fill="currentColor">
<tspan>3</tspan>
</text>
</g>
<g transform="translate(41.1206, 0.6603)">
<line stroke-linejoin="round" stroke-linecap="round" stroke-width="0.1600" stroke="currentColor" x1="34.0601" y1="-0.0000" x2="34.0601" y2="0.7000"/>
</g>
<g transform="translate(41.1206, 0.6603)">
<line stroke-linejoin="round" stroke-linecap="round" stroke-width="0.1600" stroke="currentColor" x1="-0.2000" y1="-0.0000" x2="-0.2000" y2="0.7000"/>
</g>
<g transform="translate(41.1206, 0.6603)">
<line stroke-linejoin="round" stroke-linecap="round" stroke-width="0.1600" stroke="currentColor" x1="34.0601" y1="-0.0000" x2="18.0934" y2="-0.0000"/>
</g>
<g transform="translate(41.1206, 0.6603)">
<line stroke-linejoin="round" stroke-linecap="round" stroke-width="0.1600" stroke="currentColor" x1="-0.2000" y1="-0.0000" x2="15.9667" y2="-0.0000"/>
</g>
<g transform="translate(44.8385, 3.0562)">
<text font-family="serif" font-style="italic" font-size="1.7459" text-anchor="start" fill="currentColor">
<tspan>3</tspan>
</text>
</g>
<g transform="translate(41.1206, 2.4206)">
<line stroke-linejoin="round" stroke-linecap="round" stroke-width="0.1600" stroke="currentColor" x1="8.7625" y1="-0.0000" x2="8.7625" y2="0.7000"/>
</g>
<g transform="translate(41.1206, 2.4206)">
<line stroke-linejoin="round" stroke-linecap="round" stroke-width="0.1600" stroke="currentColor" x1="-0.2000" y1="-0.0000" x2="-0.2000" y2="0.7000"/>
</g>
<g transform="translate(41.1206, 2.4206)">
<line stroke-linejoin="round" stroke-linecap="round" stroke-width="0.1600" stroke="currentColor" x1="8.7625" y1="-0.0000" x2="5.4446" y2="-0.0000"/>
</g>
<g transform="translate(41.1206, 2.4206)">
<line stroke-linejoin="round" stroke-linecap="round" stroke-width="0.1600" stroke="currentColor" x1="-0.2000" y1="-0.0000" x2="3.3179" y2="-0.0000"/>
</g>
<g transform="translate(41.1206, 3.7606)">
<polygon stroke-linejoin="round" stroke-linecap="round" stroke-width="0.0800" fill="currentColor" stroke="currentColor" points="8.5225 -0.2000 8.5225 0.2000 0.0400 0.2000 0.0400 -0.2000"/>
</g>
<g transform="translate(32.1897, 3.0562)">
<text font-family="serif" font-style="italic" font-size="1.7459" text-anchor="start" fill="currentColor">
<tspan>3</tspan>
</text>
</g>
<g transform="translate(28.4718, 2.4206)">
<line stroke-linejoin="round" stroke-linecap="round" stroke-width="0.1600" stroke="currentColor" x1="8.7625" y1="-0.0000" x2="8.7625" y2="0.7000"/>
</g>
<g transform="translate(28.4718, 2.4206)">
<line stroke-linejoin="round" stroke-linecap="round" stroke-width="0.1600" stroke="currentColor" x1="-0.2000" y1="-0.0000" x2="-0.2000" y2="0.7000"/>
</g>
<g transform="translate(28.4718, 2.4206)">
<line stroke-linejoin="round" stroke-linecap="round" stroke-width="0.1600" stroke="currentColor" x1="8.7625" y1="-0.0000" x2="5.4446" y2="-0.0000"/>
</g>
<g transform="translate(28.4718, 2.4206)">
<line stroke-linejoin="round" stroke-linecap="round" stroke-width="0.1600" stroke="currentColor" x1="-0.2000" y1="-0.0000" x2="3.3179" y2="-0.0000"/>
</g>
<g transform="translate(28.4718, 3.7606)">
<polygon stroke-linejoin="round" stroke-linecap="round" stroke-width="0.0800" fill="currentColor" stroke="currentColor" points="8.5225 -0.2000 8.5225 0.2000 0.0400 0.2000 0.0400 -0.2000"/>
</g>
<g transform="translate(18.9026, 15.0606)">
<text font-family="Charis SIL" font-weight="bold" font-style="italic" font-size="2.4697" text-anchor="start" fill="currentColor">
<tspan>_</tspan>
</text>
</g>
<g transform="translate(24.3205, 6.7606)">
<rect x="-0.0650" y="-3.0000" width="0.1300" height="2.8139" ry="0.0400" fill="currentColor"/>
</g>
<g transform="translate(23.2042, 15.0606)">
<text font-family="Charis SIL" font-weight="bold" font-style="italic" font-size="2.4697" text-anchor="start" fill="currentColor">
<tspan>f</tspan>
</text>
</g>
<g transform="translate(23.2213, 12.2606)">
<text font-family="Charis SIL" font-weight="bold" font-style="italic" font-size="2.4697" text-anchor="start" fill="currentColor">
<tspan>-</tspan>
</text>
</g>
<g transform="translate(23.0813, 6.7606)">
<path transform="scale(0.0040, -0.0040)" d="M218 136c66 0 108 -36 108 -89c0 -89 -113 -183 -218 -183c-66 0 -108 36 -108 89c0 89 113 183 218 183z" fill="currentColor"/>
</g>
<g transform="translate(20.1043, 6.7606)">
<rect x="-0.0650" y="-3.0000" width="0.1300" height="2.8139" ry="0.0400" fill="currentColor"/>
</g>
<g transform="translate(19.0050, 12.2606)">
<text font-family="Charis SIL" font-weight="bold" font-style="italic" font-size="2.4697" text-anchor="start" fill="currentColor">
<tspan>-</tspan>
</text>
</g>
<g transform="translate(18.8651, 6.7606)">
<path transform="scale(0.0040, -0.0040)" d="M218 136c66 0 108 -36 108 -89c0 -89 -113 -183 -218 -183c-66 0 -108 36 -108 89c0 89 113 183 218 183z" fill="currentColor"/>
</g>
<g transform="translate(15.8880, 6.7606)">
<rect x="-0.0650" y="-3.0000" width="0.1300" height="2.8139" ry="0.0400" fill="currentColor"/>
</g>
<g transform="translate(13.7205, 15.0606)">
<text font-family="Charis SIL" font-weight="bold" font-style="italic" font-size="2.4697" text-anchor="start" fill="currentColor">
<tspan>|</tspan>
</text>
</g>
<g transform="translate(15.2082, 15.0606)">
<text font-family="Charis SIL" font-weight="bold" font-style="italic" font-size="2.4697" text-anchor="start" fill="currentColor">
<tspan>ə</tspan>
</text>
</g>
<g transform="translate(14.4644, 12.2606)">
<text font-family="Charis SIL" font-weight="bold" font-style="italic" font-size="2.4697" text-anchor="start" fill="currentColor">
<tspan>a</tspan>
</text>
</g>
<g transform="translate(35.7301, 6.7606)">
<path transform="scale(0.0040, -0.0040)" d="M218 136c66 0 108 -36 108 -89c0 -89 -113 -183 -218 -183c-66 0 -108 36 -108 89c0 89 113 183 218 183z" fill="currentColor"/>
</g>
<g transform="translate(32.7531, 6.7606)">
<rect x="-0.0650" y="-3.0000" width="0.1300" height="2.8139" ry="0.0400" fill="currentColor"/>
</g>
<g transform="translate(31.5514, 15.0606)">
<text font-family="Charis SIL" font-weight="bold" font-style="italic" font-size="2.4697" text-anchor="start" fill="currentColor">
<tspan>_</tspan>
</text>
</g>
<g transform="translate(31.6538, 12.2606)">
<text font-family="Charis SIL" font-weight="bold" font-style="italic" font-size="2.4697" text-anchor="start" fill="currentColor">
<tspan>-</tspan>
</text>
</g>
<g transform="translate(31.5138, 6.7606)">
<path transform="scale(0.0040, -0.0040)" d="M218 136c66 0 108 -36 108 -89c0 -89 -113 -183 -218 -183c-66 0 -108 36 -108 89c0 89 113 183 218 183z" fill="currentColor"/>
</g>
<g transform="translate(14.6488, 6.7606)">
<path transform="scale(0.0040, -0.0040)" d="M218 136c66 0 108 -36 108 -89c0 -89 -113 -183 -218 -183c-66 0 -108 36 -108 89c0 89 113 183 218 183z" fill="currentColor"/>
</g>
<g transform="translate(28.5368, 6.7606)">
<rect x="-0.0650" y="-3.0000" width="0.1300" height="2.8139" ry="0.0400" fill="currentColor"/>
</g>
<g transform="translate(25.7035, 15.0606)">
<text font-family="Charis SIL" font-weight="bold" font-style="italic" font-size="2.4697" text-anchor="start" fill="currentColor">
<tspan>|</tspan>
</text>
</g>
<g transform="translate(27.1912, 15.0606)">
<text font-family="Charis SIL" font-weight="bold" font-style="italic" font-size="2.4697" text-anchor="start" fill="currentColor">
<tspan>aɪ</tspan>
</text>
</g>
<g transform="translate(26.6522, 12.2606)">
<text font-family="Charis SIL" font-weight="bold" font-style="italic" font-size="2.4697" text-anchor="start" fill="currentColor">
<tspan>|5</tspan>
</text>
</g>
<g transform="translate(27.2976, 6.7606)">
<path transform="scale(0.0040, -0.0040)" d="M218 136c66 0 108 -36 108 -89c0 -89 -113 -183 -218 -183c-66 0 -108 36 -108 89c0 89 113 183 218 183z" fill="currentColor"/>
</g>
<g transform="translate(1.0717, 15.0606)">
<text font-family="Charis SIL" font-weight="bold" font-style="italic" font-size="2.4697" text-anchor="start" fill="currentColor">
<tspan>|</tspan>
</text>
</g>
<g transform="translate(2.5595, 15.0606)">
<text font-family="Charis SIL" font-weight="bold" font-style="italic" font-size="2.4697" text-anchor="start" fill="currentColor">
<tspan>ə</tspan>
</text>
</g>
<g transform="translate(1.5766, 12.2606)">
<text font-family="Charis SIL" font-weight="bold" font-style="italic" font-size="2.4697" text-anchor="start" fill="currentColor">
<tspan>&amp;</tspan>
</text>
</g>
<g transform="translate(2.0000, 6.7606)">
<path transform="scale(0.0040, -0.0040)" d="M218 136c66 0 108 -36 108 -89c0 -89 -113 -183 -218 -183c-66 0 -108 36 -108 89c0 89 113 183 218 183z" fill="currentColor"/>
</g>
<g transform="translate(-1.1267, 5.7106)">
<text font-family="serif" font-size="1.7459" text-anchor="start" fill="currentColor">
<tspan>2</tspan>
</text>
</g>
<g transform="translate(3.2392, 6.7606)">
<rect x="-0.0650" y="-3.0000" width="0.1300" height="2.8139" ry="0.0400" fill="currentColor"/>
</g>
<g transform="translate(11.6717, 6.7606)">
<rect x="-0.0650" y="-3.0000" width="0.1300" height="2.8139" ry="0.0400" fill="currentColor"/>
</g>
<g transform="translate(10.2140, 15.0606)">
<text font-family="Charis SIL" font-weight="bold" font-style="italic" font-size="2.4697" text-anchor="start" fill="currentColor">
<tspan>n</tspan>
</text>
</g>
<g transform="translate(10.5725, 12.2606)">
<text font-family="Charis SIL" font-weight="bold" font-style="italic" font-size="2.4697" text-anchor="start" fill="currentColor">
<tspan>-</tspan>
</text>
</g>
<g transform="translate(10.4325, 6.7606)">
<path transform="scale(0.0040, -0.0040)" d="M218 136c66 0 108 -36 108 -89c0 -89 -113 -183 -218 -183c-66 0 -108 36 -108 89c0 89 113 183 218 183z" fill="currentColor"/>
</g>
<g transform="translate(7.4555, 6.7606)">
<rect x="-0.0650" y="-3.0000" width="0.1300" height="2.8139" ry="0.0400" fill="currentColor"/>
</g>
<g transform="translate(6.2538, 15.0606)">
<text font-family="Charis SIL" font-weight="bold" font-style="italic" font-size="2.4697" text-anchor="start" fill="currentColor">
<tspan>_</tspan>
</text>
</g>
<g transform="translate(6.3562, 12.2606)">
<text font-family="Charis SIL" font-weight="bold" font-style="italic" font-size="2.4697" text-anchor="start" fill="currentColor">
<tspan>-</tspan>
</text>
</g>
<g transform="translate(6.2163, 6.7606)">
<path transform="scale(0.0040, -0.0040)" d="M218 136c66 0 108 -36 108 -89c0 -89 -113 -183 -218 -183c-66 0 -108 36 -108 89c0 89 113 183 218 183z" fill="currentColor"/>
</g>
<g transform="translate(61.0277, 6.7606)">
<path transform="scale(0.0040, -0.0040)" d="M218 136c66 0 108 -36 108 -89c0 -89 -113 -183 -218 -183c-66 0 -108 36 -108 89c0 89 113 183 218 183z" fill="currentColor"/>
</g>
<g transform="translate(58.0506, 6.7606)">
<rect x="-0.0650" y="-3.0000" width="0.1300" height="2.8139" ry="0.0400" fill="currentColor"/>
</g>
<g transform="translate(56.8489, 15.0606)">
<text font-family="Charis SIL" font-weight="bold" font-style="italic" font-size="2.4697" text-anchor="start" fill="currentColor">
<tspan>_</tspan>
</text>
</g>
<g transform="translate(56.9514, 12.2606)">
<text font-family="Charis SIL" font-weight="bold" font-style="italic" font-size="2.4697" text-anchor="start" fill="currentColor">
<tspan>-</tspan>
</text>
</g>
<g transform="translate(56.8114, 6.7606)">
<path transform="scale(0.0040, -0.0040)" d="M218 136c66 0 108 -36 108 -89c0 -89 -113 -183 -218 -183c-66 0 -108 36 -108 89c0 89 113 183 218 183z" fill="currentColor"/>
</g>
<g transform="translate(53.8344, 6.7606)">
<rect x="-0.0650" y="-3.0000" width="0.1300" height="2.8139" ry="0.0400" fill="currentColor"/>
</g>
<g transform="translate(35.8701, 12.2606)">
<text font-family="Charis SIL" font-weight="bold" font-style="italic" font-size="2.4697" text-anchor="start" fill="currentColor">
<tspan>-</tspan>
</text>
</g>
<g transform="translate(52.4108, 12.2606)">
<text font-family="Charis SIL" font-weight="bold" font-style="italic" font-size="2.4697" text-anchor="start" fill="currentColor">
<tspan>a</tspan>
</text>
</g>
<g transform="translate(52.5952, 6.7606)">
<path transform="scale(0.0040, -0.0040)" d="M218 136c66 0 108 -36 108 -89c0 -89 -113 -183 -218 -183c-66 0 -108 36 -108 89c0 89 113 183 218 183z" fill="currentColor"/>
</g>
<g transform="translate(64.4864, 15.0606)">
<text font-family="Charis SIL" font-weight="bold" font-style="italic" font-size="2.4697" text-anchor="start" fill="currentColor">
<tspan>|</tspan>
</text>
</g>
<g transform="translate(65.9741, 15.0606)">
<text font-family="Charis SIL" font-weight="bold" font-style="italic" font-size="2.4697" text-anchor="start" fill="currentColor">
<tspan>ɪ</tspan>
</text>
</g>
<g transform="translate(70.6994, 6.7606)">
<rect x="-0.0650" y="-3.0000" width="0.1300" height="2.8139" ry="0.0400" fill="currentColor"/>
</g>
<g transform="translate(69.4977, 15.0606)">
<text font-family="Charis SIL" font-weight="bold" font-style="italic" font-size="2.4697" text-anchor="start" fill="currentColor">
<tspan>_</tspan>
</text>
</g>
<g transform="translate(69.6002, 12.2606)">
<text font-family="Charis SIL" font-weight="bold" font-style="italic" font-size="2.4697" text-anchor="start" fill="currentColor">
<tspan>-</tspan>
</text>
</g>
<g transform="translate(69.4602, 6.7606)">
<path transform="scale(0.0040, -0.0040)" d="M218 136c66 0 108 -36 108 -89c0 -89 -113 -183 -218 -183c-66 0 -108 36 -108 89c0 89 113 183 218 183z" fill="currentColor"/>
</g>
<g transform="translate(66.4832, 6.7606)">
<rect x="-0.0650" y="-3.0000" width="0.1300" height="2.8139" ry="0.0400" fill="currentColor"/>
</g>
<g transform="translate(51.6669, 15.0606)">
<text font-family="Charis SIL" font-weight="bold" font-style="italic" font-size="2.4697" text-anchor="start" fill="currentColor">
<tspan>|</tspan>
</text>
</g>
<g transform="translate(53.1546, 15.0606)">
<text font-family="Charis SIL" font-weight="bold" font-style="italic" font-size="2.4697" text-anchor="start" fill="currentColor">
<tspan>ə</tspan>
</text>
</g>
<g transform="translate(64.5986, 12.2606)">
<text font-family="Charis SIL" font-weight="bold" font-style="italic" font-size="2.4697" text-anchor="start" fill="currentColor">
<tspan>|6</tspan>
</text>
</g>
<g transform="translate(65.2439, 6.7606)">
<path transform="scale(0.0040, -0.0040)" d="M218 136c66 0 108 -36 108 -89c0 -89 -113 -183 -218 -183c-66 0 -108 36 -108 89c0 89 113 183 218 183z" fill="currentColor"/>
</g>
<g transform="translate(62.2669, 6.7606)">
<rect x="-0.0650" y="-3.0000" width="0.1300" height="2.8139" ry="0.0400" fill="currentColor"/>
</g>
<g transform="translate(60.9457, 15.0606)">
<text font-family="Charis SIL" font-weight="bold" font-style="italic" font-size="2.4697" text-anchor="start" fill="currentColor">
<tspan>s</tspan>
</text>
</g>
<g transform="translate(61.1676, 12.2606)">
<text font-family="Charis SIL" font-weight="bold" font-style="italic" font-size="2.4697" text-anchor="start" fill="currentColor">
<tspan>-</tspan>
</text>
</g>
<g transform="translate(45.4018, 6.7606)">
<rect x="-0.0650" y="-3.0000" width="0.1300" height="2.8139" ry="0.0400" fill="currentColor"/>
</g>
<g transform="translate(44.2002, 15.0606)">
<text font-family="Charis SIL" font-weight="bold" font-style="italic" font-size="2.4697" text-anchor="start" fill="currentColor">
<tspan>_</tspan>
</text>
</g>
<g transform="translate(44.3026, 12.2606)">
<text font-family="Charis SIL" font-weight="bold" font-style="italic" font-size="2.4697" text-anchor="start" fill="currentColor">
<tspan>-</tspan>
</text>
</g>
<g transform="translate(44.1626, 6.7606)">
<path transform="scale(0.0040, -0.0040)" d="M218 136c66 0 108 -36 108 -89c0 -89 -113 -183 -218 -183c-66 0 -108 36 -108 89c0 89 113 183 218 183z" fill="currentColor"/>
</g>
<g transform="translate(41.1856, 6.7606)">
<rect x="-0.0650" y="-3.0000" width="0.1300" height="2.8139" ry="0.0400" fill="currentColor"/>
</g>
<g transform="translate(39.9464, 6.7606)">
<path transform="scale(0.0040, -0.0040)" d="M218 136c66 0 108 -36 108 -89c0 -89 -113 -183 -218 -183c-66 0 -108 36 -108 89c0 89 113 183 218 183z" fill="currentColor"/>
</g>
<g transform="translate(39.0181, 15.0606)">
<text font-family="Charis SIL" font-weight="bold" font-style="italic" font-size="2.4697" text-anchor="start" fill="currentColor">
<tspan>|</tspan>
</text>
</g>
<g transform="translate(40.5058, 15.0606)">
<text font-family="Charis SIL" font-weight="bold" font-style="italic" font-size="2.4697" text-anchor="start" fill="currentColor">
<tspan>ə</tspan>
</text>
</g>
<g transform="translate(36.9693, 6.7606)">
<rect x="-0.0650" y="-3.0000" width="0.1300" height="2.8139" ry="0.0400" fill="currentColor"/>
</g>
<g transform="translate(39.5230, 12.2606)">
<text font-family="Charis SIL" font-weight="bold" font-style="italic" font-size="2.4697" text-anchor="start" fill="currentColor">
<tspan>&amp;</tspan>
</text>
</g>
<g transform="translate(48.3789, 6.7606)">
<path transform="scale(0.0040, -0.0040)" d="M218 136c66 0 108 -36 108 -89c0 -89 -113 -183 -218 -183c-66 0 -108 36 -108 89c0 89 113 183 218 183z" fill="currentColor"/>
</g>
<g transform="translate(48.5189, 12.2606)">
<text font-family="Charis SIL" font-weight="bold" font-style="italic" font-size="2.4697" text-anchor="start" fill="currentColor">
<tspan>-</tspan>
</text>
</g>
<g transform="translate(48.1603, 15.0606)">
<text font-family="Charis SIL" font-weight="bold" font-style="italic" font-size="2.4697" text-anchor="start" fill="currentColor">
<tspan>n</tspan>
</text>
</g>
<g transform="translate(49.6181, 6.7606)">
<rect x="-0.0650" y="-3.0000" width="0.1300" height="2.8139" ry="0.0400" fill="currentColor"/>
</g>
<g transform="translate(35.5798, 15.0606)">
<text font-family="Charis SIL" font-weight="bold" font-style="italic" font-size="2.4697" text-anchor="start" fill="currentColor">
<tspan>v</tspan>
</text>
</g>
</svg>
