<svg xmlns="http://www.w3.org/2000/svg" xmlns:xlink="http://www.w3.org/1999/xlink" version="1.2" width="211.98mm" height="23.14mm" viewBox="-1.1267 -0.0000 120.6283 13.1655">
<style type="text/css">
<![CDATA[
tspan { white-space: pre; }
]]>
</style>
<g transform="translate(0.0000, 7.0831)">
<line stroke-linejoin="round" stroke-linecap="round" stroke-width="0.1000" stroke="currentColor" x1="0.0500" y1="0" x2="119.4516" y2="0"/>
</g>
<g transform="translate(119.3116, 7.0831)">
<rect x="0.0000" y="-1.0000" width="0.1900" height="2.0000" ry="0.0000" fill="currentColor"/>
</g>
<g transform="translate(32.2119, 7.0831)">
<rect x="0.0000" y="-1.0000" width="0.1900" height="2.0000" ry="0.0000" fill="currentColor"/>
</g>
<g transform="translate(95.0763, 7.0831)">
<rect x="-0.0650" y="-3.0000" width="0.1300" height="2.8139" ry="0.0400" fill="currentColor"/>
</g>
<g transform="translate(101.5743, 7.0831)">
<rect x="-0.0650" y="-3.0000" width="0.1300" height="2.8139" ry="0.0400" fill="currentColor"/>
</g>
<g transform="translate(99.1678, 12.5831)">
<text font-family="Charis SIL" font-weight="bold" font-style="italic" font-size="2.4697" text-anchor="start" fill="currentColor">
<tspan>|</tspan>
</text>
</g>
<g transform="translate(100.6555, 12.5831)">
<text font-family="Charis SIL" font-weight="bold" font-style="italic" font-size="2.4697" text-anchor="start" fill="currentColor">
<tspan>&amp;</tspan>
</text>
</g>
<g transform="translate(100.3350, 7.0831)">
<path transform="scale(0.0040, -0.0040)" d="M218 136c66 0 108 -36 108 -89c0 -89 -113 -183 -218 -183c-66 0 -108 36 -108 89c0 89 113 183 218 183z" fill="currentColor"/>
</g>
<g transform="translate(98.2294, 7.0831)">
<rect x="-0.0650" y="-3.0000" width="0.1300" height="2.8139" ry="0.0400" fill="currentColor"/>
</g>
<g transform="translate(96.5667, 12.5831)">
<text font-family="Charis SIL" font-weight="bold" font-style="italic" font-size="2.4697" text-anchor="start" fill="currentColor">
<tspan>&amp;</tspan>
</text>
</g>
<g transform="translate(96.9902, 7.0831)">
<path transform="scale(0.0040, -0.0040)" d="M218 136c66 0 108 -36 108 -89c0 -89 -113 -183 -218 -183c-66 0 -108 36 -108 89c0 89 113 183 218 183z" fill="currentColor"/>
</g>
<g transform="translate(106.4568, 12.5831)">
<text font-family="Charis SIL" font-weight="bold" font-style="italic" font-size="2.4697" text-anchor="start" fill="currentColor">
<tspan>a</tspan>
</text>
</g>
<g transform="translate(111.0335, 7.0831)">
<rect x="-0.0650" y="-3.0000" width="0.1300" height="2.8139" ry="0.0400" fill="currentColor"/>
</g>
<g transform="translate(108.6270, 12.5831)">
<text font-family="Charis SIL" font-weight="bold" font-style="italic" font-size="2.4697" text-anchor="start" fill="currentColor">
<tspan>|</tspan>
</text>
</g>
<g transform="translate(110.1147, 12.5831)">
<text font-family="Charis SIL" font-weight="bold" font-style="italic" font-size="2.4697" text-anchor="start" fill="currentColor">
<tspan>&amp;</tspan>
</text>
</g>
<g transform="translate(109.7942, 7.0831)">
<path transform="scale(0.0040, -0.0040)" d="M218 136c66 0 108 -36 108 -89c0 -89 -113 -183 -218 -183c-66 0 -108 36 -108 89c0 89 113 183 218 183z" fill="currentColor"/>
</g>
<g transform="translate(107.8804, 7.0831)">
<rect x="-0.0650" y="-3.0000" width="0.1300" height="2.8139" ry="0.0400" fill="currentColor"/>
</g>
<g transform="translate(106.6412, 7.0831)">
<path transform="scale(0.0040, -0.0040)" d="M218 136c66 0 108 -36 108 -89c0 -89 -113 -183 -218 -183c-66 0 -108 36 -108 89c0 89 113 183 218 183z" fill="currentColor"/>
</g>
<g transform="translate(104.7273, 7.0831)">
<rect x="-0.0650" y="-3.0000" width="0.1300" height="2.8139" ry="0.0400" fill="currentColor"/>
</g>
<g transform="translate(103.3037, 12.5831)">
<text font-family="Charis SIL" font-weight="bold" font-style="italic" font-size="2.4697" text-anchor="start" fill="currentColor">
<tspan>a</tspan>
</text>
</g>
<g transform="translate(103.4881, 7.0831)">
<path transform="scale(0.0040, -0.0040)" d="M218 136c66 0 108 -36 108 -89c0 -89 -113 -183 -218 -183c-66 0 -108 36 -108 89c0 89 113 183 218 183z" fill="currentColor"/>
</g>
<g transform="translate(81.2248, 7.0831)">
<path transform="scale(0.0040, -0.0040)" d="M218 136c66 0 108 -36 108 -89c0 -89 -113 -183 -218 -183c-66 0 -108 36 -108 89c0 89 113 183 218 183z" fill="currentColor"/>
</g>
<g transform="translate(85.6171, 7.0831)">
<rect x="-0.0650" y="-3.0000" width="0.1300" height="2.8139" ry="0.0400" fill="currentColor"/>
</g>
<g transform="translate(84.1935, 12.5831)">
<text font-family="Charis SIL" font-weight="bold" font-style="italic" font-size="2.4697" text-anchor="start" fill="currentColor">
<tspan>a</tspan>
</text>
</g>
<g transform="translate(84.3779, 7.0831)">
<path transform="scale(0.0040, -0.0040)" d="M218 136c66 0 108 -36 108 -89c0 -89 -113 -183 -218 -183c-66 0 -108 36 -108 89c0 89 113 183 218 183z" fill="currentColor"/>
</g>
<g transform="translate(82.4640, 7.0831)">
<rect x="-0.0650" y="-3.0000" width="0.1300" height="2.8139" ry="0.0400" fill="currentColor"/>
</g>
<g transform="translate(80.0576, 12.5831)">
<text font-family="Charis SIL" font-weight="bold" font-style="italic" font-size="2.4697" text-anchor="start" fill="currentColor">
<tspan>|</tspan>
</text>
</g>
<g transform="translate(81.5453, 12.5831)">
<text font-family="Charis SIL" font-weight="bold" font-style="italic" font-size="2.4697" text-anchor="start" fill="currentColor">
<tspan>&amp;</tspan>
</text>
</g>
<g transform="translate(79.3110, 7.0831)">
<rect x="-0.0650" y="-3.0000" width="0.1300" height="2.8139" ry="0.0400" fill="currentColor"/>
</g>
<g transform="translate(77.8874, 12.5831)">
<text font-family="Charis SIL" font-weight="bold" font-style="italic" font-size="2.4697" text-anchor="start" fill="currentColor">
<tspan>a</tspan>
</text>
</g>
<g transform="translate(78.0718, 7.0831)">
<path transform="scale(0.0040, -0.0040)" d="M218 136c66 0 108 -36 108 -89c0 -89 -113 -183 -218 -183c-66 0 -108 36 -108 89c0 89 113 183 218 183z" fill="currentColor"/>
</g>
<g transform="translate(93.8371, 7.0831)">
<path transform="scale(0.0040, -0.0040)" d="M218 136c66 0 108 -36 108 -89c0 -89 -113 -183 -218 -183c-66 0 -108 36 -108 89c0 89 113 183 218 183z" fill="currentColor"/>
</g>
<g transform="translate(91.9232, 7.0831)">
<rect x="-0.0650" y="-3.0000" width="0.1300" height="2.8139" ry="0.0400" fill="currentColor"/>
</g>
<g transform="translate(89.5167, 12.5831)">
<text font-family="Charis SIL" font-weight="bold" font-style="italic" font-size="2.4697" text-anchor="start" fill="currentColor">
<tspan>|</tspan>
</text>
</g>
<g transform="translate(91.0045, 12.5831)">
<text font-family="Charis SIL" font-weight="bold" font-style="italic" font-size="2.4697" text-anchor="start" fill="currentColor">
<tspan>&amp;</tspan>
</text>
</g>
<g transform="translate(90.6840, 7.0831)">
<path transform="scale(0.0040, -0.0040)" d="M218 136c66 0 108 -36 108 -89c0 -89 -113 -183 -218 -183c-66 0 -108 36 -108 89c0 89 113 183 218 183z" fill="currentColor"/>
</g>
<g transform="translate(93.6527, 12.5831)">
<text font-family="Charis SIL" font-weight="bold" font-style="italic" font-size="2.4697" text-anchor="start" fill="currentColor">
<tspan>a</tspan>
</text>
</g>
<g transform="translate(88.7702, 7.0831)">
<rect x="-0.0650" y="-3.0000" width="0.1300" height="2.8139" ry="0.0400" fill="currentColor"/>
</g>
<g transform="translate(87.3295, 12.5831)">
<text font-family="Charis SIL" font-weight="bold" font-style="italic" font-size="2.4697" text-anchor="start" fill="currentColor">
<tspan>3</tspan>
</text>
</g>
<g transform="translate(87.5310, 7.0831)">
<path transform="scale(0.0040, -0.0040)" d="M218 136c66 0 108 -36 108 -89c0 -89 -113 -183 -218 -183c-66 0 -108 36 -108 89c0 89 113 183 218 183z" fill="currentColor"/>
</g>
<g transform="translate(82.3990, 2.7431)">
<line stroke-linejoin="round" stroke-linecap="round" stroke-width="0.1600" stroke="currentColor" x1="6.6361" y1="-0.0000" x2="6.6361" y2="0.7000"/>
</g>
<g transform="translate(82.3990, 2.7431)">
<line stroke-linejoin="round" stroke-linecap="round" stroke-width="0.1600" stroke="currentColor" x1="-0.2000" y1="-0.0000" x2="-0.2000" y2="0.7000"/>
</g>
<g transform="translate(82.3990, 2.7431)">
<line stroke-linejoin="round" stroke-linecap="round" stroke-width="0.1600" stroke="currentColor" x1="6.6361" y1="-0.0000" x2="4.3814" y2="-0.0000"/>
</g>
<g transform="translate(82.3990, 2.7431)">
<line stroke-linejoin="round" stroke-linecap="round" stroke-width="0.1600" stroke="currentColor" x1="-0.2000" y1="-0.0000" x2="2.2547" y2="-0.0000"/>
</g>
<g transform="translate(82.3990, 4.0831)">
<polygon stroke-linejoin="round" stroke-linecap="round" stroke-width="0.0800" fill="currentColor" stroke="currentColor" points="6.3961 -0.2000 6.3961 0.2000 0.0400 0.2000 0.0400 -0.2000"/>
</g>
<g transform="translate(75.5945, 3.3787)">
<text font-family="serif" font-style="italic" font-size="1.7459" text-anchor="start" fill="currentColor">
<tspan>3</tspan>
</text>
</g>
<g transform="translate(72.9398, 2.7431)">
<line stroke-linejoin="round" stroke-linecap="round" stroke-width="0.1600" stroke="currentColor" x1="6.6361" y1="-0.0000" x2="6.6361" y2="0.7000"/>
</g>
<g transform="translate(72.9398, 2.7431)">
<line stroke-linejoin="round" stroke-linecap="round" stroke-width="0.1600" stroke="currentColor" x1="-0.2000" y1="-0.0000" x2="-0.2000" y2="0.7000"/>
</g>
<g transform="translate(72.9398, 2.7431)">
<line stroke-linejoin="round" stroke-linecap="round" stroke-width="0.1600" stroke="currentColor" x1="6.6361" y1="-0.0000" x2="4.3814" y2="-0.0000"/>
</g>
<g transform="translate(72.9398, 2.7431)">
<line stroke-linejoin="round" stroke-linecap="round" stroke-width="0.1600" stroke="currentColor" x1="-0.2000" y1="-0.0000" x2="2.2547" y2="-0.0000"/>
</g>
<g transform="translate(72.9398, 4.0831)">
<polygon stroke-linejoin="round" stroke-linecap="round" stroke-width="0.0800" fill="currentColor" stroke="currentColor" points="6.3961 -0.2000 6.3961 0.2000 0.0400 0.2000 0.0400 -0.2000"/>
</g>
<g transform="translate(85.0537, 3.3787)">
<text font-family="serif" font-style="italic" font-size="1.7459" text-anchor="start" fill="currentColor">
<tspan>3</tspan>
</text>
</g>
<g transform="translate(75.4986, 1.6184)">
<text font-family="serif" font-style="italic" font-size="1.7459" text-anchor="start" fill="currentColor">
<tspan>3</tspan>
</text>
</g>
<g transform="translate(63.2888, 0.9828)">
<line stroke-linejoin="round" stroke-linecap="round" stroke-width="0.1600" stroke="currentColor" x1="25.7464" y1="-0.0000" x2="25.7464" y2="0.7000"/>
</g>
<g transform="translate(63.2888, 0.9828)">
<line stroke-linejoin="round" stroke-linecap="round" stroke-width="0.1600" stroke="currentColor" x1="-0.2000" y1="-0.0000" x2="-0.2000" y2="0.7000"/>
</g>
<g transform="translate(63.2888, 0.9828)">
<line stroke-linejoin="round" stroke-linecap="round" stroke-width="0.1600" stroke="currentColor" x1="25.7464" y1="-0.0000" x2="13.9365" y2="-0.0000"/>
</g>
<g transform="translate(63.2888, 0.9828)">
<line stroke-linejoin="round" stroke-linecap="round" stroke-width="0.1600" stroke="currentColor" x1="-0.2000" y1="-0.0000" x2="11.8098" y2="-0.0000"/>
</g>
<g transform="translate(65.9435, 3.3787)">
<text font-family="serif" font-style="italic" font-size="1.7459" text-anchor="start" fill="currentColor">
<tspan>3</tspan>
</text>
</g>
<g transform="translate(63.2888, 2.7431)">
<line stroke-linejoin="round" stroke-linecap="round" stroke-width="0.1600" stroke="currentColor" x1="6.6361" y1="-0.0000" x2="6.6361" y2="0.7000"/>
</g>
<g transform="translate(63.2888, 2.7431)">
<line stroke-linejoin="round" stroke-linecap="round" stroke-width="0.1600" stroke="currentColor" x1="-0.2000" y1="-0.0000" x2="-0.2000" y2="0.7000"/>
</g>
<g transform="translate(63.2888, 2.7431)">
<line stroke-linejoin="round" stroke-linecap="round" stroke-width="0.1600" stroke="currentColor" x1="6.6361" y1="-0.0000" x2="4.3814" y2="-0.0000"/>
</g>
<g transform="translate(63.2888, 2.7431)">
<line stroke-linejoin="round" stroke-linecap="round" stroke-width="0.1600" stroke="currentColor" x1="-0.2000" y1="-0.0000" x2="2.2547" y2="-0.0000"/>
</g>
<g transform="translate(63.2888, 4.0831)">
<polygon stroke-linejoin="round" stroke-linecap="round" stroke-width="0.0800" fill="currentColor" stroke="currentColor" points="6.3961 -0.2000 6.3961 0.2000 0.0400 0.2000 0.0400 -0.2000"/>
</g>
<g transform="translate(56.4843, 3.3787)">
<text font-family="serif" font-style="italic" font-size="1.7459" text-anchor="start" fill="currentColor">
<tspan>3</tspan>
</text>
</g>
<g transform="translate(53.8296, 2.7431)">
<line stroke-linejoin="round" stroke-linecap="round" stroke-width="0.1600" stroke="currentColor" x1="6.6361" y1="-0.0000" x2="6.6361" y2="0.7000"/>
</g>
<g transform="translate(53.8296, 2.7431)">
<line stroke-linejoin="round" stroke-linecap="round" stroke-width="0.1600" stroke="currentColor" x1="-0.2000" y1="-0.0000" x2="-0.2000" y2="0.7000"/>
</g>
<g transform="translate(53.8296, 2.7431)">
<line stroke-linejoin="round" stroke-linecap="round" stroke-width="0.1600" stroke="currentColor" x1="6.6361" y1="-0.0000" x2="4.3814" y2="-0.0000"/>
</g>
<g transform="translate(53.8296, 2.7431)">
<line stroke-linejoin="round" stroke-linecap="round" stroke-width="0.1600" stroke="currentColor" x1="-0.2000" y1="-0.0000" x2="2.2547" y2="-0.0000"/>
</g>
<g transform="translate(113.6232, 3.3787)">
<text font-family="serif" font-style="italic" font-size="1.7459" text-anchor="start" fill="currentColor">
<tspan>3</tspan>
</text>
</g>
<g transform="translate(110.9685, 2.7431)">
<line stroke-linejoin="round" stroke-linecap="round" stroke-width="0.1600" stroke="currentColor" x1="6.6361" y1="-0.0000" x2="6.6361" y2="0.7000"/>
</g>
<g transform="translate(110.9685, 2.7431)">
<line stroke-linejoin="round" stroke-linecap="round" stroke-width="0.1600" stroke="currentColor" x1="-0.2000" y1="-0.0000" x2="-0.2000" y2="0.7000"/>
</g>
<g transform="translate(110.9685, 2.7431)">
<line stroke-linejoin="round" stroke-linecap="round" stroke-width="0.1600" stroke="currentColor" x1="6.6361" y1="-0.0000" x2="4.3814" y2="-0.0000"/>
</g>
<g transform="translate(110.9685, 2.7431)">
<line stroke-linejoin="round" stroke-linecap="round" stroke-width="0.1600" stroke="currentColor" x1="-0.2000" y1="-0.0000" x2="2.2547" y2="-0.0000"/>
</g>
<g transform="translate(110.9685, 4.0831)">
<polygon stroke-linejoin="round" stroke-linecap="round" stroke-width="0.0800" fill="currentColor" stroke="currentColor" points="6.3961 -0.2000 6.3961 0.2000 0.0400 0.2000 0.0400 -0.2000"/>
</g>
<g transform="translate(104.1640, 3.3787)">
<text font-family="serif" font-style="italic" font-size="1.7459" text-anchor="start" fill="currentColor">
<tspan>3</tspan>
</text>
</g>
<g transform="translate(101.5093, 2.7431)">
<line stroke-linejoin="round" stroke-linecap="round" stroke-width="0.1600" stroke="currentColor" x1="6.6361" y1="-0.0000" x2="6.6361" y2="0.7000"/>
</g>
<g transform="translate(101.5093, 2.7431)">
<line stroke-linejoin="round" stroke-linecap="round" stroke-width="0.1600" stroke="currentColor" x1="-0.2000" y1="-0.0000" x2="-0.2000" y2="0.7000"/>
</g>
<g transform="translate(101.5093, 2.7431)">
<line stroke-linejoin="round" stroke-linecap="round" stroke-width="0.1600" stroke="currentColor" x1="6.6361" y1="-0.0000" x2="4.3814" y2="-0.0000"/>
</g>
<g transform="translate(101.5093, 2.7431)">
<line stroke-linejoin="round" stroke-linecap="round" stroke-width="0.1600" stroke="currentColor" x1="-0.2000" y1="-0.0000" x2="2.2547" y2="-0.0000"/>
</g>
<g transform="translate(101.5093, 4.0831)">
<polygon stroke-linejoin="round" stroke-linecap="round" stroke-width="0.0800" fill="currentColor" stroke="currentColor" points="6.3961 -0.2000 6.3961 0.2000 0.0400 0.2000 0.0400 -0.2000"/>
</g>
<g transform="translate(53.8296, 4.0831)">
<polygon stroke-linejoin="round" stroke-linecap="round" stroke-width="0.0800" fill="currentColor" stroke="currentColor" points="6.3961 -0.2000 6.3961 0.2000 0.0400 0.2000 0.0400 -0.2000"/>
</g>
<g transform="translate(104.0680, 1.6184)">
<text font-family="serif" font-style="italic" font-size="1.7459" text-anchor="start" fill="currentColor">
<tspan>3</tspan>
</text>
</g>
<g transform="translate(91.8582, 0.9828)">
<line stroke-linejoin="round" stroke-linecap="round" stroke-width="0.1600" stroke="currentColor" x1="25.7464" y1="-0.0000" x2="25.7464" y2="0.7000"/>
</g>
<g transform="translate(91.8582, 0.9828)">
<line stroke-linejoin="round" stroke-linecap="round" stroke-width="0.1600" stroke="currentColor" x1="-0.2000" y1="-0.0000" x2="-0.2000" y2="0.7000"/>
</g>
<g transform="translate(91.8582, 0.9828)">
<line stroke-linejoin="round" stroke-linecap="round" stroke-width="0.1600" stroke="currentColor" x1="25.7464" y1="-0.0000" x2="13.9365" y2="-0.0000"/>
</g>
<g transform="translate(91.8582, 0.9828)">
<line stroke-linejoin="round" stroke-linecap="round" stroke-width="0.1600" stroke="currentColor" x1="-0.2000" y1="-0.0000" x2="11.8098" y2="-0.0000"/>
</g>
<g transform="translate(94.5129, 3.3787)">
<text font-family="serif" font-style="italic" font-size="1.7459" text-anchor="start" fill="currentColor">
<tspan>3</tspan>
</text>
</g>
<g transform="translate(91.8582, 2.7431)">
<line stroke-linejoin="round" stroke-linecap="round" stroke-width="0.1600" stroke="currentColor" x1="6.6361" y1="-0.0000" x2="6.6361" y2="0.7000"/>
</g>
<g transform="translate(91.8582, 2.7431)">
<line stroke-linejoin="round" stroke-linecap="round" stroke-width="0.1600" stroke="currentColor" x1="-0.2000" y1="-0.0000" x2="-0.2000" y2="0.7000"/>
</g>
<g transform="translate(91.8582, 2.7431)">
<line stroke-linejoin="round" stroke-linecap="round" stroke-width="0.1600" stroke="currentColor" x1="6.6361" y1="-0.0000" x2="4.3814" y2="-0.0000"/>
</g>
<g transform="translate(91.8582, 2.7431)">
<line stroke-linejoin="round" stroke-linecap="round" stroke-width="0.1600" stroke="currentColor" x1="-0.2000" y1="-0.0000" x2="2.2547" y2="-0.0000"/>
</g>
<g transform="translate(91.8582, 4.0831)">
<polygon stroke-linejoin="round" stroke-linecap="round" stroke-width="0.0800" fill="currentColor" stroke="currentColor" points="6.3961 -0.2000 6.3961 0.2000 0.0400 0.2000 0.0400 -0.2000"/>
</g>
<g transform="translate(116.1004, 7.0831)">
<path transform="scale(0.0040, -0.0040)" d="M218 136c66 0 108 -36 108 -89c0 -89 -113 -183 -218 -183c-66 0 -108 36 -108 89c0 89 113 183 218 183z" fill="currentColor"/>
</g>
<g transform="translate(117.3396, 7.0831)">
<rect x="-0.0650" y="-3.0000" width="0.1300" height="2.8139" ry="0.0400" fill="currentColor"/>
</g>
<g transform="translate(115.8989, 12.5831)">
<text font-family="Charis SIL" font-weight="bold" font-style="italic" font-size="2.4697" text-anchor="start" fill="currentColor">
<tspan>4</tspan>
</text>
</g>
<g transform="translate(114.1865, 7.0831)">
<rect x="-0.0650" y="-3.0000" width="0.1300" height="2.8139" ry="0.0400" fill="currentColor"/>
</g>
<g transform="translate(112.7629, 12.5831)">
<text font-family="Charis SIL" font-weight="bold" font-style="italic" font-size="2.4697" text-anchor="start" fill="currentColor">
<tspan>a</tspan>
</text>
</g>
<g transform="translate(112.9473, 7.0831)">
<path transform="scale(0.0040, -0.0040)" d="M218 136c66 0 108 -36 108 -89c0 -89 -113 -183 -218 -183c-66 0 -108 36 -108 89c0 89 113 183 218 183z" fill="currentColor"/>
</g>
<g transform="translate(34.7194, 0.9828)">
<line stroke-linejoin="round" stroke-linecap="round" stroke-width="0.1600" stroke="currentColor" x1="25.7464" y1="-0.0000" x2="25.7464" y2="0.7000"/>
</g>
<g transform="translate(34.7194, 0.9828)">
<line stroke-linejoin="round" stroke-linecap="round" stroke-width="0.1600" stroke="currentColor" x1="-0.2000" y1="-0.0000" x2="-0.2000" y2="0.7000"/>
</g>
<g transform="translate(34.7194, 0.9828)">
<line stroke-linejoin="round" stroke-linecap="round" stroke-width="0.1600" stroke="currentColor" x1="25.7464" y1="-0.0000" x2="13.9365" y2="-0.0000"/>
</g>
<g transform="translate(34.7194, 0.9828)">
<line stroke-linejoin="round" stroke-linecap="round" stroke-width="0.1600" stroke="currentColor" x1="-0.2000" y1="-0.0000" x2="11.8098" y2="-0.0000"/>
</g>
<g transform="translate(47.0251, 3.3787)">
<text font-family="serif" font-style="italic" font-size="1.7459" text-anchor="start" fill="currentColor">
<tspan>3</tspan>
</text>
</g>
<g transform="translate(44.3704, 2.7431)">
<line stroke-linejoin="round" stroke-linecap="round" stroke-width="0.1600" stroke="currentColor" x1="6.6361" y1="-0.0000" x2="6.6361" y2="0.7000"/>
</g>
<g transform="translate(44.3704, 2.7431)">
<line stroke-linejoin="round" stroke-linecap="round" stroke-width="0.1600" stroke="currentColor" x1="-0.2000" y1="-0.0000" x2="-0.2000" y2="0.7000"/>
</g>
<g transform="translate(44.3704, 2.7431)">
<line stroke-linejoin="round" stroke-linecap="round" stroke-width="0.1600" stroke="currentColor" x1="6.6361" y1="-0.0000" x2="4.3814" y2="-0.0000"/>
</g>
<g transform="translate(44.3704, 2.7431)">
<line stroke-linejoin="round" stroke-linecap="round" stroke-width="0.1600" stroke="currentColor" x1="-0.2000" y1="-0.0000" x2="2.2547" y2="-0.0000"/>
</g>
<g transform="translate(44.3704, 4.0831)">
<polygon stroke-linejoin="round" stroke-linecap="round" stroke-width="0.0800" fill="currentColor" stroke="currentColor" points="6.3961 -0.2000 6.3961 0.2000 0.0400 0.2000 0.0400 -0.2000"/>
</g>
<g transform="translate(46.9292, 1.6184)">
<text font-family="serif" font-style="italic" font-size="1.7459" text-anchor="start" fill="currentColor">
<tspan>3</tspan>
</text>
</g>
<g transform="translate(37.3741, 3.3787)">
<text font-family="serif" font-style="italic" font-size="1.7459" text-anchor="start" fill="currentColor">
<tspan>3</tspan>
</text>
</g>
<g transform="translate(34.7194, 2.7431)">
<line stroke-linejoin="round" stroke-linecap="round" stroke-width="0.1600" stroke="currentColor" x1="6.6361" y1="-0.0000" x2="6.6361" y2="0.7000"/>
</g>
<g transform="translate(34.7194, 2.7431)">
<line stroke-linejoin="round" stroke-linecap="round" stroke-width="0.1600" stroke="currentColor" x1="-0.2000" y1="-0.0000" x2="-0.2000" y2="0.7000"/>
</g>
<g transform="translate(34.7194, 2.7431)">
<line stroke-linejoin="round" stroke-linecap="round" stroke-width="0.1600" stroke="currentColor" x1="6.6361" y1="-0.0000" x2="4.3814" y2="-0.0000"/>
</g>
<g transform="translate(34.7194, 2.7431)">
<line stroke-linejoin="round" stroke-linecap="round" stroke-width="0.1600" stroke="currentColor" x1="-0.2000" y1="-0.0000" x2="2.2547" y2="-0.0000"/>
</g>
<g transform="translate(34.7194, 4.0831)">
<polygon stroke-linejoin="round" stroke-linecap="round" stroke-width="0.0800" fill="currentColor" stroke="currentColor" points="6.3961 -0.2000 6.3961 0.2000 0.0400 0.2000 0.0400 -0.2000"/>
</g>
<g transform="translate(26.0355, 3.0562)">
<text font-family="serif" font-style="italic" font-size="1.7459" text-anchor="start" fill="currentColor">
<tspan>3</tspan>
</text>
</g>
<g transform="translate(22.8979, 2.4206)">
<line stroke-linejoin="round" stroke-linecap="round" stroke-width="0.1600" stroke="currentColor" x1="7.6019" y1="-0.0000" x2="7.6019" y2="0.7000"/>
</g>
<g transform="translate(22.8979, 2.4206)">
<line stroke-linejoin="round" stroke-linecap="round" stroke-width="0.1600" stroke="currentColor" x1="-0.2000" y1="-0.0000" x2="-0.2000" y2="0.7000"/>
</g>
<g transform="translate(22.8979, 2.4206)">
<line stroke-linejoin="round" stroke-linecap="round" stroke-width="0.1600" stroke="currentColor" x1="7.6019" y1="-0.0000" x2="4.8643" y2="-0.0000"/>
</g>
<g transform="translate(22.8979, 2.4206)">
<line stroke-linejoin="round" stroke-linecap="round" stroke-width="0.1600" stroke="currentColor" x1="-0.2000" y1="-0.0000" x2="2.7376" y2="-0.0000"/>
</g>
<g transform="translate(16.8889, 1.2959)">
<text font-family="serif" font-style="italic" font-size="1.7459" text-anchor="start" fill="currentColor">
<tspan>3</tspan>
</text>
</g>
<g transform="translate(4.6047, 0.6603)">
<line stroke-linejoin="round" stroke-linecap="round" stroke-width="0.1600" stroke="currentColor" x1="25.8950" y1="-0.0000" x2="25.8950" y2="0.7000"/>
</g>
<g transform="translate(4.6047, 0.6603)">
<line stroke-linejoin="round" stroke-linecap="round" stroke-width="0.1600" stroke="currentColor" x1="-0.2000" y1="-0.0000" x2="-0.2000" y2="0.7000"/>
</g>
<g transform="translate(4.6047, 0.6603)">
<line stroke-linejoin="round" stroke-linecap="round" stroke-width="0.1600" stroke="currentColor" x1="25.8950" y1="-0.0000" x2="14.0109" y2="-0.0000"/>
</g>
<g transform="translate(4.6047, 0.6603)">
<line stroke-linejoin="round" stroke-linecap="round" stroke-width="0.1600" stroke="currentColor" x1="-0.2000" y1="-0.0000" x2="11.8842" y2="-0.0000"/>
</g>
<g transform="translate(36.5138, 12.5831)">
<text font-family="Charis SIL" font-weight="bold" font-style="italic" font-size="2.4697" text-anchor="start" fill="currentColor">
<tspan>a</tspan>
</text>
</g>
<g transform="translate(41.0905, 7.0831)">
<rect x="-0.0650" y="-3.0000" width="0.1300" height="2.8139" ry="0.0400" fill="currentColor"/>
</g>
<g transform="translate(39.4279, 12.5831)">
<text font-family="Charis SIL" font-weight="bold" font-style="italic" font-size="2.4697" text-anchor="start" fill="currentColor">
<tspan>&amp;</tspan>
</text>
</g>
<g transform="translate(39.8513, 7.0831)">
<path transform="scale(0.0040, -0.0040)" d="M218 136c66 0 108 -36 108 -89c0 -89 -113 -183 -218 -183c-66 0 -108 36 -108 89c0 89 113 183 218 183z" fill="currentColor"/>
</g>
<g transform="translate(37.9375, 7.0831)">
<rect x="-0.0650" y="-3.0000" width="0.1300" height="2.8139" ry="0.0400" fill="currentColor"/>
</g>
<g transform="translate(36.6982, 7.0831)">
<path transform="scale(0.0040, -0.0040)" d="M218 136c66 0 108 -36 108 -89c0 -89 -113 -183 -218 -183c-66 0 -108 36 -108 89c0 89 113 183 218 183z" fill="currentColor"/>
</g>
<g transform="translate(49.5023, 7.0831)">
<path transform="scale(0.0040, -0.0040)" d="M218 136c66 0 108 -36 108 -89c0 -89 -113 -183 -218 -183c-66 0 -108 36 -108 89c0 89 113 183 218 183z" fill="currentColor"/>
</g>
<g transform="translate(47.5885, 7.0831)">
<rect x="-0.0650" y="-3.0000" width="0.1300" height="2.8139" ry="0.0400" fill="currentColor"/>
</g>
<g transform="translate(46.1649, 12.5831)">
<text font-family="Charis SIL" font-weight="bold" font-style="italic" font-size="2.4697" text-anchor="start" fill="currentColor">
<tspan>a</tspan>
</text>
</g>
<g transform="translate(46.3493, 7.0831)">
<path transform="scale(0.0040, -0.0040)" d="M218 136c66 0 108 -36 108 -89c0 -89 -113 -183 -218 -183c-66 0 -108 36 -108 89c0 89 113 183 218 183z" fill="currentColor"/>
</g>
<g transform="translate(44.4354, 7.0831)">
<rect x="-0.0650" y="-3.0000" width="0.1300" height="2.8139" ry="0.0400" fill="currentColor"/>
</g>
<g transform="translate(42.0289, 12.5831)">
<text font-family="Charis SIL" font-weight="bold" font-style="italic" font-size="2.4697" text-anchor="start" fill="currentColor">
<tspan>|</tspan>
</text>
</g>
<g transform="translate(43.5167, 12.5831)">
<text font-family="Charis SIL" font-weight="bold" font-style="italic" font-size="2.4697" text-anchor="start" fill="currentColor">
<tspan>&amp;</tspan>
</text>
</g>
<g transform="translate(43.1962, 7.0831)">
<path transform="scale(0.0040, -0.0040)" d="M218 136c66 0 108 -36 108 -89c0 -89 -113 -183 -218 -183c-66 0 -108 36 -108 89c0 89 113 183 218 183z" fill="currentColor"/>
</g>
<g transform="translate(1.1366, 7.0831)">
<path transform="scale(0.0040, -0.0040)" d="M263 265c0 -33 70 -23 70 -125c0 -92 -79 -140 -179 -140c-79 0 -154 42 -154 113c0 36 30 66 66 66s65 -30 65 -66c0 -25 -40 -28 -40 -53c0 -27 32 -37 63 -37c49 0 63 61 63 117v16c0 54 -2 94 -50 94h-80c-10 0 -14 8 -14 15s4 14 14 14h80c49 0 50 43 50 99v8
c0 54 -18 91 -67 91c-28 0 -57 -9 -57 -33c0 -22 35 -25 35 -47c0 -32 -25 -58 -57 -58s-58 26 -58 58c0 64 67 103 137 103c91 0 169 -33 169 -114c0 -122 -56 -80 -56 -121z" fill="currentColor"/>
</g>
<g transform="translate(1.0000, 9.0991)">
<path transform="scale(0.0040, -0.0040)" d="M196 117h117c0 -48 27 -94 72 -94c8 0 12 -5 12 -11s-4 -12 -12 -12c-44 0 -87 13 -131 13s-87 -13 -131 -13c-8 0 -12 6 -12 12s4 11 12 11c45 0 73 46 73 94zM-2 148c0 12 140 143 140 336c0 10 7 19 16 16c23 -7 47 -13 71 -13s48 6 71 13c14 4 23 -9 17 -16
l-284 -330h167v131c0 34 34 27 68 72c22 30 23 56 36 56c6 0 13 -5 13 -14v-245h72c10 0 15 -7 15 -14s-5 -15 -15 -15h-72v-8h-117v8h-167c-23 0 -31 14 -31 23z" fill="currentColor"/>
</g>
<g transform="translate(4.6047, 5.0831)">
<path transform="scale(0.0040, -0.0040)" d="M-6 78c0 59 124 83 124 182c0 24 -8 49 -25 69l-35 42c-3 3 -4 7 -4 10c0 9 9 15 17 15c4 0 8 -1 11 -5l151 -180c7 -9 10 -17 10 -25c0 -59 -124 -83 -124 -182c0 -24 7 -49 24 -69l84 -99c3 -3 4 -7 4 -10c0 -9 -8 -16 -16 -16s-45 44 -109 44c-16 0 -53 0 -53 -67
c0 -35 11 -74 28 -94c7 -8 -5 -19 -12 -11c-45 54 -92 148 -92 202c0 41 27 42 40 42c33 0 78 -13 119 -31l-132 158c-7 9 -10 17 -10 25z" fill="currentColor"/>
</g>
<g transform="translate(34.7844, 7.0831)">
<rect x="-0.0650" y="-3.0000" width="0.1300" height="2.8139" ry="0.0400" fill="currentColor"/>
</g>
<g transform="translate(32.3779, 12.5831)">
<text font-family="Charis SIL" font-weight="bold" font-style="italic" font-size="2.4697" text-anchor="start" fill="currentColor">
<tspan>|</tspan>
</text>
</g>
<g transform="translate(33.8656, 12.5831)">
<text font-family="Charis SIL" font-weight="bold" font-style="italic" font-size="2.4697" text-anchor="start" fill="currentColor">
<tspan>&amp;</tspan>
</text>
</g>
<g transform="translate(33.5452, 7.0831)">
<path transform="scale(0.0040, -0.0040)" d="M218 136c66 0 108 -36 108 -89c0 -89 -113 -183 -218 -183c-66 0 -108 36 -108 89c0 89 113 183 218 183z" fill="currentColor"/>
</g>
<g transform="translate(30.2998, 3.7481)">
<path transform="scale(0.0040, -0.0040)" d="M0 0v-250h-16v250h16zM0 0c0 -197 207 -336 207 -533c0 -71 -15 -141 -41 -207c-5 -8 -13 -12 -20 -12c-13 0 -26 11 -23 27c26 61 42 126 42 192c0 103 -94 208 -165 283v250z" fill="currentColor"/>
</g>
<g transform="translate(30.2348, 7.0831)">
<rect x="-0.0650" y="-3.3750" width="0.1300" height="3.1889" ry="0.0400" fill="currentColor"/>
</g>
<g transform="translate(29.1757, 12.5831)">
<text font-family="Charis SIL" font-weight="bold" font-style="italic" font-size="2.4697" text-anchor="start" fill="currentColor">
<tspan>1</tspan>
</text>
</g>
<g transform="translate(28.9956, 7.0831)">
<path transform="scale(0.0040, -0.0040)" d="M218 136c66 0 108 -36 108 -89c0 -89 -113 -183 -218 -183c-66 0 -108 36 -108 89c0 89 113 183 218 183z" fill="currentColor"/>
</g>
<g transform="translate(22.8979, 5.0831)">
<path transform="scale(0.0040, -0.0040)" d="M-6 78c0 59 124 83 124 182c0 24 -8 49 -25 69l-35 42c-3 3 -4 7 -4 10c0 9 9 15 17 15c4 0 8 -1 11 -5l151 -180c7 -9 10 -17 10 -25c0 -59 -124 -83 -124 -182c0 -24 7 -49 24 -69l84 -99c3 -3 4 -7 4 -10c0 -9 -8 -16 -16 -16s-45 44 -109 44c-16 0 -53 0 -53 -67
c0 -35 11 -74 28 -94c7 -8 -5 -19 -12 -11c-45 54 -92 148 -92 202c0 41 27 42 40 42c33 0 78 -13 119 -31l-132 158c-7 9 -10 17 -10 25z" fill="currentColor"/>
</g>
<g transform="translate(68.4207, 7.0831)">
<path transform="scale(0.0040, -0.0040)" d="M218 136c66 0 108 -36 108 -89c0 -89 -113 -183 -218 -183c-66 0 -108 36 -108 89c0 89 113 183 218 183z" fill="currentColor"/>
</g>
<g transform="translate(66.5069, 7.0831)">
<rect x="-0.0650" y="-3.0000" width="0.1300" height="2.8139" ry="0.0400" fill="currentColor"/>
</g>
<g transform="translate(65.0833, 12.5831)">
<text font-family="Charis SIL" font-weight="bold" font-style="italic" font-size="2.4697" text-anchor="start" fill="currentColor">
<tspan>a</tspan>
</text>
</g>
<g transform="translate(65.2677, 7.0831)">
<path transform="scale(0.0040, -0.0040)" d="M218 136c66 0 108 -36 108 -89c0 -89 -113 -183 -218 -183c-66 0 -108 36 -108 89c0 89 113 183 218 183z" fill="currentColor"/>
</g>
<g transform="translate(49.3179, 12.5831)">
<text font-family="Charis SIL" font-weight="bold" font-style="italic" font-size="2.4697" text-anchor="start" fill="currentColor">
<tspan>a</tspan>
</text>
</g>
<g transform="translate(63.3538, 7.0831)">
<rect x="-0.0650" y="-3.0000" width="0.1300" height="2.8139" ry="0.0400" fill="currentColor"/>
</g>
<g transform="translate(60.9473, 12.5831)">
<text font-family="Charis SIL" font-weight="bold" font-style="italic" font-size="2.4697" text-anchor="start" fill="currentColor">
<tspan>|</tspan>
</text>
</g>
<g transform="translate(62.4351, 12.5831)">
<text font-family="Charis SIL" font-weight="bold" font-style="italic" font-size="2.4697" text-anchor="start" fill="currentColor">
<tspan>&amp;</tspan>
</text>
</g>
<g transform="translate(62.1146, 7.0831)">
<path transform="scale(0.0040, -0.0040)" d="M218 136c66 0 108 -36 108 -89c0 -89 -113 -183 -218 -183c-66 0 -108 36 -108 89c0 89 113 183 218 183z" fill="currentColor"/>
</g>
<g transform="translate(73.0048, 7.0831)">
<rect x="-0.0650" y="-3.0000" width="0.1300" height="2.8139" ry="0.0400" fill="currentColor"/>
</g>
<g transform="translate(76.1579, 7.0831)">
<rect x="-0.0650" y="-3.0000" width="0.1300" height="2.8139" ry="0.0400" fill="currentColor"/>
</g>
<g transform="translate(74.7343, 12.5831)">
<text font-family="Charis SIL" font-weight="bold" font-style="italic" font-size="2.4697" text-anchor="start" fill="currentColor">
<tspan>a</tspan>
</text>
</g>
<g transform="translate(74.9187, 7.0831)">
<path transform="scale(0.0040, -0.0040)" d="M218 136c66 0 108 -36 108 -89c0 -89 -113 -183 -218 -183c-66 0 -108 36 -108 89c0 89 113 183 218 183z" fill="currentColor"/>
</g>
<g transform="translate(70.5984, 12.5831)">
<text font-family="Charis SIL" font-weight="bold" font-style="italic" font-size="2.4697" text-anchor="start" fill="currentColor">
<tspan>|</tspan>
</text>
</g>
<g transform="translate(72.0861, 12.5831)">
<text font-family="Charis SIL" font-weight="bold" font-style="italic" font-size="2.4697" text-anchor="start" fill="currentColor">
<tspan>&amp;</tspan>
</text>
</g>
<g transform="translate(71.7656, 7.0831)">
<path transform="scale(0.0040, -0.0040)" d="M218 136c66 0 108 -36 108 -89c0 -89 -113 -183 -218 -183c-66 0 -108 36 -108 89c0 89 113 183 218 183z" fill="currentColor"/>
</g>
<g transform="translate(69.6599, 7.0831)">
<rect x="-0.0650" y="-3.0000" width="0.1300" height="2.8139" ry="0.0400" fill="currentColor"/>
</g>
<g transform="translate(67.9973, 12.5831)">
<text font-family="Charis SIL" font-weight="bold" font-style="italic" font-size="2.4697" text-anchor="start" fill="currentColor">
<tspan>&amp;</tspan>
</text>
</g>
<g transform="translate(53.8946, 7.0831)">
<rect x="-0.0650" y="-3.0000" width="0.1300" height="2.8139" ry="0.0400" fill="currentColor"/>
</g>
<g transform="translate(51.4881, 12.5831)">
<text font-family="Charis SIL" font-weight="bold" font-style="italic" font-size="2.4697" text-anchor="start" fill="currentColor">
<tspan>|</tspan>
</text>
</g>
<g transform="translate(52.9759, 12.5831)">
<text font-family="Charis SIL" font-weight="bold" font-style="italic" font-size="2.4697" text-anchor="start" fill="currentColor">
<tspan>&amp;</tspan>
</text>
</g>
<g transform="translate(55.8085, 7.0831)">
<path transform="scale(0.0040, -0.0040)" d="M218 136c66 0 108 -36 108 -89c0 -89 -113 -183 -218 -183c-66 0 -108 36 -108 89c0 89 113 183 218 183z" fill="currentColor"/>
</g>
<g transform="translate(52.6554, 7.0831)">
<path transform="scale(0.0040, -0.0040)" d="M218 136c66 0 108 -36 108 -89c0 -89 -113 -183 -218 -183c-66 0 -108 36 -108 89c0 89 113 183 218 183z" fill="currentColor"/>
</g>
<g transform="translate(55.6241, 12.5831)">
<text font-family="Charis SIL" font-weight="bold" font-style="italic" font-size="2.4697" text-anchor="start" fill="currentColor">
<tspan>a</tspan>
</text>
</g>
<g transform="translate(57.0477, 7.0831)">
<rect x="-0.0650" y="-3.0000" width="0.1300" height="2.8139" ry="0.0400" fill="currentColor"/>
</g>
<g transform="translate(60.2007, 7.0831)">
<rect x="-0.0650" y="-3.0000" width="0.1300" height="2.8139" ry="0.0400" fill="currentColor"/>
</g>
<g transform="translate(58.7601, 12.5831)">
<text font-family="Charis SIL" font-weight="bold" font-style="italic" font-size="2.4697" text-anchor="start" fill="currentColor">
<tspan>2</tspan>
</text>
</g>
<g transform="translate(50.7415, 7.0831)">
<rect x="-0.0650" y="-3.0000" width="0.1300" height="2.8139" ry="0.0400" fill="currentColor"/>
</g>
<g transform="translate(58.9615, 7.0831)">
<path transform="scale(0.0040, -0.0040)" d="M218 136c66 0 108 -36 108 -89c0 -89 -113 -183 -218 -183c-66 0 -108 36 -108 89c0 89 113 183 218 183z" fill="currentColor"/>
</g>
</svg>
